<?xml version="1.0" encoding="UTF-8" standalone="no"?><svg xmlns="http://www.w3.org/2000/svg" xmlns:xlink="http://www.w3.org/1999/xlink" clip-rule="evenodd" stroke-miterlimit="10" viewBox="0 0 1024 768"><desc>SVG generated by Keynote</desc><defs></defs><g transform="matrix(1.00, 0.00, -0.00, -1.00, 0.0, 768.0)"><path d="M 0.0 768.0 L 1024.0 768.0 L 1024.0 0.0 L 0.0 0.0 Z M 0.0 768.0 " fill="#000000"></path><g><clipPath id="clip0x6100004bf3e0"><path d="M -4.0 768.0 L 508.0 768.0 L 508.0 0.0 L -4.0 0.0 Z M -4.0 768.0 "></path></clipPath><g clip-path="url(#clip0x6100004bf3e0)"><image xlink:href="7CD1769B3EE5C3EB046632149EA1F210.jpeg" width="1024.00" height="1024.00" transform="matrix(0.75, 0.00, -0.00, -0.75, -171.0, 768.0)"></image></g></g><text xml:space="preserve" font-family="Avenir-Light,Avenir" font-size="32.0" fill="#FEFFFF" transform="matrix(1.00, 0.00, -0.00, -1.00, 574.0, 683.7)">D</text><text xml:space="preserve" font-family="Avenir-Light,Avenir" font-size="32.0" fill="#FEFFFF" transform="matrix(1.00, 0.00, -0.00, -1.00, 602.8, 683.7)">R</text><text xml:space="preserve" font-family="Avenir-Light,Avenir" font-size="32.0" fill="#FEFFFF" transform="matrix(1.00, 0.00, -0.00, -1.00, 626.9, 683.7)">U</text><text xml:space="preserve" font-family="Avenir-Light,Avenir" font-size="32.0" fill="#FEFFFF" transform="matrix(1.00, 0.00, -0.00, -1.00, 653.9, 683.7)">P</text><text xml:space="preserve" font-family="Avenir-Light,Avenir" font-size="32.0" fill="#FEFFFF" transform="matrix(1.00, 0.00, -0.00, -1.00, 675.1, 683.7)">A</text><text xml:space="preserve" font-family="Avenir-Light,Avenir" font-size="32.0" fill="#FEFFFF" transform="matrix(1.00, 0.00, -0.00, -1.00, 702.1, 683.7)">L</text><text xml:space="preserve" font-family="Avenir-Light,Avenir" font-size="32.0" fill="#FEFFFF" transform="matrix(1.00, 0.00, -0.00, -1.00, 723.2, 683.7)"> </text><text xml:space="preserve" font-family="Avenir-Light,Avenir" font-size="32.0" fill="#FEFFFF" transform="matrix(1.00, 0.00, -0.00, -1.00, 736.7, 683.7)">8</text><text xml:space="preserve" font-family="Avenir-Light,Avenir" font-size="32.0" fill="#FEFFFF" transform="matrix(1.00, 0.00, -0.00, -1.00, 758.4, 683.7)"> </text><text xml:space="preserve" font-family="Avenir-Light,Avenir" font-size="32.0" fill="#FEFFFF" transform="matrix(1.00, 0.00, -0.00, -1.00, 574.0, 639.7)">O</text><text xml:space="preserve" font-family="Avenir-Light,Avenir" font-size="32.0" fill="#FEFFFF" transform="matrix(1.00, 0.00, -0.00, -1.00, 605.8, 639.7)">V</text><text xml:space="preserve" font-family="Avenir-Light,Avenir" font-size="32.0" fill="#FEFFFF" transform="matrix(1.00, 0.00, -0.00, -1.00, 629.9, 639.7)">E</text><text xml:space="preserve" font-family="Avenir-Light,Avenir" font-size="32.0" fill="#FEFFFF" transform="matrix(1.00, 0.00, -0.00, -1.00, 654.0, 639.7)">R</text><text xml:space="preserve" font-family="Avenir-Light,Avenir" font-size="32.0" fill="#FEFFFF" transform="matrix(1.00, 0.00, -0.00, -1.00, 678.3, 639.7)">V</text><text xml:space="preserve" font-family="Avenir-Light,Avenir" font-size="32.0" fill="#FEFFFF" transform="matrix(1.00, 0.00, -0.00, -1.00, 702.4, 639.7)">I</text><text xml:space="preserve" font-family="Avenir-Light,Avenir" font-size="32.0" fill="#FEFFFF" transform="matrix(1.00, 0.00, -0.00, -1.00, 715.8, 639.7)">E</text><text xml:space="preserve" font-family="Avenir-Light,Avenir" font-size="32.0" fill="#FEFFFF" transform="matrix(1.00, 0.00, -0.00, -1.00, 739.9, 639.7)">W</text></g></svg>