<?xml version="1.0" encoding="UTF-8" standalone="no"?><svg xmlns="http://www.w3.org/2000/svg" xmlns:xlink="http://www.w3.org/1999/xlink" clip-rule="evenodd" stroke-miterlimit="10" viewBox="0 0 1024 768"><desc>SVG generated by Keynote</desc><defs></defs><g transform="matrix(1.00, 0.00, -0.00, -1.00, 0.0, 768.0)"><path d="M 0.0 768.0 L 1024.0 768.0 L 1024.0 0.0 L 0.0 0.0 Z M 0.0 768.0 " fill="#000000"></path><g><clipPath id="clip0x600000aba760"><path d="M 0.0 768.0 L 1024.0 768.0 L 1024.0 0.0 L 0.0 0.0 Z M 0.0 768.0 "></path></clipPath><g clip-path="url(#clip0x600000aba760)"><image xlink:href="../../9342EFBA-B1A0-40BC-AB5F-A74FA23BDBB9/assets/7D163ED4A8C4BBE2BB6737C5266E4459.jpeg" width="1024.00" height="678.00" transform="matrix(1.13, 0.00, -0.00, -1.13, -68.0, 768.0)"></image></g></g><g opacity="0.75"><g><clipPath id="clip0x6100008b96e0"><path d="M 0.0 0.0 L 1024.0 0.0 L 1024.0 768.0 L 0.0 768.0 Z M 0.0 0.0 "></path></clipPath><g clip-path="url(#clip0x6100008b96e0)"><path d="M -1.0 769.0 L 1025.0 769.0 L 1025.0 -1.0 L -1.0 -1.0 Z M -0.9 768.9 " fill="#000000"></path></g></g></g><text xml:space="preserve" font-family="Avenir-Medium,Avenir" font-size="41.0" fill="#FEFFFE" transform="matrix(1.00, 0.00, -0.00, -1.00, 233.4, 692.0)">B</text><text xml:space="preserve" font-family="Avenir-Medium,Avenir" font-size="41.0" fill="#FEFFFE" transform="matrix(1.00, 0.00, -0.00, -1.00, 265.8, 692.0)">R</text><text xml:space="preserve" font-family="Avenir-Medium,Avenir" font-size="41.0" fill="#FEFFFE" transform="matrix(1.00, 0.00, -0.00, -1.00, 297.4, 692.0)">E</text><text xml:space="preserve" font-family="Avenir-Medium,Avenir" font-size="41.0" fill="#FEFFFE" transform="matrix(1.00, 0.00, -0.00, -1.00, 329.1, 692.0)">A</text><text xml:space="preserve" font-family="Avenir-Medium,Avenir" font-size="41.0" fill="#FEFFFE" transform="matrix(1.00, 0.00, -0.00, -1.00, 364.5, 692.0)">K</text><text xml:space="preserve" font-family="Avenir-Medium,Avenir" font-size="41.0" fill="#FEFFFE" transform="matrix(1.00, 0.00, -0.00, -1.00, 397.6, 692.0)">P</text><text xml:space="preserve" font-family="Avenir-Medium,Avenir" font-size="41.0" fill="#FEFFFE" transform="matrix(1.00, 0.00, -0.00, -1.00, 428.5, 692.0)">O</text><text xml:space="preserve" font-family="Avenir-Medium,Avenir" font-size="41.0" fill="#FEFFFE" transform="matrix(1.00, 0.00, -0.00, -1.00, 469.2, 692.0)">I</text><text xml:space="preserve" font-family="Avenir-Medium,Avenir" font-size="41.0" fill="#FEFFFE" transform="matrix(1.00, 0.00, -0.00, -1.00, 487.1, 692.0)">N</text><text xml:space="preserve" font-family="Avenir-Medium,Avenir" font-size="41.0" fill="#FEFFFE" transform="matrix(1.00, 0.00, -0.00, -1.00, 526.3, 692.0)">T</text><text xml:space="preserve" font-family="Avenir-Medium,Avenir" font-size="41.0" fill="#FEFFFE" transform="matrix(1.00, 0.00, -0.00, -1.00, 556.4, 692.0)"> </text><text xml:space="preserve" font-family="Avenir-Medium,Avenir" font-size="41.0" fill="#FEFFFE" transform="matrix(1.00, 0.00, -0.00, -1.00, 574.4, 692.0)">M</text><text xml:space="preserve" font-family="Avenir-Medium,Avenir" font-size="41.0" fill="#FEFFFE" transform="matrix(1.00, 0.00, -0.00, -1.00, 618.1, 692.0)">O</text><text xml:space="preserve" font-family="Avenir-Medium,Avenir" font-size="41.0" fill="#FEFFFE" transform="matrix(1.00, 0.00, -0.00, -1.00, 658.7, 692.0)">D</text><text xml:space="preserve" font-family="Avenir-Medium,Avenir" font-size="41.0" fill="#FEFFFE" transform="matrix(1.00, 0.00, -0.00, -1.00, 695.7, 692.0)">U</text><text xml:space="preserve" font-family="Avenir-Medium,Avenir" font-size="41.0" fill="#FEFFFE" transform="matrix(1.00, 0.00, -0.00, -1.00, 731.1, 692.0)">L</text><text xml:space="preserve" font-family="Avenir-Medium,Avenir" font-size="41.0" fill="#FEFFFE" transform="matrix(1.00, 0.00, -0.00, -1.00, 758.9, 692.0)">E</text><g><clipPath id="clip0x6100008ba1c0"><path d="M 369.8 516.5 L 613.2 516.5 L 613.2 635.5 L 369.8 635.5 Z M 369.8 516.5 "></path></clipPath><g clip-path="url(#clip0x6100008ba1c0)"><text xml:space="preserve" font-family="Avenir-Light,Avenir" font-size="25.0" fill="#FEFFFF" transform="matrix(1.00, 0.00, -0.00, -1.00, 378.3, 602.1)">@</text><text xml:space="preserve" font-family="Avenir-Light,Avenir" font-size="25.0" fill="#FEFFFF" transform="matrix(1.00, 0.00, -0.00, -1.00, 398.3, 602.1)">m</text><text xml:space="preserve" font-family="Avenir-Light,Avenir" font-size="25.0" fill="#FEFFFF" transform="matrix(1.00, 0.00, -0.00, -1.00, 419.6, 602.1)">e</text><text xml:space="preserve" font-family="Avenir-Light,Avenir" font-size="25.0" fill="#FEFFFF" transform="matrix(1.00, 0.00, -0.00, -1.00, 433.5, 602.1)">d</text><text xml:space="preserve" font-family="Avenir-Light,Avenir" font-size="25.0" fill="#FEFFFF" transform="matrix(1.00, 0.00, -0.00, -1.00, 448.8, 602.1)">i</text><text xml:space="preserve" font-family="Avenir-Light,Avenir" font-size="25.0" fill="#FEFFFF" transform="matrix(1.00, 0.00, -0.00, -1.00, 454.8, 602.1)">a</text><text xml:space="preserve" font-family="Avenir-Light,Avenir" font-size="25.0" fill="#FEFFFF" transform="matrix(1.00, 0.00, -0.00, -1.00, 467.8, 602.1)"> </text><text xml:space="preserve" font-family="Avenir-Light,Avenir" font-size="25.0" fill="#FEFFFF" transform="matrix(1.00, 0.00, -0.00, -1.00, 474.3, 602.1)">o</text><text xml:space="preserve" font-family="Avenir-Light,Avenir" font-size="25.0" fill="#FEFFFF" transform="matrix(1.00, 0.00, -0.00, -1.00, 489.2, 602.1)">n</text><text xml:space="preserve" font-family="Avenir-Light,Avenir" font-size="25.0" fill="#FEFFFF" transform="matrix(1.00, 0.00, -0.00, -1.00, 503.1, 602.1)">l</text><text xml:space="preserve" font-family="Avenir-Light,Avenir" font-size="25.0" fill="#FEFFFF" transform="matrix(1.00, 0.00, -0.00, -1.00, 509.1, 602.1)">y</text><text xml:space="preserve" font-family="Avenir-Light,Avenir" font-size="25.0" fill="#FEFFFF" transform="matrix(1.00, 0.00, -0.00, -1.00, 520.6, 602.1)"> </text><text xml:space="preserve" font-family="Avenir-Light,Avenir" font-size="25.0" fill="#FEFFFF" transform="matrix(1.00, 0.00, -0.00, -1.00, 527.1, 602.1)">s</text><text xml:space="preserve" font-family="Avenir-Light,Avenir" font-size="25.0" fill="#FEFFFF" transform="matrix(1.00, 0.00, -0.00, -1.00, 537.8, 602.1)">c</text><text xml:space="preserve" font-family="Avenir-Light,Avenir" font-size="25.0" fill="#FEFFFF" transform="matrix(1.00, 0.00, -0.00, -1.00, 549.8, 602.1)">r</text><text xml:space="preserve" font-family="Avenir-Light,Avenir" font-size="25.0" fill="#FEFFFF" transform="matrix(1.00, 0.00, -0.00, -1.00, 557.7, 602.1)">e</text><text xml:space="preserve" font-family="Avenir-Light,Avenir" font-size="25.0" fill="#FEFFFF" transform="matrix(1.00, 0.00, -0.00, -1.00, 571.6, 602.1)">e</text><text xml:space="preserve" font-family="Avenir-Light,Avenir" font-size="25.0" fill="#FEFFFF" transform="matrix(1.00, 0.00, -0.00, -1.00, 585.5, 602.1)">n</text><text xml:space="preserve" font-family="Avenir-Light,Avenir" font-size="25.0" fill="#FEFFFF" transform="matrix(1.00, 0.00, -0.00, -1.00, 599.4, 602.1)"> </text><text xml:space="preserve" font-family="Avenir-Light,Avenir" font-size="25.0" fill="#FEFFFF" transform="matrix(1.00, 0.00, -0.00, -1.00, 378.3, 568.1)">a</text><text xml:space="preserve" font-family="Avenir-Light,Avenir" font-size="25.0" fill="#FEFFFF" transform="matrix(1.00, 0.00, -0.00, -1.00, 391.3, 568.1)">n</text><text xml:space="preserve" font-family="Avenir-Light,Avenir" font-size="25.0" fill="#FEFFFF" transform="matrix(1.00, 0.00, -0.00, -1.00, 405.2, 568.1)">d</text><text xml:space="preserve" font-family="Avenir-Light,Avenir" font-size="25.0" fill="#FEFFFF" transform="matrix(1.00, 0.00, -0.00, -1.00, 420.5, 568.1)"> </text><text xml:space="preserve" font-family="Avenir-Light,Avenir" font-size="25.0" fill="#FEFFFF" transform="matrix(1.00, 0.00, -0.00, -1.00, 427.0, 568.1)">(</text><text xml:space="preserve" font-family="Avenir-Light,Avenir" font-size="25.0" fill="#FEFFFF" transform="matrix(1.00, 0.00, -0.00, -1.00, 433.5, 568.1)">m</text><text xml:space="preserve" font-family="Avenir-Light,Avenir" font-size="25.0" fill="#FEFFFF" transform="matrix(1.00, 0.00, -0.00, -1.00, 454.8, 568.1)">i</text><text xml:space="preserve" font-family="Avenir-Light,Avenir" font-size="25.0" fill="#FEFFFF" transform="matrix(1.00, 0.00, -0.00, -1.00, 460.8, 568.1)">n</text><text xml:space="preserve" font-family="Avenir-Light,Avenir" font-size="25.0" fill="#FEFFFF" transform="matrix(1.00, 0.00, -0.00, -1.00, 474.7, 568.1)">-</text><text xml:space="preserve" font-family="Avenir-Light,Avenir" font-size="25.0" fill="#FEFFFF" transform="matrix(1.00, 0.00, -0.00, -1.00, 483.0, 568.1)">w</text><text xml:space="preserve" font-family="Avenir-Light,Avenir" font-size="25.0" fill="#FEFFFF" transform="matrix(1.00, 0.00, -0.00, -1.00, 500.6, 568.1)">i</text><text xml:space="preserve" font-family="Avenir-Light,Avenir" font-size="25.0" fill="#FEFFFF" transform="matrix(1.00, 0.00, -0.00, -1.00, 506.6, 568.1)">d</text><text xml:space="preserve" font-family="Avenir-Light,Avenir" font-size="25.0" fill="#FEFFFF" transform="matrix(1.00, 0.00, -0.00, -1.00, 521.9, 568.1)">t</text><text xml:space="preserve" font-family="Avenir-Light,Avenir" font-size="25.0" fill="#FEFFFF" transform="matrix(1.00, 0.00, -0.00, -1.00, 530.3, 568.1)">h</text><text xml:space="preserve" font-family="Avenir-Light,Avenir" font-size="25.0" fill="#FEFFFF" transform="matrix(1.00, 0.00, -0.00, -1.00, 544.2, 568.1)">:</text><text xml:space="preserve" font-family="Avenir-Light,Avenir" font-size="25.0" fill="#FEFFFF" transform="matrix(1.00, 0.00, -0.00, -1.00, 378.3, 534.1)">7</text><text xml:space="preserve" font-family="Avenir-Light,Avenir" font-size="25.0" fill="#FEFFFF" transform="matrix(1.00, 0.00, -0.00, -1.00, 391.3, 534.1)">6</text><text xml:space="preserve" font-family="Avenir-Light,Avenir" font-size="25.0" fill="#FEFFFF" transform="matrix(1.00, 0.00, -0.00, -1.00, 404.3, 534.1)">8</text><text xml:space="preserve" font-family="Avenir-Light,Avenir" font-size="25.0" fill="#FEFFFF" transform="matrix(1.00, 0.00, -0.00, -1.00, 417.3, 534.1)">p</text><text xml:space="preserve" font-family="Avenir-Light,Avenir" font-size="25.0" fill="#FEFFFF" transform="matrix(1.00, 0.00, -0.00, -1.00, 432.6, 534.1)">x</text><text xml:space="preserve" font-family="Avenir-Light,Avenir" font-size="25.0" fill="#FEFFFF" transform="matrix(1.00, 0.00, -0.00, -1.00, 444.6, 534.1)">)</text><text xml:space="preserve" font-family="Avenir-Light,Avenir" font-size="25.0" fill="#FEFFFF" transform="matrix(1.00, 0.00, -0.00, -1.00, 451.1, 534.1)"> </text><text xml:space="preserve" font-family="Avenir-Light,Avenir" font-size="25.0" fill="#FEFFFF" transform="matrix(1.00, 0.00, -0.00, -1.00, 457.6, 534.1)">{</text><text xml:space="preserve" font-family="Avenir-Light,Avenir" font-size="25.0" fill="#FEFFFF" transform="matrix(1.00, 0.00, -0.00, -1.00, 466.0, 534.1)">…</text><text xml:space="preserve" font-family="Avenir-Light,Avenir" font-size="25.0" fill="#FEFFFF" transform="matrix(1.00, 0.00, -0.00, -1.00, 491.0, 534.1)">}</text></g></g><g><clipPath id="clip0x6100008bb420"><path d="M 382.0 443.4 L 540.5 443.4 L 540.5 491.6 L 382.0 491.6 Z M 382.0 443.4 "></path></clipPath><g clip-path="url(#clip0x6100008bb420)"><path d="M 0.0 -0.4 L 156.0 -0.4 L 156.0 45.6 L 0.0 45.6 Z M 0.0 0.0 " fill="none" stroke="#55D6FF" stroke-width="1.00" transform="matrix(1.00, 0.00, 0.00, -1.00, 383.5, 490.1)"></path></g></g><g><clipPath id="clip0x6100008bb660"><path d="M 380.3 442.9 L 542.2 442.9 L 542.2 492.3 L 380.3 492.3 Z M 380.3 442.9 "></path></clipPath><g clip-path="url(#clip0x6100008bb660)"><text xml:space="preserve" font-family="Avenir-Medium,Avenir" font-size="24.0" fill="#55D6FF" transform="matrix(1.00, 0.00, -0.00, -1.00, 434.6, 459.9)">A</text><text xml:space="preserve" font-family="Avenir-Medium,Avenir" font-size="24.0" fill="#55D6FF" transform="matrix(1.00, 0.00, -0.00, -1.00, 455.3, 459.9)">a</text><text xml:space="preserve" font-family="Avenir-Medium,Avenir" font-size="24.0" fill="#55D6FF" transform="matrix(1.00, 0.00, -0.00, -1.00, 471.6, 459.9)">a</text></g></g><g><clipPath id="clip0x6100008bb960"><path d="M 382.0 382.4 L 458.2 382.4 L 458.2 430.6 L 382.0 430.6 Z M 382.0 382.4 "></path></clipPath><g clip-path="url(#clip0x6100008bb960)"><path d="M 0.0 -0.4 L 73.0 -0.4 L 73.0 45.6 L 0.0 45.6 Z M 0.0 0.0 " fill="none" stroke="#55D6FF" stroke-width="1.00" transform="matrix(1.00, 0.00, 0.00, -1.00, 383.5, 429.1)"></path></g></g><g><clipPath id="clip0x6100008bbba0"><path d="M 380.3 381.9 L 459.9 381.9 L 459.9 431.3 L 380.3 431.3 Z M 380.3 381.9 "></path></clipPath><g clip-path="url(#clip0x6100008bbba0)"><text xml:space="preserve" font-family="Avenir-Medium,Avenir" font-size="24.0" fill="#55D6FF" transform="matrix(1.00, 0.00, -0.00, -1.00, 392.1, 398.9)">B</text><text xml:space="preserve" font-family="Avenir-Medium,Avenir" font-size="24.0" fill="#55D6FF" transform="matrix(1.00, 0.00, -0.00, -1.00, 411.1, 398.9)">b</text><text xml:space="preserve" font-family="Avenir-Medium,Avenir" font-size="24.0" fill="#55D6FF" transform="matrix(1.00, 0.00, -0.00, -1.00, 429.6, 398.9)">b</text></g></g><g><clipPath id="clip0x6100008bbea0"><path d="M 465.4 382.4 L 541.2 382.4 L 541.2 430.6 L 465.4 430.6 Z M 465.4 382.4 "></path></clipPath><g clip-path="url(#clip0x6100008bbea0)"><path d="M -0.4 -0.4 L 72.6 -0.4 L 72.6 45.6 L -0.4 45.6 Z M 0.0 0.0 " fill="none" stroke="#55D6FF" stroke-width="1.00" transform="matrix(1.00, 0.00, 0.00, -1.00, 466.9, 429.1)"></path></g></g><g><clipPath id="clip0x6100008bc0e0"><path d="M 463.7 381.9 L 542.9 381.9 L 542.9 431.3 L 463.7 431.3 Z M 463.7 381.9 "></path></clipPath><g clip-path="url(#clip0x6100008bc0e0)"><text xml:space="preserve" font-family="Avenir-Medium,Avenir" font-size="24.0" fill="#55D6FF" transform="matrix(1.00, 0.00, -0.00, -1.00, 477.5, 398.9)">C</text><text xml:space="preserve" font-family="Avenir-Medium,Avenir" font-size="24.0" fill="#55D6FF" transform="matrix(1.00, 0.00, -0.00, -1.00, 498.3, 398.9)">c</text><text xml:space="preserve" font-family="Avenir-Medium,Avenir" font-size="24.0" fill="#55D6FF" transform="matrix(1.00, 0.00, -0.00, -1.00, 513.7, 398.9)">c</text></g></g><g><clipPath id="clip0x618000aa8460"><path d="M 715.6 398.0 L 783.8 398.0 L 783.8 476.0 L 715.6 476.0 Z M 715.6 398.0 "></path></clipPath><g clip-path="url(#clip0x618000aa8460)"><path d="M 0.4 0.0 L 65.4 0.0 L 65.4 75.0 L 0.4 75.0 Z M 0.0 0.0 " fill="none" stroke="#55D6FF" stroke-width="1.00" transform="matrix(1.00, 0.00, 0.00, -1.00, 717.1, 474.5)"></path></g></g><g><clipPath id="clip0x618000aa86a0"><path d="M 713.9 400.5 L 785.5 400.5 L 785.5 473.5 L 713.9 473.5 Z M 713.9 400.5 "></path></clipPath><g clip-path="url(#clip0x618000aa86a0)"><text xml:space="preserve" font-family="Avenir-Medium,Avenir" font-size="24.0" fill="#55D6FF" transform="matrix(1.00, 0.00, -0.00, -1.00, 723.0, 429.3)">A</text><text xml:space="preserve" font-family="Avenir-Medium,Avenir" font-size="24.0" fill="#55D6FF" transform="matrix(1.00, 0.00, -0.00, -1.00, 743.8, 429.3)">a</text><text xml:space="preserve" font-family="Avenir-Medium,Avenir" font-size="24.0" fill="#55D6FF" transform="matrix(1.00, 0.00, -0.00, -1.00, 760.1, 429.3)">a</text></g></g><g><clipPath id="clip0x618000aa89a0"><path d="M 792.8 397.9 L 866.3 397.9 L 866.3 476.1 L 792.8 476.1 Z M 792.8 397.9 "></path></clipPath><g clip-path="url(#clip0x618000aa89a0)"><path d="M 0.2 0.1 L 70.2 0.1 L 70.2 75.1 L 0.2 75.1 Z M 0.0 0.0 " fill="none" stroke="#55D6FF" stroke-width="1.00" transform="matrix(1.00, 0.00, 0.00, -1.00, 794.3, 474.6)"></path></g></g><g><clipPath id="clip0x618000aa8be0"><path d="M 791.1 400.4 L 868.0 400.4 L 868.0 473.6 L 791.1 473.6 Z M 791.1 400.4 "></path></clipPath><g clip-path="url(#clip0x618000aa8be0)"><text xml:space="preserve" font-family="Avenir-Medium,Avenir" font-size="24.0" fill="#55D6FF" transform="matrix(1.00, 0.00, -0.00, -1.00, 801.6, 429.3)">B</text><text xml:space="preserve" font-family="Avenir-Medium,Avenir" font-size="24.0" fill="#55D6FF" transform="matrix(1.00, 0.00, -0.00, -1.00, 820.5, 429.3)">b</text><text xml:space="preserve" font-family="Avenir-Medium,Avenir" font-size="24.0" fill="#55D6FF" transform="matrix(1.00, 0.00, -0.00, -1.00, 839.0, 429.3)">b</text></g></g><g><clipPath id="clip0x618000aa8ee0"><path d="M 875.3 397.9 L 943.5 397.9 L 943.5 476.1 L 875.3 476.1 Z M 875.3 397.9 "></path></clipPath><g clip-path="url(#clip0x618000aa8ee0)"><path d="M -0.3 0.1 L 65.7 0.1 L 65.7 75.1 L -0.3 75.1 Z M 0.0 0.0 " fill="none" stroke="#55D6FF" stroke-width="1.00" transform="matrix(1.00, 0.00, 0.00, -1.00, 876.8, 474.6)"></path></g></g><g><clipPath id="clip0x618000aa9120"><path d="M 873.6 400.4 L 945.2 400.4 L 945.2 473.6 L 873.6 473.6 Z M 873.6 400.4 "></path></clipPath><g clip-path="url(#clip0x618000aa9120)"><text xml:space="preserve" font-family="Avenir-Medium,Avenir" font-size="24.0" fill="#55D6FF" transform="matrix(1.00, 0.00, -0.00, -1.00, 883.6, 429.3)">C</text><text xml:space="preserve" font-family="Avenir-Medium,Avenir" font-size="24.0" fill="#55D6FF" transform="matrix(1.00, 0.00, -0.00, -1.00, 904.4, 429.3)">c</text><text xml:space="preserve" font-family="Avenir-Medium,Avenir" font-size="24.0" fill="#55D6FF" transform="matrix(1.00, 0.00, -0.00, -1.00, 919.8, 429.3)">c</text></g></g><g><clipPath id="clip0x618000aa9420"><path d="M 707.9 515.5 L 951.2 515.5 L 951.2 634.5 L 707.9 634.5 Z M 707.9 515.5 "></path></clipPath><g clip-path="url(#clip0x618000aa9420)"><text xml:space="preserve" font-family="Avenir-Light,Avenir" font-size="25.0" fill="#FEFFFF" transform="matrix(1.00, 0.00, -0.00, -1.00, 716.4, 601.1)">@</text><text xml:space="preserve" font-family="Avenir-Light,Avenir" font-size="25.0" fill="#FEFFFF" transform="matrix(1.00, 0.00, -0.00, -1.00, 736.4, 601.1)">m</text><text xml:space="preserve" font-family="Avenir-Light,Avenir" font-size="25.0" fill="#FEFFFF" transform="matrix(1.00, 0.00, -0.00, -1.00, 757.7, 601.1)">e</text><text xml:space="preserve" font-family="Avenir-Light,Avenir" font-size="25.0" fill="#FEFFFF" transform="matrix(1.00, 0.00, -0.00, -1.00, 771.6, 601.1)">d</text><text xml:space="preserve" font-family="Avenir-Light,Avenir" font-size="25.0" fill="#FEFFFF" transform="matrix(1.00, 0.00, -0.00, -1.00, 786.9, 601.1)">i</text><text xml:space="preserve" font-family="Avenir-Light,Avenir" font-size="25.0" fill="#FEFFFF" transform="matrix(1.00, 0.00, -0.00, -1.00, 792.9, 601.1)">a</text><text xml:space="preserve" font-family="Avenir-Light,Avenir" font-size="25.0" fill="#FEFFFF" transform="matrix(1.00, 0.00, -0.00, -1.00, 805.9, 601.1)"> </text><text xml:space="preserve" font-family="Avenir-Light,Avenir" font-size="25.0" fill="#FEFFFF" transform="matrix(1.00, 0.00, -0.00, -1.00, 812.4, 601.1)">o</text><text xml:space="preserve" font-family="Avenir-Light,Avenir" font-size="25.0" fill="#FEFFFF" transform="matrix(1.00, 0.00, -0.00, -1.00, 827.2, 601.1)">n</text><text xml:space="preserve" font-family="Avenir-Light,Avenir" font-size="25.0" fill="#FEFFFF" transform="matrix(1.00, 0.00, -0.00, -1.00, 841.1, 601.1)">l</text><text xml:space="preserve" font-family="Avenir-Light,Avenir" font-size="25.0" fill="#FEFFFF" transform="matrix(1.00, 0.00, -0.00, -1.00, 847.1, 601.1)">y</text><text xml:space="preserve" font-family="Avenir-Light,Avenir" font-size="25.0" fill="#FEFFFF" transform="matrix(1.00, 0.00, -0.00, -1.00, 858.7, 601.1)"> </text><text xml:space="preserve" font-family="Avenir-Light,Avenir" font-size="25.0" fill="#FEFFFF" transform="matrix(1.00, 0.00, -0.00, -1.00, 865.2, 601.1)">s</text><text xml:space="preserve" font-family="Avenir-Light,Avenir" font-size="25.0" fill="#FEFFFF" transform="matrix(1.00, 0.00, -0.00, -1.00, 875.9, 601.1)">c</text><text xml:space="preserve" font-family="Avenir-Light,Avenir" font-size="25.0" fill="#FEFFFF" transform="matrix(1.00, 0.00, -0.00, -1.00, 887.9, 601.1)">r</text><text xml:space="preserve" font-family="Avenir-Light,Avenir" font-size="25.0" fill="#FEFFFF" transform="matrix(1.00, 0.00, -0.00, -1.00, 895.8, 601.1)">e</text><text xml:space="preserve" font-family="Avenir-Light,Avenir" font-size="25.0" fill="#FEFFFF" transform="matrix(1.00, 0.00, -0.00, -1.00, 909.7, 601.1)">e</text><text xml:space="preserve" font-family="Avenir-Light,Avenir" font-size="25.0" fill="#FEFFFF" transform="matrix(1.00, 0.00, -0.00, -1.00, 923.6, 601.1)">n</text><text xml:space="preserve" font-family="Avenir-Light,Avenir" font-size="25.0" fill="#FEFFFF" transform="matrix(1.00, 0.00, -0.00, -1.00, 937.5, 601.1)"> </text><text xml:space="preserve" font-family="Avenir-Light,Avenir" font-size="25.0" fill="#FEFFFF" transform="matrix(1.00, 0.00, -0.00, -1.00, 716.4, 567.1)">a</text><text xml:space="preserve" font-family="Avenir-Light,Avenir" font-size="25.0" fill="#FEFFFF" transform="matrix(1.00, 0.00, -0.00, -1.00, 729.4, 567.1)">n</text><text xml:space="preserve" font-family="Avenir-Light,Avenir" font-size="25.0" fill="#FEFFFF" transform="matrix(1.00, 0.00, -0.00, -1.00, 743.3, 567.1)">d</text><text xml:space="preserve" font-family="Avenir-Light,Avenir" font-size="25.0" fill="#FEFFFF" transform="matrix(1.00, 0.00, -0.00, -1.00, 758.6, 567.1)"> </text><text xml:space="preserve" font-family="Avenir-Light,Avenir" font-size="25.0" fill="#FEFFFF" transform="matrix(1.00, 0.00, -0.00, -1.00, 765.1, 567.1)">(</text><text xml:space="preserve" font-family="Avenir-Light,Avenir" font-size="25.0" fill="#FEFFFF" transform="matrix(1.00, 0.00, -0.00, -1.00, 771.6, 567.1)">m</text><text xml:space="preserve" font-family="Avenir-Light,Avenir" font-size="25.0" fill="#FEFFFF" transform="matrix(1.00, 0.00, -0.00, -1.00, 792.9, 567.1)">i</text><text xml:space="preserve" font-family="Avenir-Light,Avenir" font-size="25.0" fill="#FEFFFF" transform="matrix(1.00, 0.00, -0.00, -1.00, 798.9, 567.1)">n</text><text xml:space="preserve" font-family="Avenir-Light,Avenir" font-size="25.0" fill="#FEFFFF" transform="matrix(1.00, 0.00, -0.00, -1.00, 812.8, 567.1)">-</text><text xml:space="preserve" font-family="Avenir-Light,Avenir" font-size="25.0" fill="#FEFFFF" transform="matrix(1.00, 0.00, -0.00, -1.00, 821.1, 567.1)">w</text><text xml:space="preserve" font-family="Avenir-Light,Avenir" font-size="25.0" fill="#FEFFFF" transform="matrix(1.00, 0.00, -0.00, -1.00, 838.7, 567.1)">i</text><text xml:space="preserve" font-family="Avenir-Light,Avenir" font-size="25.0" fill="#FEFFFF" transform="matrix(1.00, 0.00, -0.00, -1.00, 844.7, 567.1)">d</text><text xml:space="preserve" font-family="Avenir-Light,Avenir" font-size="25.0" fill="#FEFFFF" transform="matrix(1.00, 0.00, -0.00, -1.00, 860.0, 567.1)">t</text><text xml:space="preserve" font-family="Avenir-Light,Avenir" font-size="25.0" fill="#FEFFFF" transform="matrix(1.00, 0.00, -0.00, -1.00, 868.3, 567.1)">h</text><text xml:space="preserve" font-family="Avenir-Light,Avenir" font-size="25.0" fill="#FEFFFF" transform="matrix(1.00, 0.00, -0.00, -1.00, 882.2, 567.1)">:</text><text xml:space="preserve" font-family="Avenir-Light,Avenir" font-size="25.0" fill="#FEFFFF" transform="matrix(1.00, 0.00, -0.00, -1.00, 716.4, 533.1)">1</text><text xml:space="preserve" font-family="Avenir-Light,Avenir" font-size="25.0" fill="#FEFFFF" transform="matrix(1.00, 0.00, -0.00, -1.00, 729.4, 533.1)">2</text><text xml:space="preserve" font-family="Avenir-Light,Avenir" font-size="25.0" fill="#FEFFFF" transform="matrix(1.00, 0.00, -0.00, -1.00, 742.4, 533.1)">8</text><text xml:space="preserve" font-family="Avenir-Light,Avenir" font-size="25.0" fill="#FEFFFF" transform="matrix(1.00, 0.00, -0.00, -1.00, 755.4, 533.1)">0</text><text xml:space="preserve" font-family="Avenir-Light,Avenir" font-size="25.0" fill="#FEFFFF" transform="matrix(1.00, 0.00, -0.00, -1.00, 768.4, 533.1)">p</text><text xml:space="preserve" font-family="Avenir-Light,Avenir" font-size="25.0" fill="#FEFFFF" transform="matrix(1.00, 0.00, -0.00, -1.00, 783.7, 533.1)">x</text><text xml:space="preserve" font-family="Avenir-Light,Avenir" font-size="25.0" fill="#FEFFFF" transform="matrix(1.00, 0.00, -0.00, -1.00, 795.7, 533.1)">)</text><text xml:space="preserve" font-family="Avenir-Light,Avenir" font-size="25.0" fill="#FEFFFF" transform="matrix(1.00, 0.00, -0.00, -1.00, 802.2, 533.1)"> </text><text xml:space="preserve" font-family="Avenir-Light,Avenir" font-size="25.0" fill="#FEFFFF" transform="matrix(1.00, 0.00, -0.00, -1.00, 808.7, 533.1)">{</text><text xml:space="preserve" font-family="Avenir-Light,Avenir" font-size="25.0" fill="#FEFFFF" transform="matrix(1.00, 0.00, -0.00, -1.00, 817.0, 533.1)">…</text><text xml:space="preserve" font-family="Avenir-Light,Avenir" font-size="25.0" fill="#FEFFFF" transform="matrix(1.00, 0.00, -0.00, -1.00, 842.0, 533.1)">}</text></g></g><g><clipPath id="clip0x618000aaa6e0"><path d="M 81.6 473.9 L 211.1 473.9 L 211.1 522.1 L 81.6 522.1 Z M 81.6 473.9 "></path></clipPath><g clip-path="url(#clip0x618000aaa6e0)"><path d="M 0.4 0.1 L 126.4 0.1 L 126.4 45.1 L 0.4 45.1 Z M 0.0 0.0 " fill="none" stroke="#55D6FF" stroke-width="1.00" transform="matrix(1.00, 0.00, 0.00, -1.00, 83.1, 520.6)"></path></g></g><g><clipPath id="clip0x618000aaa920"><path d="M 79.9 473.4 L 212.8 473.4 L 212.8 522.8 L 79.9 522.8 Z M 79.9 473.4 "></path></clipPath><g clip-path="url(#clip0x618000aaa920)"><text xml:space="preserve" font-family="Avenir-Medium,Avenir" font-size="24.0" fill="#55D6FF" transform="matrix(1.00, 0.00, -0.00, -1.00, 119.7, 490.4)">A</text><text xml:space="preserve" font-family="Avenir-Medium,Avenir" font-size="24.0" fill="#55D6FF" transform="matrix(1.00, 0.00, -0.00, -1.00, 140.4, 490.4)">a</text><text xml:space="preserve" font-family="Avenir-Medium,Avenir" font-size="24.0" fill="#55D6FF" transform="matrix(1.00, 0.00, -0.00, -1.00, 156.7, 490.4)">a</text></g></g><g><clipPath id="clip0x618000aaac20"><path d="M 81.6 412.9 L 211.1 412.9 L 211.1 461.1 L 81.6 461.1 Z M 81.6 412.9 "></path></clipPath><g clip-path="url(#clip0x618000aaac20)"><path d="M 0.4 0.1 L 126.4 0.1 L 126.4 45.1 L 0.4 45.1 Z M 0.0 0.0 " fill="none" stroke="#55D6FF" stroke-width="1.00" transform="matrix(1.00, 0.00, 0.00, -1.00, 83.1, 459.6)"></path></g></g><g><clipPath id="clip0x618000aaae60"><path d="M 79.9 412.4 L 212.8 412.4 L 212.8 461.8 L 79.9 461.8 Z M 79.9 412.4 "></path></clipPath><g clip-path="url(#clip0x618000aaae60)"><text xml:space="preserve" font-family="Avenir-Medium,Avenir" font-size="24.0" fill="#55D6FF" transform="matrix(1.00, 0.00, -0.00, -1.00, 118.4, 429.4)">B</text><text xml:space="preserve" font-family="Avenir-Medium,Avenir" font-size="24.0" fill="#55D6FF" transform="matrix(1.00, 0.00, -0.00, -1.00, 137.4, 429.4)">b</text><text xml:space="preserve" font-family="Avenir-Medium,Avenir" font-size="24.0" fill="#55D6FF" transform="matrix(1.00, 0.00, -0.00, -1.00, 155.9, 429.4)">b</text></g></g><g><clipPath id="clip0x618000aab160"><path d="M 81.6 351.9 L 211.1 351.9 L 211.1 400.1 L 81.6 400.1 Z M 81.6 351.9 "></path></clipPath><g clip-path="url(#clip0x618000aab160)"><path d="M 0.4 0.1 L 126.4 0.1 L 126.4 45.1 L 0.4 45.1 Z M 0.0 0.0 " fill="none" stroke="#55D6FF" stroke-width="1.00" transform="matrix(1.00, 0.00, 0.00, -1.00, 83.1, 398.6)"></path></g></g><g><clipPath id="clip0x618000aab3a0"><path d="M 79.9 351.4 L 212.8 351.4 L 212.8 400.8 L 79.9 400.8 Z M 79.9 351.4 "></path></clipPath><g clip-path="url(#clip0x618000aab3a0)"><text xml:space="preserve" font-family="Avenir-Medium,Avenir" font-size="24.0" fill="#55D6FF" transform="matrix(1.00, 0.00, -0.00, -1.00, 120.6, 368.4)">C</text><text xml:space="preserve" font-family="Avenir-Medium,Avenir" font-size="24.0" fill="#55D6FF" transform="matrix(1.00, 0.00, -0.00, -1.00, 141.3, 368.4)">c</text><text xml:space="preserve" font-family="Avenir-Medium,Avenir" font-size="24.0" fill="#55D6FF" transform="matrix(1.00, 0.00, -0.00, -1.00, 156.7, 368.4)">c</text></g></g><g><clipPath id="clip0x618000aab6a0"><path d="M 60.5 538.5 L 249.7 538.5 L 249.7 623.5 L 60.5 623.5 Z M 60.5 538.5 "></path></clipPath><g clip-path="url(#clip0x618000aab6a0)"><text xml:space="preserve" font-family="Avenir-Light,Avenir" font-size="25.0" fill="#FEFFFF" transform="matrix(1.00, 0.00, -0.00, -1.00, 69.0, 590.1)">@</text><text xml:space="preserve" font-family="Avenir-Light,Avenir" font-size="25.0" fill="#FEFFFF" transform="matrix(1.00, 0.00, -0.00, -1.00, 89.0, 590.1)">m</text><text xml:space="preserve" font-family="Avenir-Light,Avenir" font-size="25.0" fill="#FEFFFF" transform="matrix(1.00, 0.00, -0.00, -1.00, 110.3, 590.1)">e</text><text xml:space="preserve" font-family="Avenir-Light,Avenir" font-size="25.0" fill="#FEFFFF" transform="matrix(1.00, 0.00, -0.00, -1.00, 124.2, 590.1)">d</text><text xml:space="preserve" font-family="Avenir-Light,Avenir" font-size="25.0" fill="#FEFFFF" transform="matrix(1.00, 0.00, -0.00, -1.00, 139.5, 590.1)">i</text><text xml:space="preserve" font-family="Avenir-Light,Avenir" font-size="25.0" fill="#FEFFFF" transform="matrix(1.00, 0.00, -0.00, -1.00, 145.5, 590.1)">a</text><text xml:space="preserve" font-family="Avenir-Light,Avenir" font-size="25.0" fill="#FEFFFF" transform="matrix(1.00, 0.00, -0.00, -1.00, 158.5, 590.1)"> </text><text xml:space="preserve" font-family="Avenir-Light,Avenir" font-size="25.0" fill="#FEFFFF" transform="matrix(1.00, 0.00, -0.00, -1.00, 165.0, 590.1)">o</text><text xml:space="preserve" font-family="Avenir-Light,Avenir" font-size="25.0" fill="#FEFFFF" transform="matrix(1.00, 0.00, -0.00, -1.00, 179.8, 590.1)">n</text><text xml:space="preserve" font-family="Avenir-Light,Avenir" font-size="25.0" fill="#FEFFFF" transform="matrix(1.00, 0.00, -0.00, -1.00, 193.7, 590.1)">l</text><text xml:space="preserve" font-family="Avenir-Light,Avenir" font-size="25.0" fill="#FEFFFF" transform="matrix(1.00, 0.00, -0.00, -1.00, 199.7, 590.1)">y</text><text xml:space="preserve" font-family="Avenir-Light,Avenir" font-size="25.0" fill="#FEFFFF" transform="matrix(1.00, 0.00, -0.00, -1.00, 211.3, 590.1)"> </text><text xml:space="preserve" font-family="Avenir-Light,Avenir" font-size="25.0" fill="#FEFFFF" transform="matrix(1.00, 0.00, -0.00, -1.00, 69.0, 556.1)">s</text><text xml:space="preserve" font-family="Avenir-Light,Avenir" font-size="25.0" fill="#FEFFFF" transform="matrix(1.00, 0.00, -0.00, -1.00, 79.7, 556.1)">c</text><text xml:space="preserve" font-family="Avenir-Light,Avenir" font-size="25.0" fill="#FEFFFF" transform="matrix(1.00, 0.00, -0.00, -1.00, 91.7, 556.1)">r</text><text xml:space="preserve" font-family="Avenir-Light,Avenir" font-size="25.0" fill="#FEFFFF" transform="matrix(1.00, 0.00, -0.00, -1.00, 99.6, 556.1)">e</text><text xml:space="preserve" font-family="Avenir-Light,Avenir" font-size="25.0" fill="#FEFFFF" transform="matrix(1.00, 0.00, -0.00, -1.00, 113.5, 556.1)">e</text><text xml:space="preserve" font-family="Avenir-Light,Avenir" font-size="25.0" fill="#FEFFFF" transform="matrix(1.00, 0.00, -0.00, -1.00, 127.4, 556.1)">n</text><text xml:space="preserve" font-family="Avenir-Light,Avenir" font-size="25.0" fill="#FEFFFF" transform="matrix(1.00, 0.00, -0.00, -1.00, 141.3, 556.1)"> </text><text xml:space="preserve" font-family="Avenir-Light,Avenir" font-size="25.0" fill="#FEFFFF" transform="matrix(1.00, 0.00, -0.00, -1.00, 147.8, 556.1)">{</text><text xml:space="preserve" font-family="Avenir-Light,Avenir" font-size="25.0" fill="#FEFFFF" transform="matrix(1.00, 0.00, -0.00, -1.00, 156.1, 556.1)">…</text><text xml:space="preserve" font-family="Avenir-Light,Avenir" font-size="25.0" fill="#FEFFFF" transform="matrix(1.00, 0.00, -0.00, -1.00, 181.1, 556.1)">}</text></g></g><g><clipPath id="clip0x618000aac0c0"><path d="M 49.3 277.2 L 246.8 277.2 L 246.8 356.0 L 49.3 356.0 Z M 49.3 277.2 "></path></clipPath><g clip-path="url(#clip0x618000aac0c0)"><image xlink:href="../../84CCE33A-E752-4781-9B54-12E638B1E860/assets/E000660C78905A92F293004D4FA87A99.png" width="218.00" height="87.00" transform="matrix(0.91, 0.00, -0.00, -0.91, 49.3, 356.0)"></image></g></g><g><clipPath id="clip0x618000aac120"><path d="M 362.5 274.2 L 560.0 274.2 L 560.0 353.0 L 362.5 353.0 Z M 362.5 274.2 "></path></clipPath><g clip-path="url(#clip0x618000aac120)"><image xlink:href="../../84CCE33A-E752-4781-9B54-12E638B1E860/assets/E000660C78905A92F293004D4FA87A99.png" width="218.00" height="87.00" transform="matrix(0.91, 0.00, -0.00, -0.91, 362.5, 353.0)"></image></g></g><g><clipPath id="clip0x608000aa3ba0"><path d="M 730.8 274.2 L 928.3 274.2 L 928.3 353.0 L 730.8 353.0 Z M 730.8 274.2 "></path></clipPath><g clip-path="url(#clip0x608000aa3ba0)"><image xlink:href="../../84CCE33A-E752-4781-9B54-12E638B1E860/assets/E000660C78905A92F293004D4FA87A99.png" width="218.00" height="87.00" transform="matrix(0.91, 0.00, -0.00, -0.91, 730.8, 353.0)"></image></g></g><g><clipPath id="clip0x618000aac360"><path d="M 67.4 189.8 L 225.4 189.8 L 225.4 272.2 L 67.4 272.2 Z M 67.4 189.8 "></path></clipPath><g clip-path="url(#clip0x618000aac360)"><text xml:space="preserve" font-family="Avenir-Light,Avenir" font-size="40.0" fill="#FEFFFF" transform="matrix(1.00, 0.00, -0.00, -1.00, 81.5, 218.1)">N</text><text xml:space="preserve" font-family="Avenir-Light,Avenir" font-size="40.0" fill="#FEFFFF" transform="matrix(1.00, 0.00, -0.00, -1.00, 112.6, 218.1)">a</text><text xml:space="preserve" font-family="Avenir-Light,Avenir" font-size="40.0" fill="#FEFFFF" transform="matrix(1.00, 0.00, -0.00, -1.00, 133.4, 218.1)">r</text><text xml:space="preserve" font-family="Avenir-Light,Avenir" font-size="40.0" fill="#FEFFFF" transform="matrix(1.00, 0.00, -0.00, -1.00, 146.7, 218.1)">r</text><text xml:space="preserve" font-family="Avenir-Light,Avenir" font-size="40.0" fill="#FEFFFF" transform="matrix(1.00, 0.00, -0.00, -1.00, 159.3, 218.1)">o</text><text xml:space="preserve" font-family="Avenir-Light,Avenir" font-size="40.0" fill="#FEFFFF" transform="matrix(1.00, 0.00, -0.00, -1.00, 183.1, 218.1)">w</text></g></g><g><clipPath id="clip0x618000aac960"><path d="M 366.7 189.8 L 555.8 189.8 L 555.8 272.2 L 366.7 272.2 Z M 366.7 189.8 "></path></clipPath><g clip-path="url(#clip0x618000aac960)"><text xml:space="preserve" font-family="Avenir-Light,Avenir" font-size="40.0" fill="#FEFFFF" transform="matrix(1.00, 0.00, -0.00, -1.00, 380.9, 218.1)">S</text><text xml:space="preserve" font-family="Avenir-Light,Avenir" font-size="40.0" fill="#FEFFFF" transform="matrix(1.00, 0.00, -0.00, -1.00, 403.1, 218.1)">t</text><text xml:space="preserve" font-family="Avenir-Light,Avenir" font-size="40.0" fill="#FEFFFF" transform="matrix(1.00, 0.00, -0.00, -1.00, 416.4, 218.1)">a</text><text xml:space="preserve" font-family="Avenir-Light,Avenir" font-size="40.0" fill="#FEFFFF" transform="matrix(1.00, 0.00, -0.00, -1.00, 437.2, 218.1)">n</text><text xml:space="preserve" font-family="Avenir-Light,Avenir" font-size="40.0" fill="#FEFFFF" transform="matrix(1.00, 0.00, -0.00, -1.00, 459.4, 218.1)">d</text><text xml:space="preserve" font-family="Avenir-Light,Avenir" font-size="40.0" fill="#FEFFFF" transform="matrix(1.00, 0.00, -0.00, -1.00, 483.9, 218.1)">a</text><text xml:space="preserve" font-family="Avenir-Light,Avenir" font-size="40.0" fill="#FEFFFF" transform="matrix(1.00, 0.00, -0.00, -1.00, 504.6, 218.1)">r</text><text xml:space="preserve" font-family="Avenir-Light,Avenir" font-size="40.0" fill="#FEFFFF" transform="matrix(1.00, 0.00, -0.00, -1.00, 517.2, 218.1)">d</text></g></g><g><clipPath id="clip0x618000aace40"><path d="M 767.9 189.8 L 891.2 189.8 L 891.2 272.2 L 767.9 272.2 Z M 767.9 189.8 "></path></clipPath><g clip-path="url(#clip0x618000aace40)"><text xml:space="preserve" font-family="Avenir-Light,Avenir" font-size="40.0" fill="#FEFFFF" transform="matrix(1.00, 0.00, -0.00, -1.00, 782.0, 218.1)">W</text><text xml:space="preserve" font-family="Avenir-Light,Avenir" font-size="40.0" fill="#FEFFFF" transform="matrix(1.00, 0.00, -0.00, -1.00, 820.8, 218.1)">i</text><text xml:space="preserve" font-family="Avenir-Light,Avenir" font-size="40.0" fill="#FEFFFF" transform="matrix(1.00, 0.00, -0.00, -1.00, 830.4, 218.1)">d</text><text xml:space="preserve" font-family="Avenir-Light,Avenir" font-size="40.0" fill="#FEFFFF" transform="matrix(1.00, 0.00, -0.00, -1.00, 854.8, 218.1)">e</text></g></g><g><clipPath id="clip0x618000aad1a0"><path d="M 219.6 33.4 L 723.0 33.4 L 723.0 82.8 L 219.6 82.8 Z M 219.6 33.4 "></path></clipPath><g clip-path="url(#clip0x618000aad1a0)"><text xml:space="preserve" font-family="Avenir-Medium,Avenir" font-size="24.0" fill="#FEFFFE" transform="matrix(1.00, 0.00, -0.00, -1.00, 228.2, 50.4)">“</text><text xml:space="preserve" font-family="Avenir-Medium,Avenir" font-size="24.0" fill="#FEFFFE" transform="matrix(1.00, 0.00, -0.00, -1.00, 244.5, 50.4)">T</text><text xml:space="preserve" font-family="Avenir-Medium,Avenir" font-size="24.0" fill="#FEFFFE" transform="matrix(1.00, 0.00, -0.00, -1.00, 262.2, 50.4)">O</text><text xml:space="preserve" font-family="Avenir-Medium,Avenir" font-size="24.0" fill="#FEFFFE" transform="matrix(1.00, 0.00, -0.00, -1.00, 286.0, 50.4)">O</text><text xml:space="preserve" font-family="Avenir-Medium,Avenir" font-size="24.0" fill="#FEFFFE" transform="matrix(1.00, 0.00, -0.00, -1.00, 309.8, 50.4)">L</text><text xml:space="preserve" font-family="Avenir-Medium,Avenir" font-size="24.0" fill="#FEFFFE" transform="matrix(1.00, 0.00, -0.00, -1.00, 326.1, 50.4)">B</text><text xml:space="preserve" font-family="Avenir-Medium,Avenir" font-size="24.0" fill="#FEFFFE" transform="matrix(1.00, 0.00, -0.00, -1.00, 345.0, 50.4)">A</text><text xml:space="preserve" font-family="Avenir-Medium,Avenir" font-size="24.0" fill="#FEFFFE" transform="matrix(1.00, 0.00, -0.00, -1.00, 365.8, 50.4)">R</text><text xml:space="preserve" font-family="Avenir-Medium,Avenir" font-size="24.0" fill="#FEFFFE" transform="matrix(1.00, 0.00, -0.00, -1.00, 384.3, 50.4)">”</text><text xml:space="preserve" font-family="Avenir-Medium,Avenir" font-size="24.0" fill="#FEFFFE" transform="matrix(1.00, 0.00, -0.00, -1.00, 400.6, 50.4)"> </text><text xml:space="preserve" font-family="Avenir-Medium,Avenir" font-size="24.0" fill="#FEFFFE" transform="matrix(1.00, 0.00, -0.00, -1.00, 411.1, 50.4)">B</text><text xml:space="preserve" font-family="Avenir-Medium,Avenir" font-size="24.0" fill="#FEFFFE" transform="matrix(1.00, 0.00, -0.00, -1.00, 430.0, 50.4)">R</text><text xml:space="preserve" font-family="Avenir-Medium,Avenir" font-size="24.0" fill="#FEFFFE" transform="matrix(1.00, 0.00, -0.00, -1.00, 448.5, 50.4)">E</text><text xml:space="preserve" font-family="Avenir-Medium,Avenir" font-size="24.0" fill="#FEFFFE" transform="matrix(1.00, 0.00, -0.00, -1.00, 467.0, 50.4)">A</text><text xml:space="preserve" font-family="Avenir-Medium,Avenir" font-size="24.0" fill="#FEFFFE" transform="matrix(1.00, 0.00, -0.00, -1.00, 487.8, 50.4)">K</text><text xml:space="preserve" font-family="Avenir-Medium,Avenir" font-size="24.0" fill="#FEFFFE" transform="matrix(1.00, 0.00, -0.00, -1.00, 507.2, 50.4)">P</text><text xml:space="preserve" font-family="Avenir-Medium,Avenir" font-size="24.0" fill="#FEFFFE" transform="matrix(1.00, 0.00, -0.00, -1.00, 525.2, 50.4)">O</text><text xml:space="preserve" font-family="Avenir-Medium,Avenir" font-size="24.0" fill="#FEFFFE" transform="matrix(1.00, 0.00, -0.00, -1.00, 549.1, 50.4)">I</text><text xml:space="preserve" font-family="Avenir-Medium,Avenir" font-size="24.0" fill="#FEFFFE" transform="matrix(1.00, 0.00, -0.00, -1.00, 559.6, 50.4)">N</text><text xml:space="preserve" font-family="Avenir-Medium,Avenir" font-size="24.0" fill="#FEFFFE" transform="matrix(1.00, 0.00, -0.00, -1.00, 582.5, 50.4)">T</text><text xml:space="preserve" font-family="Avenir-Medium,Avenir" font-size="24.0" fill="#FEFFFE" transform="matrix(1.00, 0.00, -0.00, -1.00, 600.1, 50.4)"> </text><text xml:space="preserve" font-family="Avenir-Medium,Avenir" font-size="24.0" fill="#FEFFFE" transform="matrix(1.00, 0.00, -0.00, -1.00, 610.6, 50.4)">G</text><text xml:space="preserve" font-family="Avenir-Medium,Avenir" font-size="24.0" fill="#FEFFFE" transform="matrix(1.00, 0.00, -0.00, -1.00, 633.2, 50.4)">R</text><text xml:space="preserve" font-family="Avenir-Medium,Avenir" font-size="24.0" fill="#FEFFFE" transform="matrix(1.00, 0.00, -0.00, -1.00, 651.7, 50.4)">O</text><text xml:space="preserve" font-family="Avenir-Medium,Avenir" font-size="24.0" fill="#FEFFFE" transform="matrix(1.00, 0.00, -0.00, -1.00, 675.5, 50.4)">U</text><text xml:space="preserve" font-family="Avenir-Medium,Avenir" font-size="24.0" fill="#FEFFFE" transform="matrix(1.00, 0.00, -0.00, -1.00, 696.2, 50.4)">P</text></g></g><g><clipPath id="clip0x618000aadd40"><path d="M 475.8 81.9 L 821.3 179.1 L 822.1 176.2 L 476.6 79.0 Z M 475.8 81.9 "></path></clipPath><g clip-path="url(#clip0x618000aadd40)"><path d="M 0.0 0.0 L 356.9 0.0 " fill="none" stroke="#55D6FF" stroke-width="1.00" transform="matrix(0.96, 0.27, 0.27, -0.96, 477.2, 80.7)"></path></g></g><g><clipPath id="clip0x618000aadf80"><path d="M 445.7 78.3 L 157.7 188.0 L 158.7 190.8 L 446.8 81.1 Z M 445.7 78.3 "></path></clipPath><g clip-path="url(#clip0x618000aadf80)"><path d="M 0.0 0.0 L 306.3 0.0 " fill="none" stroke="#55D6FF" stroke-width="1.00" transform="matrix(-0.93, 0.36, 0.36, 0.93, 445.3, 80.0)"></path></g></g><g><clipPath id="clip0x618000aae1c0"><path d="M 459.8 79.2 L 459.8 190.2 L 462.8 190.2 L 462.8 79.2 Z M 459.8 79.2 "></path></clipPath><g clip-path="url(#clip0x618000aae1c0)"><path d="M -0.2 0.2 L 108.8 0.2 " fill="none" stroke="#55D6FF" stroke-width="1.00" transform="matrix(0.00, 1.00, 1.00, 0.00, 461.3, 80.2)"></path></g></g></g></svg>