<?xml version="1.0" encoding="UTF-8" standalone="no"?><svg xmlns="http://www.w3.org/2000/svg" xmlns:xlink="http://www.w3.org/1999/xlink" clip-rule="evenodd" stroke-miterlimit="10" viewBox="0 0 666 155"><desc>SVG generated by Keynote</desc><defs></defs><g transform="matrix(1.00, 0.00, -0.00, -1.00, 0.0, 155.0)"><g><clipPath id="clip0x600000ab3fe0"><path d="M 62.6 -2.6 L 566.0 -2.6 L 566.0 46.8 L 62.6 46.8 Z M 62.6 -2.6 "></path></clipPath><g clip-path="url(#clip0x600000ab3fe0)"><text xml:space="preserve" font-family="Avenir-Medium,Avenir" font-size="24.0" fill="#FEFFFE" transform="matrix(1.00, 0.00, -0.00, -1.00, 71.2, 14.4)">“</text><text xml:space="preserve" font-family="Avenir-Medium,Avenir" font-size="24.0" fill="#FEFFFE" transform="matrix(1.00, 0.00, -0.00, -1.00, 87.5, 14.4)">T</text><text xml:space="preserve" font-family="Avenir-Medium,Avenir" font-size="24.0" fill="#FEFFFE" transform="matrix(1.00, 0.00, -0.00, -1.00, 105.2, 14.4)">O</text><text xml:space="preserve" font-family="Avenir-Medium,Avenir" font-size="24.0" fill="#FEFFFE" transform="matrix(1.00, 0.00, -0.00, -1.00, 129.0, 14.4)">O</text><text xml:space="preserve" font-family="Avenir-Medium,Avenir" font-size="24.0" fill="#FEFFFE" transform="matrix(1.00, 0.00, -0.00, -1.00, 152.8, 14.4)">L</text><text xml:space="preserve" font-family="Avenir-Medium,Avenir" font-size="24.0" fill="#FEFFFE" transform="matrix(1.00, 0.00, -0.00, -1.00, 169.1, 14.4)">B</text><text xml:space="preserve" font-family="Avenir-Medium,Avenir" font-size="24.0" fill="#FEFFFE" transform="matrix(1.00, 0.00, -0.00, -1.00, 188.0, 14.4)">A</text><text xml:space="preserve" font-family="Avenir-Medium,Avenir" font-size="24.0" fill="#FEFFFE" transform="matrix(1.00, 0.00, -0.00, -1.00, 208.8, 14.4)">R</text><text xml:space="preserve" font-family="Avenir-Medium,Avenir" font-size="24.0" fill="#FEFFFE" transform="matrix(1.00, 0.00, -0.00, -1.00, 227.3, 14.4)">”</text><text xml:space="preserve" font-family="Avenir-Medium,Avenir" font-size="24.0" fill="#FEFFFE" transform="matrix(1.00, 0.00, -0.00, -1.00, 243.6, 14.4)"> </text><text xml:space="preserve" font-family="Avenir-Medium,Avenir" font-size="24.0" fill="#FEFFFE" transform="matrix(1.00, 0.00, -0.00, -1.00, 254.1, 14.4)">B</text><text xml:space="preserve" font-family="Avenir-Medium,Avenir" font-size="24.0" fill="#FEFFFE" transform="matrix(1.00, 0.00, -0.00, -1.00, 273.0, 14.4)">R</text><text xml:space="preserve" font-family="Avenir-Medium,Avenir" font-size="24.0" fill="#FEFFFE" transform="matrix(1.00, 0.00, -0.00, -1.00, 291.5, 14.4)">E</text><text xml:space="preserve" font-family="Avenir-Medium,Avenir" font-size="24.0" fill="#FEFFFE" transform="matrix(1.00, 0.00, -0.00, -1.00, 310.0, 14.4)">A</text><text xml:space="preserve" font-family="Avenir-Medium,Avenir" font-size="24.0" fill="#FEFFFE" transform="matrix(1.00, 0.00, -0.00, -1.00, 330.8, 14.4)">K</text><text xml:space="preserve" font-family="Avenir-Medium,Avenir" font-size="24.0" fill="#FEFFFE" transform="matrix(1.00, 0.00, -0.00, -1.00, 350.2, 14.4)">P</text><text xml:space="preserve" font-family="Avenir-Medium,Avenir" font-size="24.0" fill="#FEFFFE" transform="matrix(1.00, 0.00, -0.00, -1.00, 368.2, 14.4)">O</text><text xml:space="preserve" font-family="Avenir-Medium,Avenir" font-size="24.0" fill="#FEFFFE" transform="matrix(1.00, 0.00, -0.00, -1.00, 392.1, 14.4)">I</text><text xml:space="preserve" font-family="Avenir-Medium,Avenir" font-size="24.0" fill="#FEFFFE" transform="matrix(1.00, 0.00, -0.00, -1.00, 402.6, 14.4)">N</text><text xml:space="preserve" font-family="Avenir-Medium,Avenir" font-size="24.0" fill="#FEFFFE" transform="matrix(1.00, 0.00, -0.00, -1.00, 425.5, 14.4)">T</text><text xml:space="preserve" font-family="Avenir-Medium,Avenir" font-size="24.0" fill="#FEFFFE" transform="matrix(1.00, 0.00, -0.00, -1.00, 443.1, 14.4)"> </text><text xml:space="preserve" font-family="Avenir-Medium,Avenir" font-size="24.0" fill="#FEFFFE" transform="matrix(1.00, 0.00, -0.00, -1.00, 453.6, 14.4)">G</text><text xml:space="preserve" font-family="Avenir-Medium,Avenir" font-size="24.0" fill="#FEFFFE" transform="matrix(1.00, 0.00, -0.00, -1.00, 476.2, 14.4)">R</text><text xml:space="preserve" font-family="Avenir-Medium,Avenir" font-size="24.0" fill="#FEFFFE" transform="matrix(1.00, 0.00, -0.00, -1.00, 494.7, 14.4)">O</text><text xml:space="preserve" font-family="Avenir-Medium,Avenir" font-size="24.0" fill="#FEFFFE" transform="matrix(1.00, 0.00, -0.00, -1.00, 518.5, 14.4)">U</text><text xml:space="preserve" font-family="Avenir-Medium,Avenir" font-size="24.0" fill="#FEFFFE" transform="matrix(1.00, 0.00, -0.00, -1.00, 539.2, 14.4)">P</text></g></g><g><clipPath id="clip0x600000ab5060"><path d="M 318.8 45.9 L 664.3 143.1 L 665.1 140.2 L 319.6 43.0 Z M 318.8 45.9 "></path></clipPath><g clip-path="url(#clip0x600000ab5060)"><path d="M 0.0 0.0 L 356.9 0.0 " fill="none" stroke="#55D6FF" stroke-width="1.00" transform="matrix(0.96, 0.27, 0.27, -0.96, 320.2, 44.7)"></path></g></g><g><clipPath id="clip0x600000ab52a0"><path d="M 288.7 42.3 L 0.7 152.0 L 1.7 154.8 L 289.8 45.1 Z M 288.7 42.3 "></path></clipPath><g clip-path="url(#clip0x600000ab52a0)"><path d="M 0.0 0.0 L 306.3 0.0 " fill="none" stroke="#55D6FF" stroke-width="1.00" transform="matrix(-0.93, 0.36, 0.36, 0.93, 288.3, 44.0)"></path></g></g><g><clipPath id="clip0x600000ab54e0"><path d="M 302.8 43.2 L 302.8 154.2 L 305.8 154.2 L 305.8 43.2 Z M 302.8 43.2 "></path></clipPath><g clip-path="url(#clip0x600000ab54e0)"><path d="M -0.2 0.2 L 108.8 0.2 " fill="none" stroke="#55D6FF" stroke-width="1.00" transform="matrix(0.00, 1.00, 1.00, 0.00, 304.3, 44.2)"></path></g></g></g></svg>