<?xml version="1.0" encoding="UTF-8" standalone="no"?><svg xmlns="http://www.w3.org/2000/svg" xmlns:xlink="http://www.w3.org/1999/xlink" clip-rule="evenodd" stroke-miterlimit="10" viewBox="0 0 237 251"><desc>SVG generated by Keynote</desc><defs></defs><g transform="matrix(1.00, 0.00, -0.00, -1.00, 0.0, 251.0)"><g><clipPath id="clip0x6100008b4040"><path d="M -3.2 134.5 L 240.2 134.5 L 240.2 253.5 L -3.2 253.5 Z M -3.2 134.5 "></path></clipPath><g clip-path="url(#clip0x6100008b4040)"><text xml:space="preserve" font-family="Avenir-Light,Avenir" font-size="25.0" fill="#FEFFFF" transform="matrix(1.00, 0.00, -0.00, -1.00, 5.3, 220.1)">@</text><text xml:space="preserve" font-family="Avenir-Light,Avenir" font-size="25.0" fill="#FEFFFF" transform="matrix(1.00, 0.00, -0.00, -1.00, 25.3, 220.1)">m</text><text xml:space="preserve" font-family="Avenir-Light,Avenir" font-size="25.0" fill="#FEFFFF" transform="matrix(1.00, 0.00, -0.00, -1.00, 46.6, 220.1)">e</text><text xml:space="preserve" font-family="Avenir-Light,Avenir" font-size="25.0" fill="#FEFFFF" transform="matrix(1.00, 0.00, -0.00, -1.00, 60.5, 220.1)">d</text><text xml:space="preserve" font-family="Avenir-Light,Avenir" font-size="25.0" fill="#FEFFFF" transform="matrix(1.00, 0.00, -0.00, -1.00, 75.8, 220.1)">i</text><text xml:space="preserve" font-family="Avenir-Light,Avenir" font-size="25.0" fill="#FEFFFF" transform="matrix(1.00, 0.00, -0.00, -1.00, 81.8, 220.1)">a</text><text xml:space="preserve" font-family="Avenir-Light,Avenir" font-size="25.0" fill="#FEFFFF" transform="matrix(1.00, 0.00, -0.00, -1.00, 94.8, 220.1)"> </text><text xml:space="preserve" font-family="Avenir-Light,Avenir" font-size="25.0" fill="#FEFFFF" transform="matrix(1.00, 0.00, -0.00, -1.00, 101.3, 220.1)">o</text><text xml:space="preserve" font-family="Avenir-Light,Avenir" font-size="25.0" fill="#FEFFFF" transform="matrix(1.00, 0.00, -0.00, -1.00, 116.2, 220.1)">n</text><text xml:space="preserve" font-family="Avenir-Light,Avenir" font-size="25.0" fill="#FEFFFF" transform="matrix(1.00, 0.00, -0.00, -1.00, 130.1, 220.1)">l</text><text xml:space="preserve" font-family="Avenir-Light,Avenir" font-size="25.0" fill="#FEFFFF" transform="matrix(1.00, 0.00, -0.00, -1.00, 136.1, 220.1)">y</text><text xml:space="preserve" font-family="Avenir-Light,Avenir" font-size="25.0" fill="#FEFFFF" transform="matrix(1.00, 0.00, -0.00, -1.00, 147.6, 220.1)"> </text><text xml:space="preserve" font-family="Avenir-Light,Avenir" font-size="25.0" fill="#FEFFFF" transform="matrix(1.00, 0.00, -0.00, -1.00, 154.1, 220.1)">s</text><text xml:space="preserve" font-family="Avenir-Light,Avenir" font-size="25.0" fill="#FEFFFF" transform="matrix(1.00, 0.00, -0.00, -1.00, 164.8, 220.1)">c</text><text xml:space="preserve" font-family="Avenir-Light,Avenir" font-size="25.0" fill="#FEFFFF" transform="matrix(1.00, 0.00, -0.00, -1.00, 176.8, 220.1)">r</text><text xml:space="preserve" font-family="Avenir-Light,Avenir" font-size="25.0" fill="#FEFFFF" transform="matrix(1.00, 0.00, -0.00, -1.00, 184.7, 220.1)">e</text><text xml:space="preserve" font-family="Avenir-Light,Avenir" font-size="25.0" fill="#FEFFFF" transform="matrix(1.00, 0.00, -0.00, -1.00, 198.6, 220.1)">e</text><text xml:space="preserve" font-family="Avenir-Light,Avenir" font-size="25.0" fill="#FEFFFF" transform="matrix(1.00, 0.00, -0.00, -1.00, 212.5, 220.1)">n</text><text xml:space="preserve" font-family="Avenir-Light,Avenir" font-size="25.0" fill="#FEFFFF" transform="matrix(1.00, 0.00, -0.00, -1.00, 226.4, 220.1)"> </text><text xml:space="preserve" font-family="Avenir-Light,Avenir" font-size="25.0" fill="#FEFFFF" transform="matrix(1.00, 0.00, -0.00, -1.00, 5.3, 186.1)">a</text><text xml:space="preserve" font-family="Avenir-Light,Avenir" font-size="25.0" fill="#FEFFFF" transform="matrix(1.00, 0.00, -0.00, -1.00, 18.3, 186.1)">n</text><text xml:space="preserve" font-family="Avenir-Light,Avenir" font-size="25.0" fill="#FEFFFF" transform="matrix(1.00, 0.00, -0.00, -1.00, 32.2, 186.1)">d</text><text xml:space="preserve" font-family="Avenir-Light,Avenir" font-size="25.0" fill="#FEFFFF" transform="matrix(1.00, 0.00, -0.00, -1.00, 47.5, 186.1)"> </text><text xml:space="preserve" font-family="Avenir-Light,Avenir" font-size="25.0" fill="#FEFFFF" transform="matrix(1.00, 0.00, -0.00, -1.00, 54.0, 186.1)">(</text><text xml:space="preserve" font-family="Avenir-Light,Avenir" font-size="25.0" fill="#FEFFFF" transform="matrix(1.00, 0.00, -0.00, -1.00, 60.5, 186.1)">m</text><text xml:space="preserve" font-family="Avenir-Light,Avenir" font-size="25.0" fill="#FEFFFF" transform="matrix(1.00, 0.00, -0.00, -1.00, 81.8, 186.1)">i</text><text xml:space="preserve" font-family="Avenir-Light,Avenir" font-size="25.0" fill="#FEFFFF" transform="matrix(1.00, 0.00, -0.00, -1.00, 87.8, 186.1)">n</text><text xml:space="preserve" font-family="Avenir-Light,Avenir" font-size="25.0" fill="#FEFFFF" transform="matrix(1.00, 0.00, -0.00, -1.00, 101.7, 186.1)">-</text><text xml:space="preserve" font-family="Avenir-Light,Avenir" font-size="25.0" fill="#FEFFFF" transform="matrix(1.00, 0.00, -0.00, -1.00, 110.0, 186.1)">w</text><text xml:space="preserve" font-family="Avenir-Light,Avenir" font-size="25.0" fill="#FEFFFF" transform="matrix(1.00, 0.00, -0.00, -1.00, 127.6, 186.1)">i</text><text xml:space="preserve" font-family="Avenir-Light,Avenir" font-size="25.0" fill="#FEFFFF" transform="matrix(1.00, 0.00, -0.00, -1.00, 133.6, 186.1)">d</text><text xml:space="preserve" font-family="Avenir-Light,Avenir" font-size="25.0" fill="#FEFFFF" transform="matrix(1.00, 0.00, -0.00, -1.00, 148.9, 186.1)">t</text><text xml:space="preserve" font-family="Avenir-Light,Avenir" font-size="25.0" fill="#FEFFFF" transform="matrix(1.00, 0.00, -0.00, -1.00, 157.3, 186.1)">h</text><text xml:space="preserve" font-family="Avenir-Light,Avenir" font-size="25.0" fill="#FEFFFF" transform="matrix(1.00, 0.00, -0.00, -1.00, 171.2, 186.1)">:</text><text xml:space="preserve" font-family="Avenir-Light,Avenir" font-size="25.0" fill="#FEFFFF" transform="matrix(1.00, 0.00, -0.00, -1.00, 5.3, 152.1)">7</text><text xml:space="preserve" font-family="Avenir-Light,Avenir" font-size="25.0" fill="#FEFFFF" transform="matrix(1.00, 0.00, -0.00, -1.00, 18.3, 152.1)">6</text><text xml:space="preserve" font-family="Avenir-Light,Avenir" font-size="25.0" fill="#FEFFFF" transform="matrix(1.00, 0.00, -0.00, -1.00, 31.3, 152.1)">8</text><text xml:space="preserve" font-family="Avenir-Light,Avenir" font-size="25.0" fill="#FEFFFF" transform="matrix(1.00, 0.00, -0.00, -1.00, 44.3, 152.1)">p</text><text xml:space="preserve" font-family="Avenir-Light,Avenir" font-size="25.0" fill="#FEFFFF" transform="matrix(1.00, 0.00, -0.00, -1.00, 59.6, 152.1)">x</text><text xml:space="preserve" font-family="Avenir-Light,Avenir" font-size="25.0" fill="#FEFFFF" transform="matrix(1.00, 0.00, -0.00, -1.00, 71.6, 152.1)">)</text><text xml:space="preserve" font-family="Avenir-Light,Avenir" font-size="25.0" fill="#FEFFFF" transform="matrix(1.00, 0.00, -0.00, -1.00, 78.1, 152.1)"> </text><text xml:space="preserve" font-family="Avenir-Light,Avenir" font-size="25.0" fill="#FEFFFF" transform="matrix(1.00, 0.00, -0.00, -1.00, 84.6, 152.1)">{</text><text xml:space="preserve" font-family="Avenir-Light,Avenir" font-size="25.0" fill="#FEFFFF" transform="matrix(1.00, 0.00, -0.00, -1.00, 93.0, 152.1)">…</text><text xml:space="preserve" font-family="Avenir-Light,Avenir" font-size="25.0" fill="#FEFFFF" transform="matrix(1.00, 0.00, -0.00, -1.00, 118.0, 152.1)">}</text></g></g><g><clipPath id="clip0x6100008b5780"><path d="M 9.0 61.4 L 167.5 61.4 L 167.5 109.6 L 9.0 109.6 Z M 9.0 61.4 "></path></clipPath><g clip-path="url(#clip0x6100008b5780)"><path d="M 0.0 -0.4 L 156.0 -0.4 L 156.0 45.6 L 0.0 45.6 Z M 0.0 0.0 " fill="none" stroke="#55D6FF" stroke-width="1.00" transform="matrix(1.00, 0.00, 0.00, -1.00, 10.5, 108.1)"></path></g></g><g><clipPath id="clip0x6100008b59c0"><path d="M 7.3 60.9 L 169.2 60.9 L 169.2 110.3 L 7.3 110.3 Z M 7.3 60.9 "></path></clipPath><g clip-path="url(#clip0x6100008b59c0)"><text xml:space="preserve" font-family="Avenir-Medium,Avenir" font-size="24.0" fill="#55D6FF" transform="matrix(1.00, 0.00, -0.00, -1.00, 61.6, 77.9)">A</text><text xml:space="preserve" font-family="Avenir-Medium,Avenir" font-size="24.0" fill="#55D6FF" transform="matrix(1.00, 0.00, -0.00, -1.00, 82.3, 77.9)">a</text><text xml:space="preserve" font-family="Avenir-Medium,Avenir" font-size="24.0" fill="#55D6FF" transform="matrix(1.00, 0.00, -0.00, -1.00, 98.6, 77.9)">a</text></g></g><g><clipPath id="clip0x6100008b5cc0"><path d="M 9.0 0.4 L 85.2 0.4 L 85.2 48.6 L 9.0 48.6 Z M 9.0 0.4 "></path></clipPath><g clip-path="url(#clip0x6100008b5cc0)"><path d="M 0.0 -0.4 L 73.0 -0.4 L 73.0 45.6 L 0.0 45.6 Z M 0.0 0.0 " fill="none" stroke="#55D6FF" stroke-width="1.00" transform="matrix(1.00, 0.00, 0.00, -1.00, 10.5, 47.1)"></path></g></g><g><clipPath id="clip0x6100008b5f00"><path d="M 7.3 -0.1 L 86.9 -0.1 L 86.9 49.3 L 7.3 49.3 Z M 7.3 -0.1 "></path></clipPath><g clip-path="url(#clip0x6100008b5f00)"><text xml:space="preserve" font-family="Avenir-Medium,Avenir" font-size="24.0" fill="#55D6FF" transform="matrix(1.00, 0.00, -0.00, -1.00, 19.1, 16.9)">B</text><text xml:space="preserve" font-family="Avenir-Medium,Avenir" font-size="24.0" fill="#55D6FF" transform="matrix(1.00, 0.00, -0.00, -1.00, 38.1, 16.9)">b</text><text xml:space="preserve" font-family="Avenir-Medium,Avenir" font-size="24.0" fill="#55D6FF" transform="matrix(1.00, 0.00, -0.00, -1.00, 56.6, 16.9)">b</text></g></g><g><clipPath id="clip0x6100008b6200"><path d="M 92.4 0.4 L 168.2 0.4 L 168.2 48.6 L 92.4 48.6 Z M 92.4 0.4 "></path></clipPath><g clip-path="url(#clip0x6100008b6200)"><path d="M -0.4 -0.4 L 72.6 -0.4 L 72.6 45.6 L -0.4 45.6 Z M 0.0 0.0 " fill="none" stroke="#55D6FF" stroke-width="1.00" transform="matrix(1.00, 0.00, 0.00, -1.00, 93.9, 47.1)"></path></g></g><g><clipPath id="clip0x6100008b6440"><path d="M 90.7 -0.1 L 169.9 -0.1 L 169.9 49.3 L 90.7 49.3 Z M 90.7 -0.1 "></path></clipPath><g clip-path="url(#clip0x6100008b6440)"><text xml:space="preserve" font-family="Avenir-Medium,Avenir" font-size="24.0" fill="#55D6FF" transform="matrix(1.00, 0.00, -0.00, -1.00, 104.5, 16.9)">C</text><text xml:space="preserve" font-family="Avenir-Medium,Avenir" font-size="24.0" fill="#55D6FF" transform="matrix(1.00, 0.00, -0.00, -1.00, 125.3, 16.9)">c</text><text xml:space="preserve" font-family="Avenir-Medium,Avenir" font-size="24.0" fill="#55D6FF" transform="matrix(1.00, 0.00, -0.00, -1.00, 140.7, 16.9)">c</text></g></g></g></svg>