<?xml version="1.0" encoding="UTF-8" standalone="no"?><svg xmlns="http://www.w3.org/2000/svg" xmlns:xlink="http://www.w3.org/1999/xlink" clip-rule="evenodd" stroke-miterlimit="10" viewBox="0 0 1024 768"><desc>SVG generated by Keynote</desc><defs></defs><g transform="matrix(1.00, 0.00, -0.00, -1.00, 0.0, 768.0)"><path d="M 0.0 768.0 L 1024.0 768.0 L 1024.0 0.0 L 0.0 0.0 Z M 0.0 768.0 " fill="#000000"></path><g><clipPath id="clip0x600000ab5960"><path d="M 0.0 768.0 L 1024.0 768.0 L 1024.0 0.0 L 0.0 0.0 Z M 0.0 768.0 "></path></clipPath><g clip-path="url(#clip0x600000ab5960)"><image xlink:href="../../035CB5A9-E1BF-4708-BE77-CBD3E14D0186/assets/45FF17C7C7D1982A580EBC10D15B0BDB.jpeg" width="1024.00" height="683.00" transform="matrix(1.12, 0.00, -0.00, -1.12, -63.7, 768.0)"></image></g></g><g opacity="0.75"><g><clipPath id="clip0x600000ab5fc0"><path d="M 0.0 0.0 L 1024.0 0.0 L 1024.0 768.0 L 0.0 768.0 Z M 0.0 0.0 "></path></clipPath><g clip-path="url(#clip0x600000ab5fc0)"><path d="M -1.0 769.0 L 1025.0 769.0 L 1025.0 -1.0 L -1.0 -1.0 Z M -0.9 768.9 " fill="#000000"></path></g></g></g><text xml:space="preserve" font-family="Avenir-Medium,Avenir" font-size="24.0" fill="#55D6FF" transform="matrix(1.00, 0.00, -0.00, -1.00, 194.8, 359.3)">T</text><text xml:space="preserve" font-family="Avenir-Medium,Avenir" font-size="24.0" fill="#55D6FF" transform="matrix(1.00, 0.00, -0.00, -1.00, 212.4, 359.3)">O</text><text xml:space="preserve" font-family="Avenir-Medium,Avenir" font-size="24.0" fill="#55D6FF" transform="matrix(1.00, 0.00, -0.00, -1.00, 236.2, 359.3)">O</text><text xml:space="preserve" font-family="Avenir-Medium,Avenir" font-size="24.0" fill="#55D6FF" transform="matrix(1.00, 0.00, -0.00, -1.00, 260.0, 359.3)">L</text><text xml:space="preserve" font-family="Avenir-Medium,Avenir" font-size="24.0" fill="#55D6FF" transform="matrix(1.00, 0.00, -0.00, -1.00, 276.3, 359.3)">B</text><text xml:space="preserve" font-family="Avenir-Medium,Avenir" font-size="24.0" fill="#55D6FF" transform="matrix(1.00, 0.00, -0.00, -1.00, 295.3, 359.3)">A</text><text xml:space="preserve" font-family="Avenir-Medium,Avenir" font-size="24.0" fill="#55D6FF" transform="matrix(1.00, 0.00, -0.00, -1.00, 316.0, 359.3)">R</text><text xml:space="preserve" font-family="Avenir-Medium,Avenir" font-size="24.0" fill="#FEFFFE" transform="matrix(1.00, 0.00, -0.00, -1.00, 334.5, 359.3)"> </text><text xml:space="preserve" font-family="Avenir-Medium,Avenir" font-size="24.0" fill="#FEFFFE" transform="matrix(1.00, 0.00, -0.00, -1.00, 345.0, 359.3)">A</text><text xml:space="preserve" font-family="Avenir-Medium,Avenir" font-size="24.0" fill="#FEFFFE" transform="matrix(1.00, 0.00, -0.00, -1.00, 365.8, 359.3)">N</text><text xml:space="preserve" font-family="Avenir-Medium,Avenir" font-size="24.0" fill="#FEFFFE" transform="matrix(1.00, 0.00, -0.00, -1.00, 388.7, 359.3)">D</text><text xml:space="preserve" font-family="Avenir-Medium,Avenir" font-size="24.0" fill="#FEFFFE" transform="matrix(1.00, 0.00, -0.00, -1.00, 410.3, 359.3)"> </text><text xml:space="preserve" font-family="Avenir-Medium,Avenir" font-size="24.0" fill="#55D6FF" transform="matrix(1.00, 0.00, -0.00, -1.00, 420.8, 359.3)">P</text><text xml:space="preserve" font-family="Avenir-Medium,Avenir" font-size="24.0" fill="#55D6FF" transform="matrix(1.00, 0.00, -0.00, -1.00, 438.9, 359.3)">I</text><text xml:space="preserve" font-family="Avenir-Medium,Avenir" font-size="24.0" fill="#55D6FF" transform="matrix(1.00, 0.00, -0.00, -1.00, 449.4, 359.3)">C</text><text xml:space="preserve" font-family="Avenir-Medium,Avenir" font-size="24.0" fill="#55D6FF" transform="matrix(1.00, 0.00, -0.00, -1.00, 470.2, 359.3)">T</text><text xml:space="preserve" font-family="Avenir-Medium,Avenir" font-size="24.0" fill="#55D6FF" transform="matrix(1.00, 0.00, -0.00, -1.00, 487.8, 359.3)">U</text><text xml:space="preserve" font-family="Avenir-Medium,Avenir" font-size="24.0" fill="#55D6FF" transform="matrix(1.00, 0.00, -0.00, -1.00, 508.5, 359.3)">R</text><text xml:space="preserve" font-family="Avenir-Medium,Avenir" font-size="24.0" fill="#55D6FF" transform="matrix(1.00, 0.00, -0.00, -1.00, 527.0, 359.3)">E</text><text xml:space="preserve" font-family="Avenir-Medium,Avenir" font-size="24.0" fill="#FEFFFE" transform="matrix(1.00, 0.00, -0.00, -1.00, 545.5, 359.3)"> </text><text xml:space="preserve" font-family="Avenir-Medium,Avenir" font-size="24.0" fill="#FEFFFE" transform="matrix(1.00, 0.00, -0.00, -1.00, 556.0, 359.3)">U</text><text xml:space="preserve" font-family="Avenir-Medium,Avenir" font-size="24.0" fill="#FEFFFE" transform="matrix(1.00, 0.00, -0.00, -1.00, 576.8, 359.3)">S</text><text xml:space="preserve" font-family="Avenir-Medium,Avenir" font-size="24.0" fill="#FEFFFE" transform="matrix(1.00, 0.00, -0.00, -1.00, 594.0, 359.3)">E</text><text xml:space="preserve" font-family="Avenir-Medium,Avenir" font-size="24.0" fill="#FEFFFE" transform="matrix(1.00, 0.00, -0.00, -1.00, 612.5, 359.3)"> </text><text xml:space="preserve" font-family="Avenir-Medium,Avenir" font-size="24.0" fill="#55D6FF" transform="matrix(1.00, 0.00, -0.00, -1.00, 623.0, 359.3)">B</text><text xml:space="preserve" font-family="Avenir-Medium,Avenir" font-size="24.0" fill="#55D6FF" transform="matrix(1.00, 0.00, -0.00, -1.00, 641.9, 359.3)">R</text><text xml:space="preserve" font-family="Avenir-Medium,Avenir" font-size="24.0" fill="#55D6FF" transform="matrix(1.00, 0.00, -0.00, -1.00, 660.4, 359.3)">E</text><text xml:space="preserve" font-family="Avenir-Medium,Avenir" font-size="24.0" fill="#55D6FF" transform="matrix(1.00, 0.00, -0.00, -1.00, 678.9, 359.3)">A</text><text xml:space="preserve" font-family="Avenir-Medium,Avenir" font-size="24.0" fill="#55D6FF" transform="matrix(1.00, 0.00, -0.00, -1.00, 699.7, 359.3)">K</text><text xml:space="preserve" font-family="Avenir-Medium,Avenir" font-size="24.0" fill="#55D6FF" transform="matrix(1.00, 0.00, -0.00, -1.00, 719.1, 359.3)">P</text><text xml:space="preserve" font-family="Avenir-Medium,Avenir" font-size="24.0" fill="#55D6FF" transform="matrix(1.00, 0.00, -0.00, -1.00, 737.1, 359.3)">O</text><text xml:space="preserve" font-family="Avenir-Medium,Avenir" font-size="24.0" fill="#55D6FF" transform="matrix(1.00, 0.00, -0.00, -1.00, 761.0, 359.3)">I</text><text xml:space="preserve" font-family="Avenir-Medium,Avenir" font-size="24.0" fill="#55D6FF" transform="matrix(1.00, 0.00, -0.00, -1.00, 771.5, 359.3)">N</text><text xml:space="preserve" font-family="Avenir-Medium,Avenir" font-size="24.0" fill="#55D6FF" transform="matrix(1.00, 0.00, -0.00, -1.00, 794.4, 359.3)">T</text><text xml:space="preserve" font-family="Avenir-Medium,Avenir" font-size="24.0" fill="#55D6FF" transform="matrix(1.00, 0.00, -0.00, -1.00, 812.0, 359.3)">S</text></g></svg>