<?xml version="1.0" encoding="UTF-8" standalone="no"?><svg xmlns="http://www.w3.org/2000/svg" xmlns:xlink="http://www.w3.org/1999/xlink" clip-rule="evenodd" stroke-miterlimit="10" viewBox="0 0 257 179"><desc>SVG generated by Keynote</desc><defs></defs><g transform="matrix(1.00, 0.00, -0.00, -1.00, 0.0, 179.0)"><g><clipPath id="clip0x600000cb8720"><path d="M -6.0 -6.3 L 262.6 -6.3 L 262.6 151.3 L -6.0 151.3 Z M -6.0 -6.3 "></path></clipPath><g clip-path="url(#clip0x600000cb8720)"><text xml:space="preserve" font-family="Avenir-Light,Avenir" font-size="33.0" fill="#FEFFFF" transform="matrix(1.00, 0.00, -0.00, -1.00, 5.3, 107.1)">{</text><text xml:space="preserve" font-family="Avenir-Light,Avenir" font-size="33.0" fill="#FEFFFF" transform="matrix(1.00, 0.00, -0.00, -1.00, 16.3, 107.1)">“</text><text xml:space="preserve" font-family="Avenir-Light,Avenir" font-size="33.0" fill="#FEFFFF" transform="matrix(1.00, 0.00, -0.00, -1.00, 33.4, 107.1)">p</text><text xml:space="preserve" font-family="Avenir-Light,Avenir" font-size="33.0" fill="#FEFFFF" transform="matrix(1.00, 0.00, -0.00, -1.00, 53.6, 107.1)">e</text><text xml:space="preserve" font-family="Avenir-Light,Avenir" font-size="33.0" fill="#FEFFFF" transform="matrix(1.00, 0.00, -0.00, -1.00, 72.0, 107.1)">r</text><text xml:space="preserve" font-family="Avenir-Light,Avenir" font-size="33.0" fill="#FEFFFF" transform="matrix(1.00, 0.00, -0.00, -1.00, 82.9, 107.1)">s</text><text xml:space="preserve" font-family="Avenir-Light,Avenir" font-size="33.0" fill="#FEFFFF" transform="matrix(1.00, 0.00, -0.00, -1.00, 97.0, 107.1)">o</text><text xml:space="preserve" font-family="Avenir-Light,Avenir" font-size="33.0" fill="#FEFFFF" transform="matrix(1.00, 0.00, -0.00, -1.00, 116.6, 107.1)">n</text><text xml:space="preserve" font-family="Avenir-Light,Avenir" font-size="33.0" fill="#FEFFFF" transform="matrix(1.00, 0.00, -0.00, -1.00, 135.0, 107.1)">”</text><text xml:space="preserve" font-family="Avenir-Light,Avenir" font-size="33.0" fill="#FEFFFF" transform="matrix(1.00, 0.00, -0.00, -1.00, 152.1, 107.1)">:</text><text xml:space="preserve" font-family="Avenir-Light,Avenir" font-size="33.0" fill="#FEFFFF" transform="matrix(1.00, 0.00, -0.00, -1.00, 160.7, 107.1)"> </text><text xml:space="preserve" font-family="Avenir-Light,Avenir" font-size="33.0" fill="#FEFFFF" transform="matrix(1.00, 0.00, -0.00, -1.00, 5.3, 62.1)">{</text><text xml:space="preserve" font-family="Avenir-Light,Avenir" font-size="33.0" fill="#FEFFFF" transform="matrix(1.00, 0.00, -0.00, -1.00, 16.3, 62.1)">“</text><text xml:space="preserve" font-family="Avenir-Light,Avenir" font-size="33.0" fill="#FEFFFF" transform="matrix(1.00, 0.00, -0.00, -1.00, 33.4, 62.1)">n</text><text xml:space="preserve" font-family="Avenir-Light,Avenir" font-size="33.0" fill="#FEFFFF" transform="matrix(1.00, 0.00, -0.00, -1.00, 51.8, 62.1)">a</text><text xml:space="preserve" font-family="Avenir-Light,Avenir" font-size="33.0" fill="#FEFFFF" transform="matrix(1.00, 0.00, -0.00, -1.00, 68.9, 62.1)">m</text><text xml:space="preserve" font-family="Avenir-Light,Avenir" font-size="33.0" fill="#FEFFFF" transform="matrix(1.00, 0.00, -0.00, -1.00, 97.0, 62.1)">e</text><text xml:space="preserve" font-family="Avenir-Light,Avenir" font-size="33.0" fill="#FEFFFF" transform="matrix(1.00, 0.00, -0.00, -1.00, 115.4, 62.1)">”</text><text xml:space="preserve" font-family="Avenir-Light,Avenir" font-size="33.0" fill="#FEFFFF" transform="matrix(1.00, 0.00, -0.00, -1.00, 132.5, 62.1)">:</text><text xml:space="preserve" font-family="Avenir-Light,Avenir" font-size="33.0" fill="#FEFFFF" transform="matrix(1.00, 0.00, -0.00, -1.00, 141.1, 62.1)">”</text><text xml:space="preserve" font-family="Avenir-Light,Avenir" font-size="33.0" fill="#FEFFFF" transform="matrix(1.00, 0.00, -0.00, -1.00, 158.3, 62.1)">B</text><text xml:space="preserve" font-family="Avenir-Light,Avenir" font-size="33.0" fill="#FEFFFF" transform="matrix(1.00, 0.00, -0.00, -1.00, 179.1, 62.1)">o</text><text xml:space="preserve" font-family="Avenir-Light,Avenir" font-size="33.0" fill="#FEFFFF" transform="matrix(1.00, 0.00, -0.00, -1.00, 198.7, 62.1)">b</text><text xml:space="preserve" font-family="Avenir-Light,Avenir" font-size="33.0" fill="#FEFFFF" transform="matrix(1.00, 0.00, -0.00, -1.00, 218.8, 62.1)">”</text><text xml:space="preserve" font-family="Avenir-Light,Avenir" font-size="33.0" fill="#FEFFFF" transform="matrix(1.00, 0.00, -0.00, -1.00, 236.0, 62.1)">,</text><text xml:space="preserve" font-family="Avenir-Light,Avenir" font-size="33.0" fill="#FEFFFF" transform="matrix(1.00, 0.00, -0.00, -1.00, 244.6, 62.1)"> </text><text xml:space="preserve" font-family="Avenir-Light,Avenir" font-size="33.0" fill="#FEFFFF" transform="matrix(1.00, 0.00, -0.00, -1.00, 5.3, 17.1)">“</text><text xml:space="preserve" font-family="Avenir-Light,Avenir" font-size="33.0" fill="#FEFFFF" transform="matrix(1.00, 0.00, -0.00, -1.00, 22.5, 17.1)">a</text><text xml:space="preserve" font-family="Avenir-Light,Avenir" font-size="33.0" fill="#FEFFFF" transform="matrix(1.00, 0.00, -0.00, -1.00, 39.6, 17.1)">g</text><text xml:space="preserve" font-family="Avenir-Light,Avenir" font-size="33.0" fill="#FEFFFF" transform="matrix(1.00, 0.00, -0.00, -1.00, 59.7, 17.1)">e</text><text xml:space="preserve" font-family="Avenir-Light,Avenir" font-size="33.0" fill="#FEFFFF" transform="matrix(1.00, 0.00, -0.00, -1.00, 78.1, 17.1)">”</text><text xml:space="preserve" font-family="Avenir-Light,Avenir" font-size="33.0" fill="#FEFFFF" transform="matrix(1.00, 0.00, -0.00, -1.00, 95.3, 17.1)">:</text><text xml:space="preserve" font-family="Avenir-Light,Avenir" font-size="33.0" fill="#FEFFFF" transform="matrix(1.00, 0.00, -0.00, -1.00, 103.8, 17.1)">”</text><text xml:space="preserve" font-family="Avenir-Light,Avenir" font-size="33.0" fill="#FEFFFF" transform="matrix(1.00, 0.00, -0.00, -1.00, 121.0, 17.1)">3</text><text xml:space="preserve" font-family="Avenir-Light,Avenir" font-size="33.0" fill="#FEFFFF" transform="matrix(1.00, 0.00, -0.00, -1.00, 138.2, 17.1)">5</text><text xml:space="preserve" font-family="Avenir-Light,Avenir" font-size="33.0" fill="#FEFFFF" transform="matrix(1.00, 0.00, -0.00, -1.00, 155.3, 17.1)">”</text><text xml:space="preserve" font-family="Avenir-Light,Avenir" font-size="33.0" fill="#FEFFFF" transform="matrix(1.00, 0.00, -0.00, -1.00, 172.5, 17.1)">}</text><text xml:space="preserve" font-family="Avenir-Light,Avenir" font-size="33.0" fill="#FEFFFF" transform="matrix(1.00, 0.00, -0.00, -1.00, 183.5, 17.1)">}</text></g></g><g><clipPath id="clip0x600000cb9aa0"><path d="M -4.9 121.8 L 115.7 121.8 L 115.7 183.2 L -4.9 183.2 Z M -4.9 121.8 "></path></clipPath><g clip-path="url(#clip0x600000cb9aa0)"><text xml:space="preserve" font-family="Avenir-Medium,Avenir" font-size="30.0" fill="#55D6FF" transform="matrix(1.00, 0.00, -0.00, -1.00, 5.3, 143.0)">J</text><text xml:space="preserve" font-family="Avenir-Medium,Avenir" font-size="30.0" fill="#55D6FF" transform="matrix(1.00, 0.00, -0.00, -1.00, 24.6, 143.0)">S</text><text xml:space="preserve" font-family="Avenir-Medium,Avenir" font-size="30.0" fill="#55D6FF" transform="matrix(1.00, 0.00, -0.00, -1.00, 46.0, 143.0)">O</text><text xml:space="preserve" font-family="Avenir-Medium,Avenir" font-size="30.0" fill="#55D6FF" transform="matrix(1.00, 0.00, -0.00, -1.00, 75.8, 143.0)">N</text></g></g></g></svg>