<?xml version="1.0" encoding="UTF-8" standalone="no"?><svg xmlns="http://www.w3.org/2000/svg" xmlns:xlink="http://www.w3.org/1999/xlink" clip-rule="evenodd" stroke-miterlimit="10" viewBox="0 0 1024 768"><desc>SVG generated by Keynote</desc><defs></defs><g transform="matrix(1.00, 0.00, -0.00, -1.00, 0.0, 768.0)"><path d="M 0.0 768.0 L 1024.0 768.0 L 1024.0 0.0 L 0.0 0.0 Z M 0.0 768.0 " fill="#000000"></path><g><clipPath id="clip0x6000008aeb80"><path d="M 0.0 766.0 L 1024.0 766.0 L 1024.0 212.0 L 0.0 212.0 Z M 0.0 766.0 "></path></clipPath><g clip-path="url(#clip0x6000008aeb80)"><image xlink:href="ADD7B07FE1FE63062819A96658D54EFE.jpeg" width="1024.00" height="768.00" transform="matrix(1.00, 0.00, -0.00, -1.00, 0.0, 781.0)"></image></g></g><text xml:space="preserve" font-family="Avenir-Light,Avenir" font-size="30.0" fill="#FEFFFF" transform="matrix(1.00, 0.00, -0.00, -1.00, 33.0, 108.0)">I</text><text xml:space="preserve" font-family="Avenir-Light,Avenir" font-size="30.0" fill="#FEFFFF" transform="matrix(1.00, 0.00, -0.00, -1.00, 45.6, 108.0)">N</text><text xml:space="preserve" font-family="Avenir-Light,Avenir" font-size="30.0" fill="#FEFFFF" transform="matrix(1.00, 0.00, -0.00, -1.00, 73.7, 108.0)">S</text><text xml:space="preserve" font-family="Avenir-Light,Avenir" font-size="30.0" fill="#FEFFFF" transform="matrix(1.00, 0.00, -0.00, -1.00, 95.2, 108.0)">T</text><text xml:space="preserve" font-family="Avenir-Light,Avenir" font-size="30.0" fill="#FEFFFF" transform="matrix(1.00, 0.00, -0.00, -1.00, 115.2, 108.0)">A</text><text xml:space="preserve" font-family="Avenir-Light,Avenir" font-size="30.0" fill="#FEFFFF" transform="matrix(1.00, 0.00, -0.00, -1.00, 140.5, 108.0)">L</text><text xml:space="preserve" font-family="Avenir-Light,Avenir" font-size="30.0" fill="#FEFFFF" transform="matrix(1.00, 0.00, -0.00, -1.00, 160.3, 108.0)">L</text><text xml:space="preserve" font-family="Avenir-Light,Avenir" font-size="30.0" fill="#FEFFFF" transform="matrix(1.00, 0.00, -0.00, -1.00, 180.1, 108.0)">,</text><text xml:space="preserve" font-family="Avenir-Light,Avenir" font-size="30.0" fill="#FEFFFF" transform="matrix(1.00, 0.00, -0.00, -1.00, 192.7, 108.0)"> </text><text xml:space="preserve" font-family="Avenir-Light,Avenir" font-size="30.0" fill="#FEFFFF" transform="matrix(1.00, 0.00, -0.00, -1.00, 205.3, 108.0)">E</text><text xml:space="preserve" font-family="Avenir-Light,Avenir" font-size="30.0" fill="#FEFFFF" transform="matrix(1.00, 0.00, -0.00, -1.00, 227.9, 108.0)">N</text><text xml:space="preserve" font-family="Avenir-Light,Avenir" font-size="30.0" fill="#FEFFFF" transform="matrix(1.00, 0.00, -0.00, -1.00, 256.1, 108.0)">A</text><text xml:space="preserve" font-family="Avenir-Light,Avenir" font-size="30.0" fill="#FEFFFF" transform="matrix(1.00, 0.00, -0.00, -1.00, 281.4, 108.0)">B</text><text xml:space="preserve" font-family="Avenir-Light,Avenir" font-size="30.0" fill="#FEFFFF" transform="matrix(1.00, 0.00, -0.00, -1.00, 305.1, 108.0)">L</text><text xml:space="preserve" font-family="Avenir-Light,Avenir" font-size="30.0" fill="#FEFFFF" transform="matrix(1.00, 0.00, -0.00, -1.00, 324.9, 108.0)">E</text><text xml:space="preserve" font-family="Avenir-Light,Avenir" font-size="30.0" fill="#FEFFFF" transform="matrix(1.00, 0.00, -0.00, -1.00, 347.5, 108.0)"> </text><text xml:space="preserve" font-family="Avenir-Light,Avenir" font-size="30.0" fill="#FEFFFF" transform="matrix(1.00, 0.00, -0.00, -1.00, 360.1, 108.0)">T</text><text xml:space="preserve" font-family="Avenir-Light,Avenir" font-size="30.0" fill="#FEFFFF" transform="matrix(1.00, 0.00, -0.00, -1.00, 382.1, 108.0)">H</text><text xml:space="preserve" font-family="Avenir-Light,Avenir" font-size="30.0" fill="#FEFFFF" transform="matrix(1.00, 0.00, -0.00, -1.00, 408.6, 108.0)">I</text><text xml:space="preserve" font-family="Avenir-Light,Avenir" font-size="30.0" fill="#FEFFFF" transform="matrix(1.00, 0.00, -0.00, -1.00, 421.2, 108.0)">N</text><text xml:space="preserve" font-family="Avenir-Light,Avenir" font-size="30.0" fill="#FEFFFF" transform="matrix(1.00, 0.00, -0.00, -1.00, 449.3, 108.0)">G</text><text xml:space="preserve" font-family="Avenir-Light,Avenir" font-size="30.0" fill="#FEFFFF" transform="matrix(1.00, 0.00, -0.00, -1.00, 477.5, 108.0)">S</text><text xml:space="preserve" font-family="Avenir-Light,Avenir" font-size="30.0" fill="#FEFFFF" transform="matrix(1.00, 0.00, -0.00, -1.00, 499.0, 108.0)">,</text><text xml:space="preserve" font-family="Avenir-Light,Avenir" font-size="30.0" fill="#FEFFFF" transform="matrix(1.00, 0.00, -0.00, -1.00, 511.6, 108.0)"> </text><text xml:space="preserve" font-family="Avenir-Light,Avenir" font-size="30.0" fill="#FEFFFF" transform="matrix(1.00, 0.00, -0.00, -1.00, 524.2, 108.0)">S</text><text xml:space="preserve" font-family="Avenir-Light,Avenir" font-size="30.0" fill="#FEFFFF" transform="matrix(1.00, 0.00, -0.00, -1.00, 545.6, 108.0)">E</text><text xml:space="preserve" font-family="Avenir-Light,Avenir" font-size="30.0" fill="#FEFFFF" transform="matrix(1.00, 0.00, -0.00, -1.00, 568.2, 108.0)">E</text><text xml:space="preserve" font-family="Avenir-Light,Avenir" font-size="30.0" fill="#FEFFFF" transform="matrix(1.00, 0.00, -0.00, -1.00, 590.8, 108.0)"> </text><text xml:space="preserve" font-family="Avenir-Light,Avenir" font-size="30.0" fill="#FEFFFF" transform="matrix(1.00, 0.00, -0.00, -1.00, 603.4, 108.0)">W</text><text xml:space="preserve" font-family="Avenir-Light,Avenir" font-size="30.0" fill="#FEFFFF" transform="matrix(1.00, 0.00, -0.00, -1.00, 636.5, 108.0)">H</text><text xml:space="preserve" font-family="Avenir-Light,Avenir" font-size="30.0" fill="#FEFFFF" transform="matrix(1.00, 0.00, -0.00, -1.00, 663.0, 108.0)">A</text><text xml:space="preserve" font-family="Avenir-Light,Avenir" font-size="30.0" fill="#FEFFFF" transform="matrix(1.00, 0.00, -0.00, -1.00, 686.3, 108.0)">T</text><text xml:space="preserve" font-family="Avenir-Light,Avenir" font-size="30.0" fill="#FEFFFF" transform="matrix(1.00, 0.00, -0.00, -1.00, 708.3, 108.0)"> </text><text xml:space="preserve" font-family="Avenir-Light,Avenir" font-size="30.0" fill="#FEFFFF" transform="matrix(1.00, 0.00, -0.00, -1.00, 720.9, 108.0)">H</text><text xml:space="preserve" font-family="Avenir-Light,Avenir" font-size="30.0" fill="#FEFFFF" transform="matrix(1.00, 0.00, -0.00, -1.00, 747.4, 108.0)">A</text><text xml:space="preserve" font-family="Avenir-Light,Avenir" font-size="30.0" fill="#FEFFFF" transform="matrix(1.00, 0.00, -0.00, -1.00, 772.7, 108.0)">P</text><text xml:space="preserve" font-family="Avenir-Light,Avenir" font-size="30.0" fill="#FEFFFF" transform="matrix(1.00, 0.00, -0.00, -1.00, 794.8, 108.0)">P</text><text xml:space="preserve" font-family="Avenir-Light,Avenir" font-size="30.0" fill="#FEFFFF" transform="matrix(1.00, 0.00, -0.00, -1.00, 816.8, 108.0)">E</text><text xml:space="preserve" font-family="Avenir-Light,Avenir" font-size="30.0" fill="#FEFFFF" transform="matrix(1.00, 0.00, -0.00, -1.00, 839.4, 108.0)">N</text><text xml:space="preserve" font-family="Avenir-Light,Avenir" font-size="30.0" fill="#FEFFFF" transform="matrix(1.00, 0.00, -0.00, -1.00, 867.5, 108.0)">E</text><text xml:space="preserve" font-family="Avenir-Light,Avenir" font-size="30.0" fill="#FEFFFF" transform="matrix(1.00, 0.00, -0.00, -1.00, 890.1, 108.0)">D</text><text xml:space="preserve" font-family="Avenir-Light,Avenir" font-size="30.0" fill="#FEFFFF" transform="matrix(1.00, 0.00, -0.00, -1.00, 917.1, 108.0)">.</text><text xml:space="preserve" font-family="Avenir-Book,Avenir" font-size="23.3" fill="#FEFFFE" transform="matrix(1.00, 0.00, -0.00, -1.00, 33.0, 153.5)">S</text><text xml:space="preserve" font-family="Avenir-Book,Avenir" font-size="23.3" fill="#FEFFFE" transform="matrix(1.00, 0.00, -0.00, -1.00, 49.7, 153.5)">T</text><text xml:space="preserve" font-family="Avenir-Book,Avenir" font-size="23.3" fill="#FEFFFE" transform="matrix(1.00, 0.00, -0.00, -1.00, 66.8, 153.5)">E</text><text xml:space="preserve" font-family="Avenir-Book,Avenir" font-size="23.3" fill="#FEFFFE" transform="matrix(1.00, 0.00, -0.00, -1.00, 84.3, 153.5)">P</text><text xml:space="preserve" font-family="Avenir-Book,Avenir" font-size="23.3" fill="#FEFFFE" transform="matrix(1.00, 0.00, -0.00, -1.00, 101.4, 153.5)"> </text><text xml:space="preserve" font-family="Avenir-Book,Avenir" font-size="23.3" fill="#FEFFFE" transform="matrix(1.00, 0.00, -0.00, -1.00, 111.6, 153.5)">1</text><text xml:space="preserve" font-family="Avenir-Book,Avenir" font-size="23.3" fill="#FEFFFE" transform="matrix(1.00, 0.00, -0.00, -1.00, 128.2, 153.5)">:</text></g></svg>