<?xml version="1.0" encoding="UTF-8" standalone="no"?><svg xmlns="http://www.w3.org/2000/svg" xmlns:xlink="http://www.w3.org/1999/xlink" clip-rule="evenodd" stroke-miterlimit="10" viewBox="0 0 1024 768"><desc>SVG generated by Keynote</desc><defs></defs><g transform="matrix(1.00, 0.00, -0.00, -1.00, 0.0, 768.0)"><path d="M 0.0 768.0 L 1024.0 768.0 L 1024.0 0.0 L 0.0 0.0 Z M 0.0 768.0 " fill="#000000"></path><g><clipPath id="clip0x6000006a4560"><path d="M 0.0 768.0 L 1024.0 768.0 L 1024.0 0.0 L 0.0 0.0 Z M 0.0 768.0 "></path></clipPath><g clip-path="url(#clip0x6000006a4560)"><image xlink:href="../../035CB5A9-E1BF-4708-BE77-CBD3E14D0186/assets/45FF17C7C7D1982A580EBC10D15B0BDB.jpeg" width="1024.00" height="683.00" transform="matrix(1.12, 0.00, -0.00, -1.12, -63.7, 768.0)"></image></g></g><g opacity="0.75"><g><clipPath id="clip0x6080006b55a0"><path d="M 0.0 0.0 L 1024.0 0.0 L 1024.0 768.0 L 0.0 768.0 Z M 0.0 0.0 "></path></clipPath><g clip-path="url(#clip0x6080006b55a0)"><path d="M -1.0 769.0 L 1025.0 769.0 L 1025.0 -1.0 L -1.0 -1.0 Z M -0.9 768.9 " fill="#000000"></path></g></g></g><text xml:space="preserve" font-family="Avenir-Light,Avenir" font-size="62.0" fill="#FEFFFF" transform="matrix(1.00, 0.00, -0.00, -1.00, 208.6, 624.2)">F</text><text xml:space="preserve" font-family="Avenir-Light,Avenir" font-size="62.0" fill="#FEFFFF" transform="matrix(1.00, 0.00, -0.00, -1.00, 253.0, 624.2)">I</text><text xml:space="preserve" font-family="Avenir-Light,Avenir" font-size="62.0" fill="#FEFFFF" transform="matrix(1.00, 0.00, -0.00, -1.00, 279.0, 624.2)">E</text><text xml:space="preserve" font-family="Avenir-Light,Avenir" font-size="62.0" fill="#FEFFFF" transform="matrix(1.00, 0.00, -0.00, -1.00, 325.7, 624.2)">L</text><text xml:space="preserve" font-family="Avenir-Light,Avenir" font-size="62.0" fill="#FEFFFF" transform="matrix(1.00, 0.00, -0.00, -1.00, 366.6, 624.2)">D</text><text xml:space="preserve" font-family="Avenir-Light,Avenir" font-size="62.0" fill="#FEFFFF" transform="matrix(1.00, 0.00, -0.00, -1.00, 422.5, 624.2)"> </text><text xml:space="preserve" font-family="Avenir-Light,Avenir" font-size="62.0" fill="#FEFFFF" transform="matrix(1.00, 0.00, -0.00, -1.00, 448.5, 624.2)">M</text><text xml:space="preserve" font-family="Avenir-Light,Avenir" font-size="62.0" fill="#FEFFFF" transform="matrix(1.00, 0.00, -0.00, -1.00, 513.6, 624.2)">O</text><text xml:space="preserve" font-family="Avenir-Light,Avenir" font-size="62.0" fill="#FEFFFF" transform="matrix(1.00, 0.00, -0.00, -1.00, 575.2, 624.2)">D</text><text xml:space="preserve" font-family="Avenir-Light,Avenir" font-size="62.0" fill="#FEFFFF" transform="matrix(1.00, 0.00, -0.00, -1.00, 631.1, 624.2)">U</text><text xml:space="preserve" font-family="Avenir-Light,Avenir" font-size="62.0" fill="#FEFFFF" transform="matrix(1.00, 0.00, -0.00, -1.00, 683.4, 624.2)">L</text><text xml:space="preserve" font-family="Avenir-Light,Avenir" font-size="62.0" fill="#FEFFFF" transform="matrix(1.00, 0.00, -0.00, -1.00, 724.3, 624.2)">E</text><text xml:space="preserve" font-family="Avenir-Light,Avenir" font-size="62.0" fill="#FEFFFF" transform="matrix(1.00, 0.00, -0.00, -1.00, 771.0, 624.2)">S</text><g><clipPath id="clip0x6080006b6c20"><path d="M 229.5 217.9 L 1560.5 217.9 L 1560.5 421.7 L 229.5 421.7 Z M 229.5 217.9 "></path></clipPath><g clip-path="url(#clip0x6080006b6c20)"><text xml:space="preserve" font-family="Avenir-Light,Avenir" font-size="36.0" fill="#FEFFFF" transform="matrix(1.00, 0.00, -0.00, -1.00, 243.2, 369.2)">•</text><text xml:space="preserve" font-family="Avenir-Light,Avenir" font-size="40.0" fill="#FEFFFF" transform="matrix(1.00, 0.00, -0.00, -1.00, 284.3, 367.6)">f</text><text xml:space="preserve" font-family="Avenir-Light,Avenir" font-size="40.0" fill="#FEFFFF" transform="matrix(1.00, 0.00, -0.00, -1.00, 296.2, 367.6)">i</text><text xml:space="preserve" font-family="Avenir-Light,Avenir" font-size="40.0" fill="#FEFFFF" transform="matrix(1.00, 0.00, -0.00, -1.00, 305.8, 367.6)">e</text><text xml:space="preserve" font-family="Avenir-Light,Avenir" font-size="40.0" fill="#FEFFFF" transform="matrix(1.00, 0.00, -0.00, -1.00, 328.0, 367.6)">l</text><text xml:space="preserve" font-family="Avenir-Light,Avenir" font-size="40.0" fill="#FEFFFF" transform="matrix(1.00, 0.00, -0.00, -1.00, 337.6, 367.6)">d</text><text xml:space="preserve" font-family="Avenir-Light,Avenir" font-size="40.0" fill="#FEFFFF" transform="matrix(1.00, 0.00, -0.00, -1.00, 362.0, 367.6)"> </text><text xml:space="preserve" font-family="Avenir-Light,Avenir" font-size="40.0" fill="#FEFFFF" transform="matrix(1.00, 0.00, -0.00, -1.00, 372.4, 367.6)">t</text><text xml:space="preserve" font-family="Avenir-Light,Avenir" font-size="40.0" fill="#FEFFFF" transform="matrix(1.00, 0.00, -0.00, -1.00, 385.8, 367.6)">y</text><text xml:space="preserve" font-family="Avenir-Light,Avenir" font-size="40.0" fill="#FEFFFF" transform="matrix(1.00, 0.00, -0.00, -1.00, 404.3, 367.6)">p</text><text xml:space="preserve" font-family="Avenir-Light,Avenir" font-size="40.0" fill="#FEFFFF" transform="matrix(1.00, 0.00, -0.00, -1.00, 428.7, 367.6)">e</text><text xml:space="preserve" font-family="Avenir-Light,Avenir" font-size="40.0" fill="#FEFFFF" transform="matrix(1.00, 0.00, -0.00, -1.00, 451.0, 367.6)"> </text><text xml:space="preserve" font-family="Avenir-Light,Avenir" font-size="36.0" fill="#FEFFFF" transform="matrix(1.00, 0.00, -0.00, -1.00, 243.2, 314.2)">•</text><text xml:space="preserve" font-family="Avenir-Light,Avenir" font-size="40.0" fill="#FEFFFF" transform="matrix(1.00, 0.00, -0.00, -1.00, 284.3, 312.6)">w</text><text xml:space="preserve" font-family="Avenir-Light,Avenir" font-size="40.0" fill="#FEFFFF" transform="matrix(1.00, 0.00, -0.00, -1.00, 312.5, 312.6)">i</text><text xml:space="preserve" font-family="Avenir-Light,Avenir" font-size="40.0" fill="#FEFFFF" transform="matrix(1.00, 0.00, -0.00, -1.00, 322.1, 312.6)">d</text><text xml:space="preserve" font-family="Avenir-Light,Avenir" font-size="40.0" fill="#FEFFFF" transform="matrix(1.00, 0.00, -0.00, -1.00, 346.5, 312.6)">g</text><text xml:space="preserve" font-family="Avenir-Light,Avenir" font-size="40.0" fill="#FEFFFF" transform="matrix(1.00, 0.00, -0.00, -1.00, 371.0, 312.6)">e</text><text xml:space="preserve" font-family="Avenir-Light,Avenir" font-size="40.0" fill="#FEFFFF" transform="matrix(1.00, 0.00, -0.00, -1.00, 393.2, 312.6)">t</text><text xml:space="preserve" font-family="Avenir-Light,Avenir" font-size="40.0" fill="#FEFFFF" transform="matrix(1.00, 0.00, -0.00, -1.00, 406.5, 312.6)">s</text><text xml:space="preserve" font-family="Avenir-Light,Avenir" font-size="40.0" fill="#FEFFFF" transform="matrix(1.00, 0.00, -0.00, -1.00, 423.6, 312.6)"> </text><text xml:space="preserve" font-family="Avenir-Light,Avenir" font-size="40.0" fill="#FEFFFF" transform="matrix(1.00, 0.00, -0.00, -1.00, 434.0, 312.6)">u</text><text xml:space="preserve" font-family="Avenir-Light,Avenir" font-size="40.0" fill="#FEFFFF" transform="matrix(1.00, 0.00, -0.00, -1.00, 456.2, 312.6)">s</text><text xml:space="preserve" font-family="Avenir-Light,Avenir" font-size="40.0" fill="#FEFFFF" transform="matrix(1.00, 0.00, -0.00, -1.00, 473.2, 312.6)">i</text><text xml:space="preserve" font-family="Avenir-Light,Avenir" font-size="40.0" fill="#FEFFFF" transform="matrix(1.00, 0.00, -0.00, -1.00, 482.8, 312.6)">n</text><text xml:space="preserve" font-family="Avenir-Light,Avenir" font-size="40.0" fill="#FEFFFF" transform="matrix(1.00, 0.00, -0.00, -1.00, 505.1, 312.6)">g</text><text xml:space="preserve" font-family="Avenir-Light,Avenir" font-size="40.0" fill="#FEFFFF" transform="matrix(1.00, 0.00, -0.00, -1.00, 529.5, 312.6)"> </text><text xml:space="preserve" font-family="Avenir-Light,Avenir" font-size="40.0" fill="#FEFFFF" transform="matrix(1.00, 0.00, -0.00, -1.00, 539.9, 312.6)">H</text><text xml:space="preserve" font-family="Avenir-Light,Avenir" font-size="40.0" fill="#FEFFFF" transform="matrix(1.00, 0.00, -0.00, -1.00, 568.8, 312.6)">T</text><text xml:space="preserve" font-family="Avenir-Light,Avenir" font-size="40.0" fill="#FEFFFF" transform="matrix(1.00, 0.00, -0.00, -1.00, 591.8, 312.6)">M</text><text xml:space="preserve" font-family="Avenir-Light,Avenir" font-size="40.0" fill="#FEFFFF" transform="matrix(1.00, 0.00, -0.00, -1.00, 627.3, 312.6)">L</text><text xml:space="preserve" font-family="Avenir-Light,Avenir" font-size="40.0" fill="#FEFFFF" transform="matrix(1.00, 0.00, -0.00, -1.00, 647.3, 312.6)"> </text><text xml:space="preserve" font-family="Avenir-Light,Avenir" font-size="40.0" fill="#FEFFFF" transform="matrix(1.00, 0.00, -0.00, -1.00, 657.7, 312.6)">5</text><text xml:space="preserve" font-family="Avenir-Light,Avenir" font-size="40.0" fill="#FEFFFF" transform="matrix(1.00, 0.00, -0.00, -1.00, 678.5, 312.6)"> </text><text xml:space="preserve" font-family="Avenir-Light,Avenir" font-size="40.0" fill="#FEFFFF" transform="matrix(1.00, 0.00, -0.00, -1.00, 688.9, 312.6)">i</text><text xml:space="preserve" font-family="Avenir-Light,Avenir" font-size="40.0" fill="#FEFFFF" transform="matrix(1.00, 0.00, -0.00, -1.00, 698.5, 312.6)">n</text><text xml:space="preserve" font-family="Avenir-Light,Avenir" font-size="40.0" fill="#FEFFFF" transform="matrix(1.00, 0.00, -0.00, -1.00, 720.8, 312.6)">p</text><text xml:space="preserve" font-family="Avenir-Light,Avenir" font-size="40.0" fill="#FEFFFF" transform="matrix(1.00, 0.00, -0.00, -1.00, 745.2, 312.6)">u</text><text xml:space="preserve" font-family="Avenir-Light,Avenir" font-size="40.0" fill="#FEFFFF" transform="matrix(1.00, 0.00, -0.00, -1.00, 767.4, 312.6)">t</text><text xml:space="preserve" font-family="Avenir-Light,Avenir" font-size="40.0" fill="#FEFFFF" transform="matrix(1.00, 0.00, -0.00, -1.00, 780.8, 312.6)"> </text><text xml:space="preserve" font-family="Avenir-Light,Avenir" font-size="40.0" fill="#FEFFFF" transform="matrix(1.00, 0.00, -0.00, -1.00, 791.2, 312.6)">t</text><text xml:space="preserve" font-family="Avenir-Light,Avenir" font-size="40.0" fill="#FEFFFF" transform="matrix(1.00, 0.00, -0.00, -1.00, 804.5, 312.6)">y</text><text xml:space="preserve" font-family="Avenir-Light,Avenir" font-size="40.0" fill="#FEFFFF" transform="matrix(1.00, 0.00, -0.00, -1.00, 823.0, 312.6)">p</text><text xml:space="preserve" font-family="Avenir-Light,Avenir" font-size="40.0" fill="#FEFFFF" transform="matrix(1.00, 0.00, -0.00, -1.00, 847.4, 312.6)">e</text><text xml:space="preserve" font-family="Avenir-Light,Avenir" font-size="40.0" fill="#FEFFFF" transform="matrix(1.00, 0.00, -0.00, -1.00, 869.7, 312.6)">s</text><text xml:space="preserve" font-family="Avenir-Light,Avenir" font-size="40.0" fill="#FEFFFF" transform="matrix(1.00, 0.00, -0.00, -1.00, 886.7, 312.6)"> </text><text xml:space="preserve" font-family="Avenir-Light,Avenir" font-size="36.0" fill="#FEFFFF" transform="matrix(1.00, 0.00, -0.00, -1.00, 243.2, 259.2)">•</text><text xml:space="preserve" font-family="Avenir-Light,Avenir" font-size="40.0" fill="#FEFFFF" transform="matrix(1.00, 0.00, -0.00, -1.00, 284.3, 257.6)">f</text><text xml:space="preserve" font-family="Avenir-Light,Avenir" font-size="40.0" fill="#FEFFFF" transform="matrix(1.00, 0.00, -0.00, -1.00, 296.2, 257.6)">o</text><text xml:space="preserve" font-family="Avenir-Light,Avenir" font-size="40.0" fill="#FEFFFF" transform="matrix(1.00, 0.00, -0.00, -1.00, 319.9, 257.6)">r</text><text xml:space="preserve" font-family="Avenir-Light,Avenir" font-size="40.0" fill="#FEFFFF" transform="matrix(1.00, 0.00, -0.00, -1.00, 333.2, 257.6)">m</text><text xml:space="preserve" font-family="Avenir-Light,Avenir" font-size="40.0" fill="#FEFFFF" transform="matrix(1.00, 0.00, -0.00, -1.00, 367.3, 257.6)">a</text><text xml:space="preserve" font-family="Avenir-Light,Avenir" font-size="40.0" fill="#FEFFFF" transform="matrix(1.00, 0.00, -0.00, -1.00, 388.1, 257.6)">t</text><text xml:space="preserve" font-family="Avenir-Light,Avenir" font-size="40.0" fill="#FEFFFF" transform="matrix(1.00, 0.00, -0.00, -1.00, 401.4, 257.6)">t</text><text xml:space="preserve" font-family="Avenir-Light,Avenir" font-size="40.0" fill="#FEFFFF" transform="matrix(1.00, 0.00, -0.00, -1.00, 414.8, 257.6)">e</text><text xml:space="preserve" font-family="Avenir-Light,Avenir" font-size="40.0" fill="#FEFFFF" transform="matrix(1.00, 0.00, -0.00, -1.00, 437.0, 257.6)">r</text><text xml:space="preserve" font-family="Avenir-Light,Avenir" font-size="40.0" fill="#FEFFFF" transform="matrix(1.00, 0.00, -0.00, -1.00, 450.3, 257.6)">s</text><text xml:space="preserve" font-family="Avenir-Light,Avenir" font-size="40.0" fill="#FEFFFF" transform="matrix(1.00, 0.00, -0.00, -1.00, 467.4, 257.6)"> </text><text xml:space="preserve" font-family="Avenir-Light,Avenir" font-size="40.0" fill="#FEFFFF" transform="matrix(1.00, 0.00, -0.00, -1.00, 477.8, 257.6)">u</text><text xml:space="preserve" font-family="Avenir-Light,Avenir" font-size="40.0" fill="#FEFFFF" transform="matrix(1.00, 0.00, -0.00, -1.00, 500.0, 257.6)">s</text><text xml:space="preserve" font-family="Avenir-Light,Avenir" font-size="40.0" fill="#FEFFFF" transform="matrix(1.00, 0.00, -0.00, -1.00, 517.0, 257.6)">i</text><text xml:space="preserve" font-family="Avenir-Light,Avenir" font-size="40.0" fill="#FEFFFF" transform="matrix(1.00, 0.00, -0.00, -1.00, 526.6, 257.6)">n</text><text xml:space="preserve" font-family="Avenir-Light,Avenir" font-size="40.0" fill="#FEFFFF" transform="matrix(1.00, 0.00, -0.00, -1.00, 548.9, 257.6)">g</text><text xml:space="preserve" font-family="Avenir-Light,Avenir" font-size="40.0" fill="#FEFFFF" transform="matrix(1.00, 0.00, -0.00, -1.00, 573.3, 257.6)"> </text><text xml:space="preserve" font-family="Avenir-Light,Avenir" font-size="40.0" fill="#FEFFFF" transform="matrix(1.00, 0.00, -0.00, -1.00, 583.7, 257.6)">U</text><text xml:space="preserve" font-family="Avenir-Light,Avenir" font-size="40.0" fill="#FEFFFF" transform="matrix(1.00, 0.00, -0.00, -1.00, 611.1, 257.6)">R</text><text xml:space="preserve" font-family="Avenir-Light,Avenir" font-size="40.0" fill="#FEFFFF" transform="matrix(1.00, 0.00, -0.00, -1.00, 634.8, 257.6)">I</text><text xml:space="preserve" font-family="Avenir-Light,Avenir" font-size="40.0" fill="#FEFFFF" transform="matrix(1.00, 0.00, -0.00, -1.00, 645.2, 257.6)"> </text><text xml:space="preserve" font-family="Avenir-Light,Avenir" font-size="40.0" fill="#FEFFFF" transform="matrix(1.00, 0.00, -0.00, -1.00, 655.6, 257.6)">s</text><text xml:space="preserve" font-family="Avenir-Light,Avenir" font-size="40.0" fill="#FEFFFF" transform="matrix(1.00, 0.00, -0.00, -1.00, 672.6, 257.6)">c</text><text xml:space="preserve" font-family="Avenir-Light,Avenir" font-size="40.0" fill="#FEFFFF" transform="matrix(1.00, 0.00, -0.00, -1.00, 691.9, 257.6)">h</text><text xml:space="preserve" font-family="Avenir-Light,Avenir" font-size="40.0" fill="#FEFFFF" transform="matrix(1.00, 0.00, -0.00, -1.00, 714.1, 257.6)">e</text><text xml:space="preserve" font-family="Avenir-Light,Avenir" font-size="40.0" fill="#FEFFFF" transform="matrix(1.00, 0.00, -0.00, -1.00, 736.4, 257.6)">m</text><text xml:space="preserve" font-family="Avenir-Light,Avenir" font-size="40.0" fill="#FEFFFF" transform="matrix(1.00, 0.00, -0.00, -1.00, 770.4, 257.6)">e</text><text xml:space="preserve" font-family="Avenir-Light,Avenir" font-size="40.0" fill="#FEFFFF" transform="matrix(1.00, 0.00, -0.00, -1.00, 792.7, 257.6)">s</text><text xml:space="preserve" font-family="Avenir-Light,Avenir" font-size="40.0" fill="#FEFFFF" transform="matrix(1.00, 0.00, -0.00, -1.00, 809.7, 257.6)"> </text><text xml:space="preserve" font-family="LucidaGrande,Lucida Grande" font-size="40.0" fill="#FEFFFF" transform="matrix(1.00, 0.00, -0.00, -1.00, 820.1, 257.6)"> </text><text xml:space="preserve" font-family="Avenir-Light,Avenir" font-size="15.0" fill="#FEFFFF" transform="matrix(1.00, 0.00, -0.00, -1.00, 284.3, 228.5)">(</text><text xml:space="preserve" font-family="Avenir-Light,Avenir" font-size="15.0" fill="#FEFFFF" transform="matrix(1.00, 0.00, -0.00, -1.00, 288.2, 228.5)">h</text><text xml:space="preserve" font-family="Avenir-Light,Avenir" font-size="15.0" fill="#FEFFFF" transform="matrix(1.00, 0.00, -0.00, -1.00, 296.6, 228.5)">t</text><text xml:space="preserve" font-family="Avenir-Light,Avenir" font-size="15.0" fill="#FEFFFF" transform="matrix(1.00, 0.00, -0.00, -1.00, 301.6, 228.5)">t</text><text xml:space="preserve" font-family="Avenir-Light,Avenir" font-size="15.0" fill="#FEFFFF" transform="matrix(1.00, 0.00, -0.00, -1.00, 306.6, 228.5)">p</text><text xml:space="preserve" font-family="Avenir-Light,Avenir" font-size="15.0" fill="#FEFFFF" transform="matrix(1.00, 0.00, -0.00, -1.00, 315.7, 228.5)">:</text><text xml:space="preserve" font-family="Avenir-Light,Avenir" font-size="15.0" fill="#FEFFFF" transform="matrix(1.00, 0.00, -0.00, -1.00, 319.6, 228.5)">/</text><text xml:space="preserve" font-family="Avenir-Light,Avenir" font-size="15.0" fill="#FEFFFF" transform="matrix(1.00, 0.00, -0.00, -1.00, 325.2, 228.5)">/</text><text xml:space="preserve" font-family="Avenir-Light,Avenir" font-size="15.0" fill="#FEFFFF" transform="matrix(1.00, 0.00, -0.00, -1.00, 330.7, 228.5)">e</text><text xml:space="preserve" font-family="Avenir-Light,Avenir" font-size="15.0" fill="#FEFFFF" transform="matrix(1.00, 0.00, -0.00, -1.00, 339.1, 228.5)">n</text><text xml:space="preserve" font-family="Avenir-Light,Avenir" font-size="15.0" fill="#FEFFFF" transform="matrix(1.00, 0.00, -0.00, -1.00, 347.4, 228.5)">.</text><text xml:space="preserve" font-family="Avenir-Light,Avenir" font-size="15.0" fill="#FEFFFF" transform="matrix(1.00, 0.00, -0.00, -1.00, 351.3, 228.5)">w</text><text xml:space="preserve" font-family="Avenir-Light,Avenir" font-size="15.0" fill="#FEFFFF" transform="matrix(1.00, 0.00, -0.00, -1.00, 361.9, 228.5)">i</text><text xml:space="preserve" font-family="Avenir-Light,Avenir" font-size="15.0" fill="#FEFFFF" transform="matrix(1.00, 0.00, -0.00, -1.00, 365.5, 228.5)">k</text><text xml:space="preserve" font-family="Avenir-Light,Avenir" font-size="15.0" fill="#FEFFFF" transform="matrix(1.00, 0.00, -0.00, -1.00, 372.7, 228.5)">i</text><text xml:space="preserve" font-family="Avenir-Light,Avenir" font-size="15.0" fill="#FEFFFF" transform="matrix(1.00, 0.00, -0.00, -1.00, 376.3, 228.5)">p</text><text xml:space="preserve" font-family="Avenir-Light,Avenir" font-size="15.0" fill="#FEFFFF" transform="matrix(1.00, 0.00, -0.00, -1.00, 385.4, 228.5)">e</text><text xml:space="preserve" font-family="Avenir-Light,Avenir" font-size="15.0" fill="#FEFFFF" transform="matrix(1.00, 0.00, -0.00, -1.00, 393.8, 228.5)">d</text><text xml:space="preserve" font-family="Avenir-Light,Avenir" font-size="15.0" fill="#FEFFFF" transform="matrix(1.00, 0.00, -0.00, -1.00, 403.0, 228.5)">i</text><text xml:space="preserve" font-family="Avenir-Light,Avenir" font-size="15.0" fill="#FEFFFF" transform="matrix(1.00, 0.00, -0.00, -1.00, 406.6, 228.5)">a</text><text xml:space="preserve" font-family="Avenir-Light,Avenir" font-size="15.0" fill="#FEFFFF" transform="matrix(1.00, 0.00, -0.00, -1.00, 414.4, 228.5)">.</text><text xml:space="preserve" font-family="Avenir-Light,Avenir" font-size="15.0" fill="#FEFFFF" transform="matrix(1.00, 0.00, -0.00, -1.00, 418.3, 228.5)">o</text><text xml:space="preserve" font-family="Avenir-Light,Avenir" font-size="15.0" fill="#FEFFFF" transform="matrix(1.00, 0.00, -0.00, -1.00, 427.2, 228.5)">r</text><text xml:space="preserve" font-family="Avenir-Light,Avenir" font-size="15.0" fill="#FEFFFF" transform="matrix(1.00, 0.00, -0.00, -1.00, 431.9, 228.5)">g</text><text xml:space="preserve" font-family="Avenir-Light,Avenir" font-size="15.0" fill="#FEFFFF" transform="matrix(1.00, 0.00, -0.00, -1.00, 441.1, 228.5)">/</text><text xml:space="preserve" font-family="Avenir-Light,Avenir" font-size="15.0" fill="#FEFFFF" transform="matrix(1.00, 0.00, -0.00, -1.00, 446.6, 228.5)">w</text><text xml:space="preserve" font-family="Avenir-Light,Avenir" font-size="15.0" fill="#FEFFFF" transform="matrix(1.00, 0.00, -0.00, -1.00, 457.2, 228.5)">i</text><text xml:space="preserve" font-family="Avenir-Light,Avenir" font-size="15.0" fill="#FEFFFF" transform="matrix(1.00, 0.00, -0.00, -1.00, 460.8, 228.5)">k</text><text xml:space="preserve" font-family="Avenir-Light,Avenir" font-size="15.0" fill="#FEFFFF" transform="matrix(1.00, 0.00, -0.00, -1.00, 468.0, 228.5)">i</text><text xml:space="preserve" font-family="Avenir-Light,Avenir" font-size="15.0" fill="#FEFFFF" transform="matrix(1.00, 0.00, -0.00, -1.00, 471.6, 228.5)">/</text><text xml:space="preserve" font-family="Avenir-Light,Avenir" font-size="15.0" fill="#FEFFFF" transform="matrix(1.00, 0.00, -0.00, -1.00, 477.1, 228.5)">U</text><text xml:space="preserve" font-family="Avenir-Light,Avenir" font-size="15.0" fill="#FEFFFF" transform="matrix(1.00, 0.00, -0.00, -1.00, 487.4, 228.5)">R</text><text xml:space="preserve" font-family="Avenir-Light,Avenir" font-size="15.0" fill="#FEFFFF" transform="matrix(1.00, 0.00, -0.00, -1.00, 496.3, 228.5)">I</text><text xml:space="preserve" font-family="Avenir-Light,Avenir" font-size="15.0" fill="#FEFFFF" transform="matrix(1.00, 0.00, -0.00, -1.00, 500.2, 228.5)">_</text><text xml:space="preserve" font-family="Avenir-Light,Avenir" font-size="15.0" fill="#FEFFFF" transform="matrix(1.00, 0.00, -0.00, -1.00, 507.7, 228.5)">s</text><text xml:space="preserve" font-family="Avenir-Light,Avenir" font-size="15.0" fill="#FEFFFF" transform="matrix(1.00, 0.00, -0.00, -1.00, 514.1, 228.5)">c</text><text xml:space="preserve" font-family="Avenir-Light,Avenir" font-size="15.0" fill="#FEFFFF" transform="matrix(1.00, 0.00, -0.00, -1.00, 521.3, 228.5)">h</text><text xml:space="preserve" font-family="Avenir-Light,Avenir" font-size="15.0" fill="#FEFFFF" transform="matrix(1.00, 0.00, -0.00, -1.00, 529.6, 228.5)">e</text><text xml:space="preserve" font-family="Avenir-Light,Avenir" font-size="15.0" fill="#FEFFFF" transform="matrix(1.00, 0.00, -0.00, -1.00, 538.0, 228.5)">m</text><text xml:space="preserve" font-family="Avenir-Light,Avenir" font-size="15.0" fill="#FEFFFF" transform="matrix(1.00, 0.00, -0.00, -1.00, 550.7, 228.5)">e</text><text xml:space="preserve" font-family="Avenir-Light,Avenir" font-size="15.0" fill="#FEFFFF" transform="matrix(1.00, 0.00, -0.00, -1.00, 559.1, 228.5)">#</text><text xml:space="preserve" font-family="Avenir-Light,Avenir" font-size="15.0" fill="#FEFFFF" transform="matrix(1.00, 0.00, -0.00, -1.00, 566.9, 228.5)">O</text><text xml:space="preserve" font-family="Avenir-Light,Avenir" font-size="15.0" fill="#FEFFFF" transform="matrix(1.00, 0.00, -0.00, -1.00, 579.4, 228.5)">f</text><text xml:space="preserve" font-family="Avenir-Light,Avenir" font-size="15.0" fill="#FEFFFF" transform="matrix(1.00, 0.00, -0.00, -1.00, 583.6, 228.5)">f</text><text xml:space="preserve" font-family="Avenir-Light,Avenir" font-size="15.0" fill="#FEFFFF" transform="matrix(1.00, 0.00, -0.00, -1.00, 588.0, 228.5)">i</text><text xml:space="preserve" font-family="Avenir-Light,Avenir" font-size="15.0" fill="#FEFFFF" transform="matrix(1.00, 0.00, -0.00, -1.00, 591.6, 228.5)">c</text><text xml:space="preserve" font-family="Avenir-Light,Avenir" font-size="15.0" fill="#FEFFFF" transform="matrix(1.00, 0.00, -0.00, -1.00, 598.8, 228.5)">i</text><text xml:space="preserve" font-family="Avenir-Light,Avenir" font-size="15.0" fill="#FEFFFF" transform="matrix(1.00, 0.00, -0.00, -1.00, 602.4, 228.5)">a</text><text xml:space="preserve" font-family="Avenir-Light,Avenir" font-size="15.0" fill="#FEFFFF" transform="matrix(1.00, 0.00, -0.00, -1.00, 610.2, 228.5)">l</text><text xml:space="preserve" font-family="Avenir-Light,Avenir" font-size="15.0" fill="#FEFFFF" transform="matrix(1.00, 0.00, -0.00, -1.00, 613.8, 228.5)">_</text><text xml:space="preserve" font-family="Avenir-Light,Avenir" font-size="15.0" fill="#FEFFFF" transform="matrix(1.00, 0.00, -0.00, -1.00, 621.3, 228.5)">I</text><text xml:space="preserve" font-family="Avenir-Light,Avenir" font-size="15.0" fill="#FEFFFF" transform="matrix(1.00, 0.00, -0.00, -1.00, 625.2, 228.5)">A</text><text xml:space="preserve" font-family="Avenir-Light,Avenir" font-size="15.0" fill="#FEFFFF" transform="matrix(1.00, 0.00, -0.00, -1.00, 635.5, 228.5)">N</text><text xml:space="preserve" font-family="Avenir-Light,Avenir" font-size="15.0" fill="#FEFFFF" transform="matrix(1.00, 0.00, -0.00, -1.00, 647.2, 228.5)">A</text><text xml:space="preserve" font-family="Avenir-Light,Avenir" font-size="15.0" fill="#FEFFFF" transform="matrix(1.00, 0.00, -0.00, -1.00, 657.4, 228.5)">-</text><text xml:space="preserve" font-family="Avenir-Light,Avenir" font-size="15.0" fill="#FEFFFF" transform="matrix(1.00, 0.00, -0.00, -1.00, 662.4, 228.5)">r</text><text xml:space="preserve" font-family="Avenir-Light,Avenir" font-size="15.0" fill="#FEFFFF" transform="matrix(1.00, 0.00, -0.00, -1.00, 667.1, 228.5)">e</text><text xml:space="preserve" font-family="Avenir-Light,Avenir" font-size="15.0" fill="#FEFFFF" transform="matrix(1.00, 0.00, -0.00, -1.00, 675.5, 228.5)">g</text><text xml:space="preserve" font-family="Avenir-Light,Avenir" font-size="15.0" fill="#FEFFFF" transform="matrix(1.00, 0.00, -0.00, -1.00, 684.7, 228.5)">i</text><text xml:space="preserve" font-family="Avenir-Light,Avenir" font-size="15.0" fill="#FEFFFF" transform="matrix(1.00, 0.00, -0.00, -1.00, 688.3, 228.5)">s</text><text xml:space="preserve" font-family="Avenir-Light,Avenir" font-size="15.0" fill="#FEFFFF" transform="matrix(1.00, 0.00, -0.00, -1.00, 694.6, 228.5)">t</text><text xml:space="preserve" font-family="Avenir-Light,Avenir" font-size="15.0" fill="#FEFFFF" transform="matrix(1.00, 0.00, -0.00, -1.00, 699.6, 228.5)">e</text><text xml:space="preserve" font-family="Avenir-Light,Avenir" font-size="15.0" fill="#FEFFFF" transform="matrix(1.00, 0.00, -0.00, -1.00, 708.0, 228.5)">r</text><text xml:space="preserve" font-family="Avenir-Light,Avenir" font-size="15.0" fill="#FEFFFF" transform="matrix(1.00, 0.00, -0.00, -1.00, 712.7, 228.5)">e</text><text xml:space="preserve" font-family="Avenir-Light,Avenir" font-size="15.0" fill="#FEFFFF" transform="matrix(1.00, 0.00, -0.00, -1.00, 721.0, 228.5)">d</text><text xml:space="preserve" font-family="Avenir-Light,Avenir" font-size="15.0" fill="#FEFFFF" transform="matrix(1.00, 0.00, -0.00, -1.00, 730.2, 228.5)">_</text><text xml:space="preserve" font-family="Avenir-Light,Avenir" font-size="15.0" fill="#FEFFFF" transform="matrix(1.00, 0.00, -0.00, -1.00, 737.7, 228.5)">s</text><text xml:space="preserve" font-family="Avenir-Light,Avenir" font-size="15.0" fill="#FEFFFF" transform="matrix(1.00, 0.00, -0.00, -1.00, 744.1, 228.5)">c</text><text xml:space="preserve" font-family="Avenir-Light,Avenir" font-size="15.0" fill="#FEFFFF" transform="matrix(1.00, 0.00, -0.00, -1.00, 751.3, 228.5)">h</text><text xml:space="preserve" font-family="Avenir-Light,Avenir" font-size="15.0" fill="#FEFFFF" transform="matrix(1.00, 0.00, -0.00, -1.00, 759.7, 228.5)">e</text><text xml:space="preserve" font-family="Avenir-Light,Avenir" font-size="15.0" fill="#FEFFFF" transform="matrix(1.00, 0.00, -0.00, -1.00, 768.0, 228.5)">m</text><text xml:space="preserve" font-family="Avenir-Light,Avenir" font-size="15.0" fill="#FEFFFF" transform="matrix(1.00, 0.00, -0.00, -1.00, 780.8, 228.5)">e</text><text xml:space="preserve" font-family="Avenir-Light,Avenir" font-size="15.0" fill="#FEFFFF" transform="matrix(1.00, 0.00, -0.00, -1.00, 789.1, 228.5)">s</text><text xml:space="preserve" font-family="Avenir-Light,Avenir" font-size="15.0" fill="#FEFFFF" transform="matrix(1.00, 0.00, -0.00, -1.00, 795.5, 228.5)">)</text><path d="M 49.0 184.6 L 556.3 184.6 " fill="none" stroke="#FEFFFF" stroke-width="0.75" transform="matrix(1.00, 0.00, 0.00, -1.00, 239.2, 412.0)"></path></g></g><g><clipPath id="clip0x6080008b68c0"><path d="M 112.2 398.3 L 883.1 398.3 L 883.1 480.7 L 112.2 480.7 Z M 112.2 398.3 "></path></clipPath><g clip-path="url(#clip0x6080008b68c0)"><text xml:space="preserve" font-family="Avenir-Light,Avenir" font-size="40.0" fill="#FEFFFF" transform="matrix(1.00, 0.00, -0.00, -1.00, 125.9, 426.6)">T</text><text xml:space="preserve" font-family="Avenir-Light,Avenir" font-size="40.0" fill="#FEFFFF" transform="matrix(1.00, 0.00, -0.00, -1.00, 144.4, 426.6)">e</text><text xml:space="preserve" font-family="Avenir-Light,Avenir" font-size="40.0" fill="#FEFFFF" transform="matrix(1.00, 0.00, -0.00, -1.00, 166.6, 426.6)">l</text><text xml:space="preserve" font-family="Avenir-Light,Avenir" font-size="40.0" fill="#FEFFFF" transform="matrix(1.00, 0.00, -0.00, -1.00, 176.2, 426.6)">e</text><text xml:space="preserve" font-family="Avenir-Light,Avenir" font-size="40.0" fill="#FEFFFF" transform="matrix(1.00, 0.00, -0.00, -1.00, 198.5, 426.6)">p</text><text xml:space="preserve" font-family="Avenir-Light,Avenir" font-size="40.0" fill="#FEFFFF" transform="matrix(1.00, 0.00, -0.00, -1.00, 222.9, 426.6)">h</text><text xml:space="preserve" font-family="Avenir-Light,Avenir" font-size="40.0" fill="#FEFFFF" transform="matrix(1.00, 0.00, -0.00, -1.00, 245.2, 426.6)">o</text><text xml:space="preserve" font-family="Avenir-Light,Avenir" font-size="40.0" fill="#FEFFFF" transform="matrix(1.00, 0.00, -0.00, -1.00, 268.9, 426.6)">n</text><text xml:space="preserve" font-family="Avenir-Light,Avenir" font-size="40.0" fill="#FEFFFF" transform="matrix(1.00, 0.00, -0.00, -1.00, 291.2, 426.6)">e</text><text xml:space="preserve" font-family="Avenir-Light,Avenir" font-size="40.0" fill="#FEFFFF" transform="matrix(1.00, 0.00, -0.00, -1.00, 313.4, 426.6)"> </text><text xml:space="preserve" font-family="Avenir-Light,Avenir" font-size="40.0" fill="#FEFFFF" transform="matrix(1.00, 0.00, -0.00, -1.00, 323.8, 426.6)">&amp;</text><text xml:space="preserve" font-family="Avenir-Light,Avenir" font-size="40.0" fill="#FEFFFF" transform="matrix(1.00, 0.00, -0.00, -1.00, 352.0, 426.6)"> </text><text xml:space="preserve" font-family="Avenir-Light,Avenir" font-size="40.0" fill="#FEFFFF" transform="matrix(1.00, 0.00, -0.00, -1.00, 362.4, 426.6)">E</text><text xml:space="preserve" font-family="Avenir-Light,Avenir" font-size="40.0" fill="#FEFFFF" transform="matrix(1.00, 0.00, -0.00, -1.00, 386.1, 426.6)">m</text><text xml:space="preserve" font-family="Avenir-Light,Avenir" font-size="40.0" fill="#FEFFFF" transform="matrix(1.00, 0.00, -0.00, -1.00, 420.2, 426.6)">a</text><text xml:space="preserve" font-family="Avenir-Light,Avenir" font-size="40.0" fill="#FEFFFF" transform="matrix(1.00, 0.00, -0.00, -1.00, 440.9, 426.6)">i</text><text xml:space="preserve" font-family="Avenir-Light,Avenir" font-size="40.0" fill="#FEFFFF" transform="matrix(1.00, 0.00, -0.00, -1.00, 450.5, 426.6)">l</text><text xml:space="preserve" font-family="Avenir-Light,Avenir" font-size="40.0" fill="#FEFFFF" transform="matrix(1.00, 0.00, -0.00, -1.00, 460.1, 426.6)"> </text><text xml:space="preserve" font-family="Avenir-Light,Avenir" font-size="40.0" fill="#FEFFFF" transform="matrix(1.00, 0.00, -0.00, -1.00, 470.5, 426.6)">f</text><text xml:space="preserve" font-family="Avenir-Light,Avenir" font-size="40.0" fill="#FEFFFF" transform="matrix(1.00, 0.00, -0.00, -1.00, 482.4, 426.6)">i</text><text xml:space="preserve" font-family="Avenir-Light,Avenir" font-size="40.0" fill="#FEFFFF" transform="matrix(1.00, 0.00, -0.00, -1.00, 492.0, 426.6)">e</text><text xml:space="preserve" font-family="Avenir-Light,Avenir" font-size="40.0" fill="#FEFFFF" transform="matrix(1.00, 0.00, -0.00, -1.00, 514.2, 426.6)">l</text><text xml:space="preserve" font-family="Avenir-Light,Avenir" font-size="40.0" fill="#FEFFFF" transform="matrix(1.00, 0.00, -0.00, -1.00, 523.8, 426.6)">d</text><text xml:space="preserve" font-family="Avenir-Light,Avenir" font-size="40.0" fill="#FEFFFF" transform="matrix(1.00, 0.00, -0.00, -1.00, 548.2, 426.6)"> </text><text xml:space="preserve" font-family="Avenir-Light,Avenir" font-size="40.0" fill="#FEFFFF" transform="matrix(1.00, 0.00, -0.00, -1.00, 558.6, 426.6)">m</text><text xml:space="preserve" font-family="Avenir-Light,Avenir" font-size="40.0" fill="#FEFFFF" transform="matrix(1.00, 0.00, -0.00, -1.00, 592.7, 426.6)">o</text><text xml:space="preserve" font-family="Avenir-Light,Avenir" font-size="40.0" fill="#FEFFFF" transform="matrix(1.00, 0.00, -0.00, -1.00, 616.5, 426.6)">d</text><text xml:space="preserve" font-family="Avenir-Light,Avenir" font-size="40.0" fill="#FEFFFF" transform="matrix(1.00, 0.00, -0.00, -1.00, 640.9, 426.6)">u</text><text xml:space="preserve" font-family="Avenir-Light,Avenir" font-size="40.0" fill="#FEFFFF" transform="matrix(1.00, 0.00, -0.00, -1.00, 663.2, 426.6)">l</text><text xml:space="preserve" font-family="Avenir-Light,Avenir" font-size="40.0" fill="#FEFFFF" transform="matrix(1.00, 0.00, -0.00, -1.00, 672.8, 426.6)">e</text><text xml:space="preserve" font-family="Avenir-Light,Avenir" font-size="40.0" fill="#FEFFFF" transform="matrix(1.00, 0.00, -0.00, -1.00, 695.0, 426.6)">s</text><text xml:space="preserve" font-family="Avenir-Light,Avenir" font-size="40.0" fill="#FEFFFF" transform="matrix(1.00, 0.00, -0.00, -1.00, 712.0, 426.6)"> </text><text xml:space="preserve" font-family="Avenir-Light,Avenir" font-size="40.0" fill="#FEFFFF" transform="matrix(1.00, 0.00, -0.00, -1.00, 722.4, 426.6)">p</text><text xml:space="preserve" font-family="Avenir-Light,Avenir" font-size="40.0" fill="#FEFFFF" transform="matrix(1.00, 0.00, -0.00, -1.00, 746.9, 426.6)">r</text><text xml:space="preserve" font-family="Avenir-Light,Avenir" font-size="40.0" fill="#FEFFFF" transform="matrix(1.00, 0.00, -0.00, -1.00, 759.5, 426.6)">o</text><text xml:space="preserve" font-family="Avenir-Light,Avenir" font-size="40.0" fill="#FEFFFF" transform="matrix(1.00, 0.00, -0.00, -1.00, 783.2, 426.6)">v</text><text xml:space="preserve" font-family="Avenir-Light,Avenir" font-size="40.0" fill="#FEFFFF" transform="matrix(1.00, 0.00, -0.00, -1.00, 801.8, 426.6)">i</text><text xml:space="preserve" font-family="Avenir-Light,Avenir" font-size="40.0" fill="#FEFFFF" transform="matrix(1.00, 0.00, -0.00, -1.00, 811.4, 426.6)">d</text><text xml:space="preserve" font-family="Avenir-Light,Avenir" font-size="40.0" fill="#FEFFFF" transform="matrix(1.00, 0.00, -0.00, -1.00, 835.8, 426.6)">e</text><text xml:space="preserve" font-family="Avenir-Light,Avenir" font-size="40.0" fill="#FEFFFF" transform="matrix(1.00, 0.00, -0.00, -1.00, 858.0, 426.6)">:</text></g></g></g></svg>