<?xml version="1.0" encoding="UTF-8" standalone="no"?><svg xmlns="http://www.w3.org/2000/svg" xmlns:xlink="http://www.w3.org/1999/xlink" clip-rule="evenodd" stroke-miterlimit="10" viewBox="0 0 1024 768"><desc>SVG generated by Keynote</desc><defs></defs><g transform="matrix(1.00, 0.00, -0.00, -1.00, 0.0, 768.0)"><path d="M 0.0 768.0 L 1024.0 768.0 L 1024.0 0.0 L 0.0 0.0 Z M 0.0 768.0 " fill="#000000"></path><g><clipPath id="clip0x608000aa7920"><path d="M 514.0 768.0 L 1026.0 768.0 L 1026.0 0.0 L 514.0 0.0 Z M 513.5 768.0 "></path></clipPath><g clip-path="url(#clip0x608000aa7920)"><image xlink:href="C97A8F660F5532D01488CD56F35E4EC1.jpeg" width="600.00" height="600.00" transform="matrix(1.32, 0.00, -0.00, -1.32, 484.6, 778.9)"></image></g></g><text xml:space="preserve" font-family="Avenir-Light,Avenir" font-size="45.0" fill="#FEFFFF" transform="matrix(1.00, 0.00, -0.00, -1.00, 56.0, 671.5)">T</text><text xml:space="preserve" font-family="Avenir-Light,Avenir" font-size="45.0" fill="#FEFFFF" transform="matrix(1.00, 0.00, -0.00, -1.00, 89.0, 671.5)">O</text><text xml:space="preserve" font-family="Avenir-Light,Avenir" font-size="45.0" fill="#FEFFFF" transform="matrix(1.00, 0.00, -0.00, -1.00, 133.8, 671.5)">U</text><text xml:space="preserve" font-family="Avenir-Light,Avenir" font-size="45.0" fill="#FEFFFF" transform="matrix(1.00, 0.00, -0.00, -1.00, 171.7, 671.5)">R</text><text xml:space="preserve" font-family="Avenir-Light,Avenir" font-size="45.0" fill="#FEFFFF" transform="matrix(1.00, 0.00, -0.00, -1.00, 205.6, 671.5)"> </text><text xml:space="preserve" font-family="Avenir-Light,Avenir" font-size="45.0" fill="#FEFFFF" transform="matrix(1.00, 0.00, -0.00, -1.00, 56.0, 610.5)">M</text><text xml:space="preserve" font-family="Avenir-Light,Avenir" font-size="45.0" fill="#FEFFFF" transform="matrix(1.00, 0.00, -0.00, -1.00, 103.2, 610.5)">O</text><text xml:space="preserve" font-family="Avenir-Light,Avenir" font-size="45.0" fill="#FEFFFF" transform="matrix(1.00, 0.00, -0.00, -1.00, 147.9, 610.5)">D</text><text xml:space="preserve" font-family="Avenir-Light,Avenir" font-size="45.0" fill="#FEFFFF" transform="matrix(1.00, 0.00, -0.00, -1.00, 188.5, 610.5)">U</text><text xml:space="preserve" font-family="Avenir-Light,Avenir" font-size="45.0" fill="#FEFFFF" transform="matrix(1.00, 0.00, -0.00, -1.00, 226.5, 610.5)">L</text><text xml:space="preserve" font-family="Avenir-Light,Avenir" font-size="45.0" fill="#FEFFFF" transform="matrix(1.00, 0.00, -0.00, -1.00, 256.2, 610.5)">E</text><text xml:space="preserve" font-family="Avenir-Light,Avenir" font-size="27.0" fill="#646363" transform="matrix(1.00, 0.00, -0.00, -1.00, 34.9, 512.9)">•</text><text xml:space="preserve" font-family="Avenir-Light,Avenir" font-size="30.0" fill="#FEFFFF" transform="matrix(1.00, 0.00, -0.00, -1.00, 65.9, 512.0)">E</text><text xml:space="preserve" font-family="Avenir-Light,Avenir" font-size="30.0" fill="#FEFFFF" transform="matrix(1.00, 0.00, -0.00, -1.00, 83.7, 512.0)">s</text><text xml:space="preserve" font-family="Avenir-Light,Avenir" font-size="30.0" fill="#FEFFFF" transform="matrix(1.00, 0.00, -0.00, -1.00, 96.5, 512.0)">s</text><text xml:space="preserve" font-family="Avenir-Light,Avenir" font-size="30.0" fill="#FEFFFF" transform="matrix(1.00, 0.00, -0.00, -1.00, 109.3, 512.0)">e</text><text xml:space="preserve" font-family="Avenir-Light,Avenir" font-size="30.0" fill="#FEFFFF" transform="matrix(1.00, 0.00, -0.00, -1.00, 126.0, 512.0)">n</text><text xml:space="preserve" font-family="Avenir-Light,Avenir" font-size="30.0" fill="#FEFFFF" transform="matrix(1.00, 0.00, -0.00, -1.00, 142.7, 512.0)">t</text><text xml:space="preserve" font-family="Avenir-Light,Avenir" font-size="30.0" fill="#FEFFFF" transform="matrix(1.00, 0.00, -0.00, -1.00, 152.7, 512.0)">i</text><text xml:space="preserve" font-family="Avenir-Light,Avenir" font-size="30.0" fill="#FEFFFF" transform="matrix(1.00, 0.00, -0.00, -1.00, 159.9, 512.0)">a</text><text xml:space="preserve" font-family="Avenir-Light,Avenir" font-size="30.0" fill="#FEFFFF" transform="matrix(1.00, 0.00, -0.00, -1.00, 175.4, 512.0)">l</text><text xml:space="preserve" font-family="Avenir-Light,Avenir" font-size="30.0" fill="#FEFFFF" transform="matrix(1.00, 0.00, -0.00, -1.00, 182.7, 512.0)">l</text><text xml:space="preserve" font-family="Avenir-Light,Avenir" font-size="30.0" fill="#FEFFFF" transform="matrix(1.00, 0.00, -0.00, -1.00, 189.9, 512.0)">y</text><text xml:space="preserve" font-family="Avenir-Light,Avenir" font-size="30.0" fill="#FEFFFF" transform="matrix(1.00, 0.00, -0.00, -1.00, 203.8, 512.0)"> </text><text xml:space="preserve" font-family="Avenir-Light,Avenir" font-size="30.0" fill="#FEFFFF" transform="matrix(1.00, 0.00, -0.00, -1.00, 211.6, 512.0)">j</text><text xml:space="preserve" font-family="Avenir-Light,Avenir" font-size="30.0" fill="#FEFFFF" transform="matrix(1.00, 0.00, -0.00, -1.00, 218.8, 512.0)">Q</text><text xml:space="preserve" font-family="Avenir-Light,Avenir" font-size="30.0" fill="#FEFFFF" transform="matrix(1.00, 0.00, -0.00, -1.00, 243.8, 512.0)">u</text><text xml:space="preserve" font-family="Avenir-Light,Avenir" font-size="30.0" fill="#FEFFFF" transform="matrix(1.00, 0.00, -0.00, -1.00, 260.5, 512.0)">e</text><text xml:space="preserve" font-family="Avenir-Light,Avenir" font-size="30.0" fill="#FEFFFF" transform="matrix(1.00, 0.00, -0.00, -1.00, 277.1, 512.0)">r</text><text xml:space="preserve" font-family="Avenir-Light,Avenir" font-size="30.0" fill="#FEFFFF" transform="matrix(1.00, 0.00, -0.00, -1.00, 287.1, 512.0)">y</text><text xml:space="preserve" font-family="Avenir-Light,Avenir" font-size="30.0" fill="#FEFFFF" transform="matrix(1.00, 0.00, -0.00, -1.00, 301.0, 512.0)"> </text><text xml:space="preserve" font-family="Avenir-Light,Avenir" font-size="30.0" fill="#FEFFFF" transform="matrix(1.00, 0.00, -0.00, -1.00, 308.8, 512.0)">J</text><text xml:space="preserve" font-family="Avenir-Light,Avenir" font-size="30.0" fill="#FEFFFF" transform="matrix(1.00, 0.00, -0.00, -1.00, 323.3, 512.0)">o</text><text xml:space="preserve" font-family="Avenir-Light,Avenir" font-size="30.0" fill="#FEFFFF" transform="matrix(1.00, 0.00, -0.00, -1.00, 341.1, 512.0)">y</text><text xml:space="preserve" font-family="Avenir-Light,Avenir" font-size="30.0" fill="#FEFFFF" transform="matrix(1.00, 0.00, -0.00, -1.00, 355.0, 512.0)">r</text><text xml:space="preserve" font-family="Avenir-Light,Avenir" font-size="30.0" fill="#FEFFFF" transform="matrix(1.00, 0.00, -0.00, -1.00, 365.0, 512.0)">i</text><text xml:space="preserve" font-family="Avenir-Light,Avenir" font-size="30.0" fill="#FEFFFF" transform="matrix(1.00, 0.00, -0.00, -1.00, 372.2, 512.0)">d</text><text xml:space="preserve" font-family="Avenir-Light,Avenir" font-size="30.0" fill="#FEFFFF" transform="matrix(1.00, 0.00, -0.00, -1.00, 390.5, 512.0)">e</text><text xml:space="preserve" font-family="LucidaGrande,Lucida Grande" font-size="30.0" fill="#FEFFFF" transform="matrix(1.00, 0.00, -0.00, -1.00, 407.2, 512.0)"> </text><text xml:space="preserve" font-family="Avenir-Light,Avenir" font-size="15.0" fill="#FEFFFF" transform="matrix(1.00, 0.00, -0.00, -1.00, 65.9, 486.5)">(</text><text xml:space="preserve" font-family="Avenir-Light,Avenir" font-size="15.0" fill="#FEFFFF" transform="matrix(1.00, 0.00, -0.00, -1.00, 69.8, 486.5)">h</text><text xml:space="preserve" font-family="Avenir-Light,Avenir" font-size="15.0" fill="#FEFFFF" transform="matrix(1.00, 0.00, -0.00, -1.00, 78.2, 486.5)">t</text><text xml:space="preserve" font-family="Avenir-Light,Avenir" font-size="15.0" fill="#FEFFFF" transform="matrix(1.00, 0.00, -0.00, -1.00, 83.2, 486.5)">t</text><text xml:space="preserve" font-family="Avenir-Light,Avenir" font-size="15.0" fill="#FEFFFF" transform="matrix(1.00, 0.00, -0.00, -1.00, 88.2, 486.5)">p</text><text xml:space="preserve" font-family="Avenir-Light,Avenir" font-size="15.0" fill="#FEFFFF" transform="matrix(1.00, 0.00, -0.00, -1.00, 97.4, 486.5)">:</text><text xml:space="preserve" font-family="Avenir-Light,Avenir" font-size="15.0" fill="#FEFFFF" transform="matrix(1.00, 0.00, -0.00, -1.00, 101.3, 486.5)">/</text><text xml:space="preserve" font-family="Avenir-Light,Avenir" font-size="15.0" fill="#FEFFFF" transform="matrix(1.00, 0.00, -0.00, -1.00, 106.8, 486.5)">/</text><text xml:space="preserve" font-family="Avenir-Light,Avenir" font-size="15.0" fill="#FEFFFF" transform="matrix(1.00, 0.00, -0.00, -1.00, 112.4, 486.5)">z</text><text xml:space="preserve" font-family="Avenir-Light,Avenir" font-size="15.0" fill="#FEFFFF" transform="matrix(1.00, 0.00, -0.00, -1.00, 118.7, 486.5)">u</text><text xml:space="preserve" font-family="Avenir-Light,Avenir" font-size="15.0" fill="#FEFFFF" transform="matrix(1.00, 0.00, -0.00, -1.00, 127.1, 486.5)">r</text><text xml:space="preserve" font-family="Avenir-Light,Avenir" font-size="15.0" fill="#FEFFFF" transform="matrix(1.00, 0.00, -0.00, -1.00, 132.1, 486.5)">b</text><text xml:space="preserve" font-family="Avenir-Light,Avenir" font-size="15.0" fill="#FEFFFF" transform="matrix(1.00, 0.00, -0.00, -1.00, 141.2, 486.5)">.</text><text xml:space="preserve" font-family="Avenir-Light,Avenir" font-size="15.0" fill="#FEFFFF" transform="matrix(1.00, 0.00, -0.00, -1.00, 145.1, 486.5)">c</text><text xml:space="preserve" font-family="Avenir-Light,Avenir" font-size="15.0" fill="#FEFFFF" transform="matrix(1.00, 0.00, -0.00, -1.00, 152.4, 486.5)">o</text><text xml:space="preserve" font-family="Avenir-Light,Avenir" font-size="15.0" fill="#FEFFFF" transform="matrix(1.00, 0.00, -0.00, -1.00, 161.3, 486.5)">m</text><text xml:space="preserve" font-family="Avenir-Light,Avenir" font-size="15.0" fill="#FEFFFF" transform="matrix(1.00, 0.00, -0.00, -1.00, 174.1, 486.5)">/</text><text xml:space="preserve" font-family="Avenir-Light,Avenir" font-size="15.0" fill="#FEFFFF" transform="matrix(1.00, 0.00, -0.00, -1.00, 179.6, 486.5)">p</text><text xml:space="preserve" font-family="Avenir-Light,Avenir" font-size="15.0" fill="#FEFFFF" transform="matrix(1.00, 0.00, -0.00, -1.00, 188.8, 486.5)">l</text><text xml:space="preserve" font-family="Avenir-Light,Avenir" font-size="15.0" fill="#FEFFFF" transform="matrix(1.00, 0.00, -0.00, -1.00, 192.4, 486.5)">a</text><text xml:space="preserve" font-family="Avenir-Light,Avenir" font-size="15.0" fill="#FEFFFF" transform="matrix(1.00, 0.00, -0.00, -1.00, 200.2, 486.5)">y</text><text xml:space="preserve" font-family="Avenir-Light,Avenir" font-size="15.0" fill="#FEFFFF" transform="matrix(1.00, 0.00, -0.00, -1.00, 207.1, 486.5)">g</text><text xml:space="preserve" font-family="Avenir-Light,Avenir" font-size="15.0" fill="#FEFFFF" transform="matrix(1.00, 0.00, -0.00, -1.00, 216.3, 486.5)">r</text><text xml:space="preserve" font-family="Avenir-Light,Avenir" font-size="15.0" fill="#FEFFFF" transform="matrix(1.00, 0.00, -0.00, -1.00, 221.0, 486.5)">o</text><text xml:space="preserve" font-family="Avenir-Light,Avenir" font-size="15.0" fill="#FEFFFF" transform="matrix(1.00, 0.00, -0.00, -1.00, 229.9, 486.5)">u</text><text xml:space="preserve" font-family="Avenir-Light,Avenir" font-size="15.0" fill="#FEFFFF" transform="matrix(1.00, 0.00, -0.00, -1.00, 238.2, 486.5)">n</text><text xml:space="preserve" font-family="Avenir-Light,Avenir" font-size="15.0" fill="#FEFFFF" transform="matrix(1.00, 0.00, -0.00, -1.00, 246.6, 486.5)">d</text><text xml:space="preserve" font-family="Avenir-Light,Avenir" font-size="15.0" fill="#FEFFFF" transform="matrix(1.00, 0.00, -0.00, -1.00, 255.7, 486.5)">/</text><text xml:space="preserve" font-family="Avenir-Light,Avenir" font-size="15.0" fill="#FEFFFF" transform="matrix(1.00, 0.00, -0.00, -1.00, 261.3, 486.5)">j</text><text xml:space="preserve" font-family="Avenir-Light,Avenir" font-size="15.0" fill="#FEFFFF" transform="matrix(1.00, 0.00, -0.00, -1.00, 264.9, 486.5)">q</text><text xml:space="preserve" font-family="Avenir-Light,Avenir" font-size="15.0" fill="#FEFFFF" transform="matrix(1.00, 0.00, -0.00, -1.00, 274.1, 486.5)">u</text><text xml:space="preserve" font-family="Avenir-Light,Avenir" font-size="15.0" fill="#FEFFFF" transform="matrix(1.00, 0.00, -0.00, -1.00, 282.4, 486.5)">e</text><text xml:space="preserve" font-family="Avenir-Light,Avenir" font-size="15.0" fill="#FEFFFF" transform="matrix(1.00, 0.00, -0.00, -1.00, 290.7, 486.5)">r</text><text xml:space="preserve" font-family="Avenir-Light,Avenir" font-size="15.0" fill="#FEFFFF" transform="matrix(1.00, 0.00, -0.00, -1.00, 295.7, 486.5)">y</text><text xml:space="preserve" font-family="Avenir-Light,Avenir" font-size="15.0" fill="#FEFFFF" transform="matrix(1.00, 0.00, -0.00, -1.00, 302.7, 486.5)">-</text><text xml:space="preserve" font-family="Avenir-Light,Avenir" font-size="15.0" fill="#FEFFFF" transform="matrix(1.00, 0.00, -0.00, -1.00, 307.7, 486.5)">j</text><text xml:space="preserve" font-family="Avenir-Light,Avenir" font-size="15.0" fill="#FEFFFF" transform="matrix(1.00, 0.00, -0.00, -1.00, 311.3, 486.5)">o</text><text xml:space="preserve" font-family="Avenir-Light,Avenir" font-size="15.0" fill="#FEFFFF" transform="matrix(1.00, 0.00, -0.00, -1.00, 320.2, 486.5)">y</text><text xml:space="preserve" font-family="Avenir-Light,Avenir" font-size="15.0" fill="#FEFFFF" transform="matrix(1.00, 0.00, -0.00, -1.00, 327.1, 486.5)">r</text><text xml:space="preserve" font-family="Avenir-Light,Avenir" font-size="15.0" fill="#FEFFFF" transform="matrix(1.00, 0.00, -0.00, -1.00, 332.1, 486.5)">i</text><text xml:space="preserve" font-family="Avenir-Light,Avenir" font-size="15.0" fill="#FEFFFF" transform="matrix(1.00, 0.00, -0.00, -1.00, 335.7, 486.5)">d</text><text xml:space="preserve" font-family="Avenir-Light,Avenir" font-size="15.0" fill="#FEFFFF" transform="matrix(1.00, 0.00, -0.00, -1.00, 344.9, 486.5)">e</text><text xml:space="preserve" font-family="Avenir-Light,Avenir" font-size="15.0" fill="#FEFFFF" transform="matrix(1.00, 0.00, -0.00, -1.00, 353.2, 486.5)">-</text><text xml:space="preserve" font-family="Avenir-Light,Avenir" font-size="15.0" fill="#FEFFFF" transform="matrix(1.00, 0.00, -0.00, -1.00, 358.2, 486.5)">f</text><text xml:space="preserve" font-family="Avenir-Light,Avenir" font-size="15.0" fill="#FEFFFF" transform="matrix(1.00, 0.00, -0.00, -1.00, 362.7, 486.5)">e</text><text xml:space="preserve" font-family="Avenir-Light,Avenir" font-size="15.0" fill="#FEFFFF" transform="matrix(1.00, 0.00, -0.00, -1.00, 371.0, 486.5)">a</text><text xml:space="preserve" font-family="Avenir-Light,Avenir" font-size="15.0" fill="#FEFFFF" transform="matrix(1.00, 0.00, -0.00, -1.00, 378.8, 486.5)">t</text><text xml:space="preserve" font-family="Avenir-Light,Avenir" font-size="15.0" fill="#FEFFFF" transform="matrix(1.00, 0.00, -0.00, -1.00, 383.8, 486.5)">u</text><text xml:space="preserve" font-family="Avenir-Light,Avenir" font-size="15.0" fill="#FEFFFF" transform="matrix(1.00, 0.00, -0.00, -1.00, 392.1, 486.5)">r</text><text xml:space="preserve" font-family="Avenir-Light,Avenir" font-size="15.0" fill="#FEFFFF" transform="matrix(1.00, 0.00, -0.00, -1.00, 396.8, 486.5)">e</text><text xml:space="preserve" font-family="Avenir-Light,Avenir" font-size="15.0" fill="#FEFFFF" transform="matrix(1.00, 0.00, -0.00, -1.00, 405.2, 486.5)">-</text><text xml:space="preserve" font-family="Avenir-Light,Avenir" font-size="15.0" fill="#FEFFFF" transform="matrix(1.00, 0.00, -0.00, -1.00, 410.2, 486.5)">t</text><text xml:space="preserve" font-family="Avenir-Light,Avenir" font-size="15.0" fill="#FEFFFF" transform="matrix(1.00, 0.00, -0.00, -1.00, 415.2, 486.5)">o</text><text xml:space="preserve" font-family="Avenir-Light,Avenir" font-size="15.0" fill="#FEFFFF" transform="matrix(1.00, 0.00, -0.00, -1.00, 424.1, 486.5)">u</text><text xml:space="preserve" font-family="Avenir-Light,Avenir" font-size="15.0" fill="#FEFFFF" transform="matrix(1.00, 0.00, -0.00, -1.00, 432.4, 486.5)">r</text><text xml:space="preserve" font-family="Avenir-Light,Avenir" font-size="15.0" fill="#FEFFFF" transform="matrix(1.00, 0.00, -0.00, -1.00, 436.6, 486.5)">-</text><text xml:space="preserve" font-family="Avenir-Light,Avenir" font-size="15.0" fill="#FEFFFF" transform="matrix(1.00, 0.00, -0.00, -1.00, 441.6, 486.5)">p</text><text xml:space="preserve" font-family="Avenir-Light,Avenir" font-size="15.0" fill="#FEFFFF" transform="matrix(1.00, 0.00, -0.00, -1.00, 450.8, 486.5)">l</text><text xml:space="preserve" font-family="Avenir-Light,Avenir" font-size="15.0" fill="#FEFFFF" transform="matrix(1.00, 0.00, -0.00, -1.00, 454.4, 486.5)">u</text><text xml:space="preserve" font-family="Avenir-Light,Avenir" font-size="15.0" fill="#FEFFFF" transform="matrix(1.00, 0.00, -0.00, -1.00, 462.7, 486.5)">g</text><text xml:space="preserve" font-family="Avenir-Light,Avenir" font-size="15.0" fill="#FEFFFF" transform="matrix(1.00, 0.00, -0.00, -1.00, 471.9, 486.5)">i</text><text xml:space="preserve" font-family="Avenir-Light,Avenir" font-size="15.0" fill="#FEFFFF" transform="matrix(1.00, 0.00, -0.00, -1.00, 475.5, 486.5)">n</text><text xml:space="preserve" font-family="Avenir-Light,Avenir" font-size="15.0" fill="#FEFFFF" transform="matrix(1.00, 0.00, -0.00, -1.00, 483.8, 486.5)">)</text><text xml:space="preserve" font-family="Avenir-Light,Avenir" font-size="30.0" fill="#FEFFFF" transform="matrix(1.00, 0.00, -0.00, -1.00, 487.7, 486.5)"> </text><g><clipPath id="clip0x600000abe0c0"><path d="M 68.8 484.0 L 483.8 484.0 L 483.8 486.7 L 68.8 486.7 Z M 68.8 484.0 "></path></clipPath><g clip-path="url(#clip0x600000abe0c0)"><path d="M 38.9 60.6 L 452.9 60.6 " fill="none" stroke="#FEFFFF" stroke-width="0.75" transform="matrix(1.00, 0.00, 0.00, -1.00, 30.9, 546.0)"></path></g></g><text xml:space="preserve" font-family="Avenir-Light,Avenir" font-size="27.0" fill="#646363" transform="matrix(1.00, 0.00, -0.00, -1.00, 34.9, 419.9)">•</text><text xml:space="preserve" font-family="Avenir-Light,Avenir" font-size="30.0" fill="#FEFFFF" transform="matrix(1.00, 0.00, -0.00, -1.00, 65.9, 419.0)">N</text><text xml:space="preserve" font-family="Avenir-Light,Avenir" font-size="30.0" fill="#FEFFFF" transform="matrix(1.00, 0.00, -0.00, -1.00, 89.3, 419.0)">o</text><text xml:space="preserve" font-family="Avenir-Light,Avenir" font-size="30.0" fill="#FEFFFF" transform="matrix(1.00, 0.00, -0.00, -1.00, 107.1, 419.0)"> </text><text xml:space="preserve" font-family="Avenir-Light,Avenir" font-size="30.0" fill="#FEFFFF" transform="matrix(1.00, 0.00, -0.00, -1.00, 114.9, 419.0)">U</text><text xml:space="preserve" font-family="Avenir-Light,Avenir" font-size="30.0" fill="#FEFFFF" transform="matrix(1.00, 0.00, -0.00, -1.00, 135.4, 419.0)">I</text><text xml:space="preserve" font-family="Avenir-Light,Avenir" font-size="30.0" fill="#FEFFFF" transform="matrix(1.00, 0.00, -0.00, -1.00, 143.2, 419.0)"> </text><text xml:space="preserve" font-family="Avenir-Light,Avenir" font-size="30.0" fill="#FEFFFF" transform="matrix(1.00, 0.00, -0.00, -1.00, 151.0, 419.0)">i</text><text xml:space="preserve" font-family="Avenir-Light,Avenir" font-size="30.0" fill="#FEFFFF" transform="matrix(1.00, 0.00, -0.00, -1.00, 158.2, 419.0)">n</text><text xml:space="preserve" font-family="Avenir-Light,Avenir" font-size="30.0" fill="#FEFFFF" transform="matrix(1.00, 0.00, -0.00, -1.00, 174.9, 419.0)"> </text><text xml:space="preserve" font-family="Avenir-Light,Avenir" font-size="30.0" fill="#FEFFFF" transform="matrix(1.00, 0.00, -0.00, -1.00, 182.7, 419.0)">c</text><text xml:space="preserve" font-family="Avenir-Light,Avenir" font-size="30.0" fill="#FEFFFF" transform="matrix(1.00, 0.00, -0.00, -1.00, 197.1, 419.0)">o</text><text xml:space="preserve" font-family="Avenir-Light,Avenir" font-size="30.0" fill="#FEFFFF" transform="matrix(1.00, 0.00, -0.00, -1.00, 215.0, 419.0)">r</text><text xml:space="preserve" font-family="Avenir-Light,Avenir" font-size="30.0" fill="#FEFFFF" transform="matrix(1.00, 0.00, -0.00, -1.00, 224.4, 419.0)">e</text><text xml:space="preserve" font-family="LucidaGrande,Lucida Grande" font-size="30.0" fill="#FEFFFF" transform="matrix(1.00, 0.00, -0.00, -1.00, 241.1, 419.0)"> </text><text xml:space="preserve" font-family="Avenir-Light,Avenir" font-size="15.0" fill="#FEFFFF" transform="matrix(1.00, 0.00, -0.00, -1.00, 65.9, 393.5)">(</text><text xml:space="preserve" font-family="Avenir-Light,Avenir" font-size="15.0" fill="#FEFFFF" transform="matrix(1.00, 0.00, -0.00, -1.00, 69.8, 393.5)">h</text><text xml:space="preserve" font-family="Avenir-Light,Avenir" font-size="15.0" fill="#FEFFFF" transform="matrix(1.00, 0.00, -0.00, -1.00, 78.2, 393.5)">t</text><text xml:space="preserve" font-family="Avenir-Light,Avenir" font-size="15.0" fill="#FEFFFF" transform="matrix(1.00, 0.00, -0.00, -1.00, 83.2, 393.5)">t</text><text xml:space="preserve" font-family="Avenir-Light,Avenir" font-size="15.0" fill="#FEFFFF" transform="matrix(1.00, 0.00, -0.00, -1.00, 88.2, 393.5)">p</text><text xml:space="preserve" font-family="Avenir-Light,Avenir" font-size="15.0" fill="#FEFFFF" transform="matrix(1.00, 0.00, -0.00, -1.00, 97.4, 393.5)">s</text><text xml:space="preserve" font-family="Avenir-Light,Avenir" font-size="15.0" fill="#FEFFFF" transform="matrix(1.00, 0.00, -0.00, -1.00, 103.7, 393.5)">:</text><text xml:space="preserve" font-family="Avenir-Light,Avenir" font-size="15.0" fill="#FEFFFF" transform="matrix(1.00, 0.00, -0.00, -1.00, 107.6, 393.5)">/</text><text xml:space="preserve" font-family="Avenir-Light,Avenir" font-size="15.0" fill="#FEFFFF" transform="matrix(1.00, 0.00, -0.00, -1.00, 113.2, 393.5)">/</text><text xml:space="preserve" font-family="Avenir-Light,Avenir" font-size="15.0" fill="#FEFFFF" transform="matrix(1.00, 0.00, -0.00, -1.00, 118.7, 393.5)">d</text><text xml:space="preserve" font-family="Avenir-Light,Avenir" font-size="15.0" fill="#FEFFFF" transform="matrix(1.00, 0.00, -0.00, -1.00, 127.9, 393.5)">r</text><text xml:space="preserve" font-family="Avenir-Light,Avenir" font-size="15.0" fill="#FEFFFF" transform="matrix(1.00, 0.00, -0.00, -1.00, 132.9, 393.5)">u</text><text xml:space="preserve" font-family="Avenir-Light,Avenir" font-size="15.0" fill="#FEFFFF" transform="matrix(1.00, 0.00, -0.00, -1.00, 141.2, 393.5)">p</text><text xml:space="preserve" font-family="Avenir-Light,Avenir" font-size="15.0" fill="#FEFFFF" transform="matrix(1.00, 0.00, -0.00, -1.00, 150.4, 393.5)">a</text><text xml:space="preserve" font-family="Avenir-Light,Avenir" font-size="15.0" fill="#FEFFFF" transform="matrix(1.00, 0.00, -0.00, -1.00, 158.2, 393.5)">l</text><text xml:space="preserve" font-family="Avenir-Light,Avenir" font-size="15.0" fill="#FEFFFF" transform="matrix(1.00, 0.00, -0.00, -1.00, 161.8, 393.5)">.</text><text xml:space="preserve" font-family="Avenir-Light,Avenir" font-size="15.0" fill="#FEFFFF" transform="matrix(1.00, 0.00, -0.00, -1.00, 165.7, 393.5)">o</text><text xml:space="preserve" font-family="Avenir-Light,Avenir" font-size="15.0" fill="#FEFFFF" transform="matrix(1.00, 0.00, -0.00, -1.00, 174.6, 393.5)">r</text><text xml:space="preserve" font-family="Avenir-Light,Avenir" font-size="15.0" fill="#FEFFFF" transform="matrix(1.00, 0.00, -0.00, -1.00, 179.3, 393.5)">g</text><text xml:space="preserve" font-family="Avenir-Light,Avenir" font-size="15.0" fill="#FEFFFF" transform="matrix(1.00, 0.00, -0.00, -1.00, 188.5, 393.5)">/</text><text xml:space="preserve" font-family="Avenir-Light,Avenir" font-size="15.0" fill="#FEFFFF" transform="matrix(1.00, 0.00, -0.00, -1.00, 194.0, 393.5)">p</text><text xml:space="preserve" font-family="Avenir-Light,Avenir" font-size="15.0" fill="#FEFFFF" transform="matrix(1.00, 0.00, -0.00, -1.00, 203.2, 393.5)">r</text><text xml:space="preserve" font-family="Avenir-Light,Avenir" font-size="15.0" fill="#FEFFFF" transform="matrix(1.00, 0.00, -0.00, -1.00, 207.9, 393.5)">o</text><text xml:space="preserve" font-family="Avenir-Light,Avenir" font-size="15.0" fill="#FEFFFF" transform="matrix(1.00, 0.00, -0.00, -1.00, 216.8, 393.5)">j</text><text xml:space="preserve" font-family="Avenir-Light,Avenir" font-size="15.0" fill="#FEFFFF" transform="matrix(1.00, 0.00, -0.00, -1.00, 220.4, 393.5)">e</text><text xml:space="preserve" font-family="Avenir-Light,Avenir" font-size="15.0" fill="#FEFFFF" transform="matrix(1.00, 0.00, -0.00, -1.00, 228.8, 393.5)">c</text><text xml:space="preserve" font-family="Avenir-Light,Avenir" font-size="15.0" fill="#FEFFFF" transform="matrix(1.00, 0.00, -0.00, -1.00, 236.0, 393.5)">t</text><text xml:space="preserve" font-family="Avenir-Light,Avenir" font-size="15.0" fill="#FEFFFF" transform="matrix(1.00, 0.00, -0.00, -1.00, 241.0, 393.5)">/</text><text xml:space="preserve" font-family="Avenir-Light,Avenir" font-size="15.0" fill="#FEFFFF" transform="matrix(1.00, 0.00, -0.00, -1.00, 246.5, 393.5)">t</text><text xml:space="preserve" font-family="Avenir-Light,Avenir" font-size="15.0" fill="#FEFFFF" transform="matrix(1.00, 0.00, -0.00, -1.00, 251.5, 393.5)">o</text><text xml:space="preserve" font-family="Avenir-Light,Avenir" font-size="15.0" fill="#FEFFFF" transform="matrix(1.00, 0.00, -0.00, -1.00, 260.5, 393.5)">u</text><text xml:space="preserve" font-family="Avenir-Light,Avenir" font-size="15.0" fill="#FEFFFF" transform="matrix(1.00, 0.00, -0.00, -1.00, 268.8, 393.5)">r</text><text xml:space="preserve" font-family="Avenir-Light,Avenir" font-size="15.0" fill="#FEFFFF" transform="matrix(1.00, 0.00, -0.00, -1.00, 273.8, 393.5)">_</text><text xml:space="preserve" font-family="Avenir-Light,Avenir" font-size="15.0" fill="#FEFFFF" transform="matrix(1.00, 0.00, -0.00, -1.00, 281.3, 393.5)">u</text><text xml:space="preserve" font-family="Avenir-Light,Avenir" font-size="15.0" fill="#FEFFFF" transform="matrix(1.00, 0.00, -0.00, -1.00, 289.6, 393.5)">i</text><text xml:space="preserve" font-family="Avenir-Light,Avenir" font-size="15.0" fill="#FEFFFF" transform="matrix(1.00, 0.00, -0.00, -1.00, 293.2, 393.5)">)</text><g><clipPath id="clip0x600000abf6e0"><path d="M 68.8 391.0 L 293.2 391.0 L 293.2 393.7 L 68.8 393.7 Z M 68.8 391.0 "></path></clipPath><g clip-path="url(#clip0x600000abf6e0)"><path d="M 38.9 153.6 L 262.3 153.6 " fill="none" stroke="#FEFFFF" stroke-width="0.75" transform="matrix(1.00, 0.00, 0.00, -1.00, 30.9, 546.0)"></path></g></g></g></svg>