<?xml version="1.0" encoding="UTF-8" standalone="no"?><svg xmlns="http://www.w3.org/2000/svg" xmlns:xlink="http://www.w3.org/1999/xlink" clip-rule="evenodd" stroke-miterlimit="10" viewBox="0 0 637 37"><desc>SVG generated by Keynote</desc><defs></defs><g transform="matrix(1.00, 0.00, -0.00, -1.00, 0.0, 37.0)"><text xml:space="preserve" font-family="Avenir-Light,Avenir" font-size="27.0" fill="#646363" transform="matrix(1.00, 0.00, -0.00, -1.00, 0.9, 9.9)">•</text><text xml:space="preserve" font-family="Avenir-Light,Avenir" font-size="30.0" fill="#FEFFFF" transform="matrix(1.00, 0.00, -0.00, -1.00, 31.9, 9.0)">Y</text><text xml:space="preserve" font-family="Avenir-Light,Avenir" font-size="30.0" fill="#FEFFFF" transform="matrix(1.00, 0.00, -0.00, -1.00, 46.4, 9.0)">o</text><text xml:space="preserve" font-family="Avenir-Light,Avenir" font-size="30.0" fill="#FEFFFF" transform="matrix(1.00, 0.00, -0.00, -1.00, 64.2, 9.0)">u</text><text xml:space="preserve" font-family="Avenir-Light,Avenir" font-size="30.0" fill="#FEFFFF" transform="matrix(1.00, 0.00, -0.00, -1.00, 80.9, 9.0)">’</text><text xml:space="preserve" font-family="Avenir-Light,Avenir" font-size="30.0" fill="#FEFFFF" transform="matrix(1.00, 0.00, -0.00, -1.00, 88.7, 9.0)">v</text><text xml:space="preserve" font-family="Avenir-Light,Avenir" font-size="30.0" fill="#FEFFFF" transform="matrix(1.00, 0.00, -0.00, -1.00, 102.6, 9.0)">e</text><text xml:space="preserve" font-family="Avenir-Light,Avenir" font-size="30.0" fill="#FEFFFF" transform="matrix(1.00, 0.00, -0.00, -1.00, 119.3, 9.0)"> </text><text xml:space="preserve" font-family="Avenir-Light,Avenir" font-size="30.0" fill="#FEFFFF" transform="matrix(1.00, 0.00, -0.00, -1.00, 127.1, 9.0)">p</text><text xml:space="preserve" font-family="Avenir-Light,Avenir" font-size="30.0" fill="#FEFFFF" transform="matrix(1.00, 0.00, -0.00, -1.00, 145.4, 9.0)">r</text><text xml:space="preserve" font-family="Avenir-Light,Avenir" font-size="30.0" fill="#FEFFFF" transform="matrix(1.00, 0.00, -0.00, -1.00, 154.9, 9.0)">o</text><text xml:space="preserve" font-family="Avenir-Light,Avenir" font-size="30.0" fill="#FEFFFF" transform="matrix(1.00, 0.00, -0.00, -1.00, 172.7, 9.0)">b</text><text xml:space="preserve" font-family="Avenir-Light,Avenir" font-size="30.0" fill="#FEFFFF" transform="matrix(1.00, 0.00, -0.00, -1.00, 191.0, 9.0)">a</text><text xml:space="preserve" font-family="Avenir-Light,Avenir" font-size="30.0" fill="#FEFFFF" transform="matrix(1.00, 0.00, -0.00, -1.00, 206.6, 9.0)">b</text><text xml:space="preserve" font-family="Avenir-Light,Avenir" font-size="30.0" fill="#FEFFFF" transform="matrix(1.00, 0.00, -0.00, -1.00, 224.9, 9.0)">l</text><text xml:space="preserve" font-family="Avenir-Light,Avenir" font-size="30.0" fill="#FEFFFF" transform="matrix(1.00, 0.00, -0.00, -1.00, 232.1, 9.0)">y</text><text xml:space="preserve" font-family="Avenir-Light,Avenir" font-size="30.0" fill="#FEFFFF" transform="matrix(1.00, 0.00, -0.00, -1.00, 246.0, 9.0)"> </text><text xml:space="preserve" font-family="Avenir-Light,Avenir" font-size="30.0" fill="#FEFFFF" transform="matrix(1.00, 0.00, -0.00, -1.00, 253.8, 9.0)">a</text><text xml:space="preserve" font-family="Avenir-Light,Avenir" font-size="30.0" fill="#FEFFFF" transform="matrix(1.00, 0.00, -0.00, -1.00, 269.4, 9.0)">l</text><text xml:space="preserve" font-family="Avenir-Light,Avenir" font-size="30.0" fill="#FEFFFF" transform="matrix(1.00, 0.00, -0.00, -1.00, 276.6, 9.0)">r</text><text xml:space="preserve" font-family="Avenir-Light,Avenir" font-size="30.0" fill="#FEFFFF" transform="matrix(1.00, 0.00, -0.00, -1.00, 286.0, 9.0)">e</text><text xml:space="preserve" font-family="Avenir-Light,Avenir" font-size="30.0" fill="#FEFFFF" transform="matrix(1.00, 0.00, -0.00, -1.00, 302.7, 9.0)">a</text><text xml:space="preserve" font-family="Avenir-Light,Avenir" font-size="30.0" fill="#FEFFFF" transform="matrix(1.00, 0.00, -0.00, -1.00, 318.3, 9.0)">d</text><text xml:space="preserve" font-family="Avenir-Light,Avenir" font-size="30.0" fill="#FEFFFF" transform="matrix(1.00, 0.00, -0.00, -1.00, 336.6, 9.0)">y</text><text xml:space="preserve" font-family="Avenir-Light,Avenir" font-size="30.0" fill="#FEFFFF" transform="matrix(1.00, 0.00, -0.00, -1.00, 350.5, 9.0)"> </text><text xml:space="preserve" font-family="Avenir-Light,Avenir" font-size="30.0" fill="#FEFFFF" transform="matrix(1.00, 0.00, -0.00, -1.00, 358.3, 9.0)">s</text><text xml:space="preserve" font-family="Avenir-Light,Avenir" font-size="30.0" fill="#FEFFFF" transform="matrix(1.00, 0.00, -0.00, -1.00, 371.1, 9.0)">e</text><text xml:space="preserve" font-family="Avenir-Light,Avenir" font-size="30.0" fill="#FEFFFF" transform="matrix(1.00, 0.00, -0.00, -1.00, 387.7, 9.0)">e</text><text xml:space="preserve" font-family="Avenir-Light,Avenir" font-size="30.0" fill="#FEFFFF" transform="matrix(1.00, 0.00, -0.00, -1.00, 404.4, 9.0)">n</text><text xml:space="preserve" font-family="Avenir-Light,Avenir" font-size="30.0" fill="#FEFFFF" transform="matrix(1.00, 0.00, -0.00, -1.00, 421.1, 9.0)"> </text><text xml:space="preserve" font-family="Avenir-Light,Avenir" font-size="30.0" fill="#FEFFFF" transform="matrix(1.00, 0.00, -0.00, -1.00, 428.9, 9.0)">d</text><text xml:space="preserve" font-family="Avenir-Light,Avenir" font-size="30.0" fill="#FEFFFF" transform="matrix(1.00, 0.00, -0.00, -1.00, 447.2, 9.0)">e</text><text xml:space="preserve" font-family="Avenir-Light,Avenir" font-size="30.0" fill="#FEFFFF" transform="matrix(1.00, 0.00, -0.00, -1.00, 463.9, 9.0)">m</text><text xml:space="preserve" font-family="Avenir-Light,Avenir" font-size="30.0" fill="#FEFFFF" transform="matrix(1.00, 0.00, -0.00, -1.00, 489.5, 9.0)">o</text><text xml:space="preserve" font-family="Avenir-Light,Avenir" font-size="30.0" fill="#FEFFFF" transform="matrix(1.00, 0.00, -0.00, -1.00, 507.3, 9.0)">s</text><text xml:space="preserve" font-family="Avenir-Light,Avenir" font-size="30.0" fill="#FEFFFF" transform="matrix(1.00, 0.00, -0.00, -1.00, 520.1, 9.0)"> </text><text xml:space="preserve" font-family="Avenir-Light,Avenir" font-size="30.0" fill="#FEFFFF" transform="matrix(1.00, 0.00, -0.00, -1.00, 527.9, 9.0)">o</text><text xml:space="preserve" font-family="Avenir-Light,Avenir" font-size="30.0" fill="#FEFFFF" transform="matrix(1.00, 0.00, -0.00, -1.00, 545.7, 9.0)">f</text><text xml:space="preserve" font-family="Avenir-Light,Avenir" font-size="30.0" fill="#FEFFFF" transform="matrix(1.00, 0.00, -0.00, -1.00, 554.6, 9.0)"> </text><text xml:space="preserve" font-family="Avenir-Light,Avenir" font-size="30.0" fill="#FEFFFF" transform="matrix(1.00, 0.00, -0.00, -1.00, 562.4, 9.0)">t</text><text xml:space="preserve" font-family="Avenir-Light,Avenir" font-size="30.0" fill="#FEFFFF" transform="matrix(1.00, 0.00, -0.00, -1.00, 572.4, 9.0)">h</text><text xml:space="preserve" font-family="Avenir-Light,Avenir" font-size="30.0" fill="#FEFFFF" transform="matrix(1.00, 0.00, -0.00, -1.00, 589.1, 9.0)">i</text><text xml:space="preserve" font-family="Avenir-Light,Avenir" font-size="30.0" fill="#FEFFFF" transform="matrix(1.00, 0.00, -0.00, -1.00, 596.3, 9.0)">s</text><text xml:space="preserve" font-family="Avenir-Light,Avenir" font-size="30.0" fill="#FEFFFF" transform="matrix(1.00, 0.00, -0.00, -1.00, 609.1, 9.0)">…</text></g></svg>