<?xml version="1.0" encoding="UTF-8" standalone="no"?><svg xmlns="http://www.w3.org/2000/svg" xmlns:xlink="http://www.w3.org/1999/xlink" clip-rule="evenodd" stroke-miterlimit="10" viewBox="0 0 197 32"><desc>SVG generated by Keynote</desc><defs></defs><g transform="matrix(1.00, 0.00, -0.00, -1.00, 0.0, 32.0)"><text xml:space="preserve" font-family="Avenir-Light,Avenir" font-size="22.5" fill="#646363" transform="matrix(1.00, 0.00, -0.00, -1.00, 0.9, 9.2)">•</text><text xml:space="preserve" font-family="Avenir-Light,Avenir" font-size="25.0" fill="#FEFFFF" transform="matrix(1.00, 0.00, -0.00, -1.00, 31.9, 8.1)">I</text><text xml:space="preserve" font-family="Avenir-Light,Avenir" font-size="25.0" fill="#FEFFFF" transform="matrix(1.00, 0.00, -0.00, -1.00, 38.4, 8.1)">m</text><text xml:space="preserve" font-family="Avenir-Light,Avenir" font-size="25.0" fill="#FEFFFF" transform="matrix(1.00, 0.00, -0.00, -1.00, 59.7, 8.1)">a</text><text xml:space="preserve" font-family="Avenir-Light,Avenir" font-size="25.0" fill="#FEFFFF" transform="matrix(1.00, 0.00, -0.00, -1.00, 72.7, 8.1)">g</text><text xml:space="preserve" font-family="Avenir-Light,Avenir" font-size="25.0" fill="#FEFFFF" transform="matrix(1.00, 0.00, -0.00, -1.00, 88.0, 8.1)">e</text><text xml:space="preserve" font-family="Avenir-Light,Avenir" font-size="25.0" fill="#FEFFFF" transform="matrix(1.00, 0.00, -0.00, -1.00, 101.9, 8.1)"> </text><text xml:space="preserve" font-family="Avenir-Light,Avenir" font-size="25.0" fill="#FEFFFF" transform="matrix(1.00, 0.00, -0.00, -1.00, 108.4, 8.1)">C</text><text xml:space="preserve" font-family="Avenir-Light,Avenir" font-size="25.0" fill="#FEFFFF" transform="matrix(1.00, 0.00, -0.00, -1.00, 126.0, 8.1)">a</text><text xml:space="preserve" font-family="Avenir-Light,Avenir" font-size="25.0" fill="#FEFFFF" transform="matrix(1.00, 0.00, -0.00, -1.00, 139.0, 8.1)">p</text><text xml:space="preserve" font-family="Avenir-Light,Avenir" font-size="25.0" fill="#FEFFFF" transform="matrix(1.00, 0.00, -0.00, -1.00, 154.2, 8.1)">t</text><text xml:space="preserve" font-family="Avenir-Light,Avenir" font-size="25.0" fill="#FEFFFF" transform="matrix(1.00, 0.00, -0.00, -1.00, 162.6, 8.1)">i</text><text xml:space="preserve" font-family="Avenir-Light,Avenir" font-size="25.0" fill="#FEFFFF" transform="matrix(1.00, 0.00, -0.00, -1.00, 168.6, 8.1)">o</text><text xml:space="preserve" font-family="Avenir-Light,Avenir" font-size="25.0" fill="#FEFFFF" transform="matrix(1.00, 0.00, -0.00, -1.00, 183.4, 8.1)">n</text></g></svg>