<?xml version="1.0" encoding="UTF-8" standalone="no"?><svg xmlns="http://www.w3.org/2000/svg" xmlns:xlink="http://www.w3.org/1999/xlink" clip-rule="evenodd" stroke-miterlimit="10" viewBox="0 0 1024 768"><desc>SVG generated by Keynote</desc><defs></defs><g transform="matrix(1.00, 0.00, -0.00, -1.00, 0.0, 768.0)"><path d="M 0.0 768.0 L 1024.0 768.0 L 1024.0 0.0 L 0.0 0.0 Z M 0.0 768.0 " fill="#000000"></path><g><clipPath id="clip0x600000cb3440"><path d="M 0.0 768.0 L 1024.0 768.0 L 1024.0 0.0 L 0.0 0.0 Z M 0.0 768.0 "></path></clipPath><g clip-path="url(#clip0x600000cb3440)"><image xlink:href="../../962CADD0-2ACD-4BF1-8BEA-ECF8B88F466F/assets/0599BEDF6978BC4E81738FDACD2BBC8A.jpeg" width="1024.00" height="682.00" transform="matrix(1.13, 0.00, -0.00, -1.13, -64.6, 768.0)"></image></g></g><g opacity="0.75"><g><clipPath id="clip0x610000aa9e40"><path d="M 0.0 0.0 L 1024.0 0.0 L 1024.0 768.0 L 0.0 768.0 Z M 0.0 0.0 "></path></clipPath><g clip-path="url(#clip0x610000aa9e40)"><path d="M -1.0 769.0 L 1025.0 769.0 L 1025.0 -1.0 L -1.0 -1.0 Z M -0.9 768.9 " fill="#000000"></path></g></g></g><text xml:space="preserve" font-family="Avenir-Medium,Avenir" font-size="49.0" fill="#FEFFFE" transform="matrix(1.00, 0.00, -0.00, -1.00, 161.7, 663.4)">I</text><text xml:space="preserve" font-family="Avenir-Medium,Avenir" font-size="49.0" fill="#FEFFFE" transform="matrix(1.00, 0.00, -0.00, -1.00, 183.2, 663.4)">n</text><text xml:space="preserve" font-family="Avenir-Medium,Avenir" font-size="49.0" fill="#FEFFFE" transform="matrix(1.00, 0.00, -0.00, -1.00, 218.3, 663.4)">-</text><text xml:space="preserve" font-family="Avenir-Medium,Avenir" font-size="49.0" fill="#FEFFFE" transform="matrix(1.00, 0.00, -0.00, -1.00, 241.6, 663.4)">p</text><text xml:space="preserve" font-family="Avenir-Medium,Avenir" font-size="49.0" fill="#FEFFFE" transform="matrix(1.00, 0.00, -0.00, -1.00, 279.4, 663.4)">l</text><text xml:space="preserve" font-family="Avenir-Medium,Avenir" font-size="49.0" fill="#FEFFFE" transform="matrix(1.00, 0.00, -0.00, -1.00, 299.0, 663.4)">a</text><text xml:space="preserve" font-family="Avenir-Medium,Avenir" font-size="49.0" fill="#FEFFFE" transform="matrix(1.00, 0.00, -0.00, -1.00, 332.3, 663.4)">c</text><text xml:space="preserve" font-family="Avenir-Medium,Avenir" font-size="49.0" fill="#FEFFFE" transform="matrix(1.00, 0.00, -0.00, -1.00, 363.7, 663.4)">e</text><text xml:space="preserve" font-family="Avenir-Medium,Avenir" font-size="49.0" fill="#FEFFFE" transform="matrix(1.00, 0.00, -0.00, -1.00, 398.8, 663.4)"> </text><text xml:space="preserve" font-family="Avenir-Medium,Avenir" font-size="49.0" fill="#FEFFFE" transform="matrix(1.00, 0.00, -0.00, -1.00, 420.3, 663.4)">C</text><text xml:space="preserve" font-family="Avenir-Medium,Avenir" font-size="49.0" fill="#FEFFFE" transform="matrix(1.00, 0.00, -0.00, -1.00, 462.6, 663.4)">o</text><text xml:space="preserve" font-family="Avenir-Medium,Avenir" font-size="49.0" fill="#FEFFFE" transform="matrix(1.00, 0.00, -0.00, -1.00, 499.6, 663.4)">n</text><text xml:space="preserve" font-family="Avenir-Medium,Avenir" font-size="49.0" fill="#FEFFFE" transform="matrix(1.00, 0.00, -0.00, -1.00, 534.6, 663.4)">t</text><text xml:space="preserve" font-family="Avenir-Medium,Avenir" font-size="49.0" fill="#FEFFFE" transform="matrix(1.00, 0.00, -0.00, -1.00, 560.6, 663.4)">e</text><text xml:space="preserve" font-family="Avenir-Medium,Avenir" font-size="49.0" fill="#FEFFFE" transform="matrix(1.00, 0.00, -0.00, -1.00, 595.7, 663.4)">n</text><text xml:space="preserve" font-family="Avenir-Medium,Avenir" font-size="49.0" fill="#FEFFFE" transform="matrix(1.00, 0.00, -0.00, -1.00, 630.8, 663.4)">t</text><text xml:space="preserve" font-family="Avenir-Medium,Avenir" font-size="49.0" fill="#FEFFFE" transform="matrix(1.00, 0.00, -0.00, -1.00, 656.7, 663.4)"> </text><text xml:space="preserve" font-family="Avenir-Medium,Avenir" font-size="49.0" fill="#FEFFFE" transform="matrix(1.00, 0.00, -0.00, -1.00, 678.2, 663.4)">E</text><text xml:space="preserve" font-family="Avenir-Medium,Avenir" font-size="49.0" fill="#FEFFFE" transform="matrix(1.00, 0.00, -0.00, -1.00, 716.0, 663.4)">d</text><text xml:space="preserve" font-family="Avenir-Medium,Avenir" font-size="49.0" fill="#FEFFFE" transform="matrix(1.00, 0.00, -0.00, -1.00, 753.8, 663.4)">i</text><text xml:space="preserve" font-family="Avenir-Medium,Avenir" font-size="49.0" fill="#FEFFFE" transform="matrix(1.00, 0.00, -0.00, -1.00, 773.4, 663.4)">t</text><text xml:space="preserve" font-family="Avenir-Medium,Avenir" font-size="49.0" fill="#FEFFFE" transform="matrix(1.00, 0.00, -0.00, -1.00, 799.3, 663.4)">o</text><text xml:space="preserve" font-family="Avenir-Medium,Avenir" font-size="49.0" fill="#FEFFFE" transform="matrix(1.00, 0.00, -0.00, -1.00, 836.3, 663.4)">r</text></g></svg>