<?xml version="1.0" encoding="UTF-8" standalone="no"?><svg xmlns="http://www.w3.org/2000/svg" xmlns:xlink="http://www.w3.org/1999/xlink" clip-rule="evenodd" stroke-miterlimit="10" viewBox="0 0 176 32"><desc>SVG generated by Keynote</desc><defs></defs><g transform="matrix(1.00, 0.00, -0.00, -1.00, 0.0, 32.0)"><text xml:space="preserve" font-family="Avenir-Light,Avenir" font-size="22.5" fill="#646363" transform="matrix(1.00, 0.00, -0.00, -1.00, 0.9, 9.2)">•</text><text xml:space="preserve" font-family="Avenir-Light,Avenir" font-size="25.0" fill="#FEFFFF" transform="matrix(1.00, 0.00, -0.00, -1.00, 31.9, 8.1)">S</text><text xml:space="preserve" font-family="Avenir-Light,Avenir" font-size="25.0" fill="#FEFFFF" transform="matrix(1.00, 0.00, -0.00, -1.00, 45.8, 8.1)">t</text><text xml:space="preserve" font-family="Avenir-Light,Avenir" font-size="25.0" fill="#FEFFFF" transform="matrix(1.00, 0.00, -0.00, -1.00, 54.2, 8.1)">y</text><text xml:space="preserve" font-family="Avenir-Light,Avenir" font-size="25.0" fill="#FEFFFF" transform="matrix(1.00, 0.00, -0.00, -1.00, 65.7, 8.1)">l</text><text xml:space="preserve" font-family="Avenir-Light,Avenir" font-size="25.0" fill="#FEFFFF" transform="matrix(1.00, 0.00, -0.00, -1.00, 71.7, 8.1)">e</text><text xml:space="preserve" font-family="Avenir-Light,Avenir" font-size="25.0" fill="#FEFFFF" transform="matrix(1.00, 0.00, -0.00, -1.00, 85.6, 8.1)"> </text><text xml:space="preserve" font-family="Avenir-Light,Avenir" font-size="25.0" fill="#FEFFFF" transform="matrix(1.00, 0.00, -0.00, -1.00, 92.1, 8.1)">C</text><text xml:space="preserve" font-family="Avenir-Light,Avenir" font-size="25.0" fill="#FEFFFF" transform="matrix(1.00, 0.00, -0.00, -1.00, 109.7, 8.1)">o</text><text xml:space="preserve" font-family="Avenir-Light,Avenir" font-size="25.0" fill="#FEFFFF" transform="matrix(1.00, 0.00, -0.00, -1.00, 124.6, 8.1)">m</text><text xml:space="preserve" font-family="Avenir-Light,Avenir" font-size="25.0" fill="#FEFFFF" transform="matrix(1.00, 0.00, -0.00, -1.00, 145.9, 8.1)">b</text><text xml:space="preserve" font-family="Avenir-Light,Avenir" font-size="25.0" fill="#FEFFFF" transform="matrix(1.00, 0.00, -0.00, -1.00, 161.2, 8.1)">o</text></g></svg>