<?xml version="1.0" encoding="UTF-8" standalone="no"?><svg xmlns="http://www.w3.org/2000/svg" xmlns:xlink="http://www.w3.org/1999/xlink" clip-rule="evenodd" stroke-miterlimit="10" viewBox="0 0 1024 768"><desc>SVG generated by Keynote</desc><defs></defs><g transform="matrix(1.00, 0.00, -0.00, -1.00, 0.0, 768.0)"><path d="M 0.0 768.0 L 1024.0 768.0 L 1024.0 0.0 L 0.0 0.0 Z M 0.0 768.0 " fill="#000000"></path><g><clipPath id="clip0x6180008aaaa0"><path d="M 0.0 554.0 L 1024.0 554.0 L 1024.0 0.0 L 0.0 0.0 Z M 0.0 554.0 "></path></clipPath><g clip-path="url(#clip0x6180008aaaa0)"><image xlink:href="E67BD13100D056B5DF32B44E80C724EE.jpeg" width="1024.00" height="768.00" transform="matrix(1.00, 0.00, -0.00, -1.00, 0.0, 592.0)"></image></g></g><text xml:space="preserve" font-family="Avenir-Light,Avenir" font-size="30.0" fill="#FEFFFF" transform="matrix(1.00, 0.00, -0.00, -1.00, 119.5, 648.0)">I</text><text xml:space="preserve" font-family="Avenir-Light,Avenir" font-size="30.0" fill="#FEFFFF" transform="matrix(1.00, 0.00, -0.00, -1.00, 132.1, 648.0)"> </text><text xml:space="preserve" font-family="Avenir-Light,Avenir" font-size="30.0" fill="#FEFFFF" transform="matrix(1.00, 0.00, -0.00, -1.00, 144.7, 648.0)">H</text><text xml:space="preserve" font-family="Avenir-Light,Avenir" font-size="30.0" fill="#FEFFFF" transform="matrix(1.00, 0.00, -0.00, -1.00, 171.1, 648.0)">A</text><text xml:space="preserve" font-family="Avenir-Light,Avenir" font-size="30.0" fill="#FEFFFF" transform="matrix(1.00, 0.00, -0.00, -1.00, 195.0, 648.0)">V</text><text xml:space="preserve" font-family="Avenir-Light,Avenir" font-size="30.0" fill="#FEFFFF" transform="matrix(1.00, 0.00, -0.00, -1.00, 217.6, 648.0)">E</text><text xml:space="preserve" font-family="Avenir-Light,Avenir" font-size="30.0" fill="#FEFFFF" transform="matrix(1.00, 0.00, -0.00, -1.00, 240.2, 648.0)"> </text><text xml:space="preserve" font-family="Avenir-Light,Avenir" font-size="30.0" fill="#FEFFFF" transform="matrix(1.00, 0.00, -0.00, -1.00, 252.8, 648.0)">N</text><text xml:space="preserve" font-family="Avenir-Light,Avenir" font-size="30.0" fill="#FEFFFF" transform="matrix(1.00, 0.00, -0.00, -1.00, 280.9, 648.0)">O</text><text xml:space="preserve" font-family="Avenir-Light,Avenir" font-size="30.0" fill="#FEFFFF" transform="matrix(1.00, 0.00, -0.00, -1.00, 310.7, 648.0)"> </text><text xml:space="preserve" font-family="Avenir-Light,Avenir" font-size="30.0" fill="#FEFFFF" transform="matrix(1.00, 0.00, -0.00, -1.00, 323.3, 648.0)">I</text><text xml:space="preserve" font-family="Avenir-Light,Avenir" font-size="30.0" fill="#FEFFFF" transform="matrix(1.00, 0.00, -0.00, -1.00, 335.9, 648.0)">D</text><text xml:space="preserve" font-family="Avenir-Light,Avenir" font-size="30.0" fill="#FEFFFF" transform="matrix(1.00, 0.00, -0.00, -1.00, 363.0, 648.0)">E</text><text xml:space="preserve" font-family="Avenir-Light,Avenir" font-size="30.0" fill="#FEFFFF" transform="matrix(1.00, 0.00, -0.00, -1.00, 385.5, 648.0)">A</text><text xml:space="preserve" font-family="Avenir-Light,Avenir" font-size="30.0" fill="#FEFFFF" transform="matrix(1.00, 0.00, -0.00, -1.00, 410.9, 648.0)"> </text><text xml:space="preserve" font-family="Avenir-Light,Avenir" font-size="30.0" fill="#FEFFFF" transform="matrix(1.00, 0.00, -0.00, -1.00, 423.5, 648.0)">W</text><text xml:space="preserve" font-family="Avenir-Light,Avenir" font-size="30.0" fill="#FEFFFF" transform="matrix(1.00, 0.00, -0.00, -1.00, 456.6, 648.0)">H</text><text xml:space="preserve" font-family="Avenir-Light,Avenir" font-size="30.0" fill="#FEFFFF" transform="matrix(1.00, 0.00, -0.00, -1.00, 483.1, 648.0)">A</text><text xml:space="preserve" font-family="Avenir-Light,Avenir" font-size="30.0" fill="#FEFFFF" transform="matrix(1.00, 0.00, -0.00, -1.00, 506.4, 648.0)">T</text><text xml:space="preserve" font-family="Avenir-Light,Avenir" font-size="30.0" fill="#FEFFFF" transform="matrix(1.00, 0.00, -0.00, -1.00, 528.4, 648.0)"> </text><text xml:space="preserve" font-family="Avenir-Light,Avenir" font-size="30.0" fill="#FEFFFF" transform="matrix(1.00, 0.00, -0.00, -1.00, 541.0, 648.0)">I</text><text xml:space="preserve" font-family="Avenir-Light,Avenir" font-size="30.0" fill="#FEFFFF" transform="matrix(1.00, 0.00, -0.00, -1.00, 553.6, 648.0)">S</text><text xml:space="preserve" font-family="Avenir-Light,Avenir" font-size="30.0" fill="#FEFFFF" transform="matrix(1.00, 0.00, -0.00, -1.00, 575.1, 648.0)"> </text><text xml:space="preserve" font-family="Avenir-Light,Avenir" font-size="30.0" fill="#FEFFFF" transform="matrix(1.00, 0.00, -0.00, -1.00, 587.7, 648.0)">G</text><text xml:space="preserve" font-family="Avenir-Light,Avenir" font-size="30.0" fill="#FEFFFF" transform="matrix(1.00, 0.00, -0.00, -1.00, 615.8, 648.0)">O</text><text xml:space="preserve" font-family="Avenir-Light,Avenir" font-size="30.0" fill="#FEFFFF" transform="matrix(1.00, 0.00, -0.00, -1.00, 645.6, 648.0)">I</text><text xml:space="preserve" font-family="Avenir-Light,Avenir" font-size="30.0" fill="#FEFFFF" transform="matrix(1.00, 0.00, -0.00, -1.00, 658.2, 648.0)">N</text><text xml:space="preserve" font-family="Avenir-Light,Avenir" font-size="30.0" fill="#FEFFFF" transform="matrix(1.00, 0.00, -0.00, -1.00, 686.4, 648.0)">G</text><text xml:space="preserve" font-family="Avenir-Light,Avenir" font-size="30.0" fill="#FEFFFF" transform="matrix(1.00, 0.00, -0.00, -1.00, 714.5, 648.0)"> </text><text xml:space="preserve" font-family="Avenir-Light,Avenir" font-size="30.0" fill="#FEFFFF" transform="matrix(1.00, 0.00, -0.00, -1.00, 727.1, 648.0)">O</text><text xml:space="preserve" font-family="Avenir-Light,Avenir" font-size="30.0" fill="#FEFFFF" transform="matrix(1.00, 0.00, -0.00, -1.00, 756.9, 648.0)">N</text><text xml:space="preserve" font-family="Avenir-Light,Avenir" font-size="30.0" fill="#FEFFFF" transform="matrix(1.00, 0.00, -0.00, -1.00, 785.1, 648.0)"> </text><text xml:space="preserve" font-family="Avenir-Light,Avenir" font-size="30.0" fill="#FEFFFF" transform="matrix(1.00, 0.00, -0.00, -1.00, 797.7, 648.0)">H</text><text xml:space="preserve" font-family="Avenir-Light,Avenir" font-size="30.0" fill="#FEFFFF" transform="matrix(1.00, 0.00, -0.00, -1.00, 824.1, 648.0)">E</text><text xml:space="preserve" font-family="Avenir-Light,Avenir" font-size="30.0" fill="#FEFFFF" transform="matrix(1.00, 0.00, -0.00, -1.00, 846.7, 648.0)">R</text><text xml:space="preserve" font-family="Avenir-Light,Avenir" font-size="30.0" fill="#FEFFFF" transform="matrix(1.00, 0.00, -0.00, -1.00, 869.3, 648.0)">E</text><text xml:space="preserve" font-family="Avenir-Light,Avenir" font-size="30.0" fill="#FEFFFF" transform="matrix(1.00, 0.00, -0.00, -1.00, 891.9, 648.0)">.</text></g></svg>