<?xml version="1.0" encoding="UTF-8" standalone="no"?><svg xmlns="http://www.w3.org/2000/svg" xmlns:xlink="http://www.w3.org/1999/xlink" clip-rule="evenodd" stroke-miterlimit="10" viewBox="0 0 406 50"><desc>SVG generated by Keynote</desc><defs></defs><g transform="matrix(1.00, 0.00, -0.00, -1.00, 0.0, 50.0)"><text xml:space="preserve" font-family="Avenir-Light,Avenir" font-size="36.0" fill="#FEFFFF" transform="matrix(1.00, 0.00, -0.00, -1.00, 0.2, 13.7)">•</text><text xml:space="preserve" font-family="Avenir-Light,Avenir" font-size="40.0" fill="#FEFFFF" transform="matrix(1.00, 0.00, -0.00, -1.00, 41.3, 12.1)">f</text><text xml:space="preserve" font-family="Avenir-Light,Avenir" font-size="40.0" fill="#FEFFFF" transform="matrix(1.00, 0.00, -0.00, -1.00, 53.2, 12.1)">o</text><text xml:space="preserve" font-family="Avenir-Light,Avenir" font-size="40.0" fill="#FEFFFF" transform="matrix(1.00, 0.00, -0.00, -1.00, 76.9, 12.1)">r</text><text xml:space="preserve" font-family="Avenir-Light,Avenir" font-size="40.0" fill="#FEFFFF" transform="matrix(1.00, 0.00, -0.00, -1.00, 90.2, 12.1)">m</text><text xml:space="preserve" font-family="Avenir-Light,Avenir" font-size="40.0" fill="#FEFFFF" transform="matrix(1.00, 0.00, -0.00, -1.00, 124.3, 12.1)">a</text><text xml:space="preserve" font-family="Avenir-Light,Avenir" font-size="40.0" fill="#FEFFFF" transform="matrix(1.00, 0.00, -0.00, -1.00, 145.1, 12.1)">t</text><text xml:space="preserve" font-family="Avenir-Light,Avenir" font-size="40.0" fill="#FEFFFF" transform="matrix(1.00, 0.00, -0.00, -1.00, 158.4, 12.1)">t</text><text xml:space="preserve" font-family="Avenir-Light,Avenir" font-size="40.0" fill="#FEFFFF" transform="matrix(1.00, 0.00, -0.00, -1.00, 171.8, 12.1)">e</text><text xml:space="preserve" font-family="Avenir-Light,Avenir" font-size="40.0" fill="#FEFFFF" transform="matrix(1.00, 0.00, -0.00, -1.00, 194.0, 12.1)">r</text><text xml:space="preserve" font-family="Avenir-Light,Avenir" font-size="40.0" fill="#FEFFFF" transform="matrix(1.00, 0.00, -0.00, -1.00, 207.3, 12.1)"> </text><text xml:space="preserve" font-family="Avenir-Light,Avenir" font-size="40.0" fill="#FEFFFF" transform="matrix(1.00, 0.00, -0.00, -1.00, 217.7, 12.1)">f</text><text xml:space="preserve" font-family="Avenir-Light,Avenir" font-size="40.0" fill="#FEFFFF" transform="matrix(1.00, 0.00, -0.00, -1.00, 229.6, 12.1)">o</text><text xml:space="preserve" font-family="Avenir-Light,Avenir" font-size="40.0" fill="#FEFFFF" transform="matrix(1.00, 0.00, -0.00, -1.00, 253.3, 12.1)">r</text><text xml:space="preserve" font-family="Avenir-Light,Avenir" font-size="40.0" fill="#FEFFFF" transform="matrix(1.00, 0.00, -0.00, -1.00, 266.6, 12.1)"> </text><text xml:space="preserve" font-family="Avenir-Light,Avenir" font-size="40.0" fill="#FEFFFF" transform="matrix(1.00, 0.00, -0.00, -1.00, 277.0, 12.1)">i</text><text xml:space="preserve" font-family="Avenir-Light,Avenir" font-size="40.0" fill="#FEFFFF" transform="matrix(1.00, 0.00, -0.00, -1.00, 286.6, 12.1)">m</text><text xml:space="preserve" font-family="Avenir-Light,Avenir" font-size="40.0" fill="#FEFFFF" transform="matrix(1.00, 0.00, -0.00, -1.00, 320.7, 12.1)">a</text><text xml:space="preserve" font-family="Avenir-Light,Avenir" font-size="40.0" fill="#FEFFFF" transform="matrix(1.00, 0.00, -0.00, -1.00, 341.5, 12.1)">g</text><text xml:space="preserve" font-family="Avenir-Light,Avenir" font-size="40.0" fill="#FEFFFF" transform="matrix(1.00, 0.00, -0.00, -1.00, 365.9, 12.1)">e</text><text xml:space="preserve" font-family="Avenir-Light,Avenir" font-size="40.0" fill="#FEFFFF" transform="matrix(1.00, 0.00, -0.00, -1.00, 388.2, 12.1)">s</text></g></svg>